<?xml version="1.0" encoding="UTF-8"?> <svg xmlns="http://www.w3.org/2000/svg" xmlns:xlink="http://www.w3.org/1999/xlink" viewBox="0 0 516.76 401.07"><defs><style>.cls-1{fill:url(#New_Gradient_Swatch_1);}.cls-2{fill:url(#New_Gradient_Swatch_1-2);}.cls-3{fill:url(#New_Gradient_Swatch_1-3);}.cls-4{fill:url(#New_Gradient_Swatch_1-4);}.cls-5{fill:url(#New_Gradient_Swatch_1-5);}.cls-6{fill:url(#New_Gradient_Swatch_1-6);}.cls-7{fill:url(#New_Gradient_Swatch_1-7);}.cls-8{fill:url(#New_Gradient_Swatch_1-8);}.cls-9{fill:url(#New_Gradient_Swatch_1-9);}.cls-10{fill:url(#New_Gradient_Swatch_1-10);}.cls-11{fill:url(#New_Gradient_Swatch_1-11);}.cls-12{fill:url(#New_Gradient_Swatch_1-12);}.cls-13{fill:url(#New_Gradient_Swatch_1-13);}.cls-14{fill:url(#New_Gradient_Swatch_1-14);}.cls-15{fill:url(#New_Gradient_Swatch_1-15);}.cls-16{fill:url(#New_Gradient_Swatch_1-16);}.cls-17{fill:url(#New_Gradient_Swatch_1-17);}.cls-18{fill:url(#New_Gradient_Swatch_1-18);}.cls-19{fill:url(#New_Gradient_Swatch_1-19);}.cls-20{fill:url(#New_Gradient_Swatch_1-20);}.cls-21{fill:url(#New_Gradient_Swatch_1-21);}.cls-22{fill:url(#New_Gradient_Swatch_1-22);}.cls-23{fill:url(#New_Gradient_Swatch_1-23);}.cls-24{fill:url(#New_Gradient_Swatch_1-24);}.cls-25{fill:url(#New_Gradient_Swatch_1-25);}.cls-26{fill:url(#New_Gradient_Swatch_1-26);}.cls-27{fill:url(#New_Gradient_Swatch_1-27);}.cls-28{fill:url(#New_Gradient_Swatch_1-28);}.cls-29{fill:url(#New_Gradient_Swatch_1-29);}.cls-30{fill:url(#New_Gradient_Swatch_1-30);}.cls-31{fill:url(#New_Gradient_Swatch_1-31);}.cls-32{fill:url(#New_Gradient_Swatch_1-32);}.cls-33{fill:url(#New_Gradient_Swatch_1-33);}.cls-34{fill:url(#New_Gradient_Swatch_1-34);}.cls-35{fill:url(#New_Gradient_Swatch_1-35);}.cls-36{fill:url(#New_Gradient_Swatch_1-36);}.cls-37{fill:url(#New_Gradient_Swatch_1-37);}.cls-38{fill:url(#New_Gradient_Swatch_1-38);}.cls-39{fill:url(#New_Gradient_Swatch_1-39);}.cls-40{fill:url(#New_Gradient_Swatch_1-40);}.cls-41{fill:url(#New_Gradient_Swatch_1-41);}.cls-42{fill:url(#New_Gradient_Swatch_1-42);}.cls-43{fill:url(#New_Gradient_Swatch_1-43);}.cls-44{fill:url(#New_Gradient_Swatch_1-44);}.cls-45{fill:url(#New_Gradient_Swatch_1-45);}.cls-46{fill:url(#New_Gradient_Swatch_1-46);}.cls-47{fill:url(#New_Gradient_Swatch_1-47);}.cls-48{fill:url(#New_Gradient_Swatch_1-48);}.cls-49{fill:url(#New_Gradient_Swatch_1-49);}.cls-50{fill:url(#New_Gradient_Swatch_1-50);}.cls-51{fill:url(#New_Gradient_Swatch_1-51);}.cls-52{fill:url(#New_Gradient_Swatch_1-52);}.cls-53{fill:url(#New_Gradient_Swatch_1-53);}.cls-54{fill:url(#New_Gradient_Swatch_1-54);}.cls-55{fill:url(#New_Gradient_Swatch_1-55);}.cls-56{fill:url(#New_Gradient_Swatch_1-56);}.cls-57{fill:url(#New_Gradient_Swatch_1-57);}.cls-58{fill:url(#New_Gradient_Swatch_1-58);}.cls-59{fill:url(#New_Gradient_Swatch_1-59);}.cls-60{fill:url(#New_Gradient_Swatch_1-60);}.cls-61{fill:url(#New_Gradient_Swatch_1-61);}.cls-62{fill:url(#New_Gradient_Swatch_1-62);}.cls-63{fill:url(#New_Gradient_Swatch_1-63);}.cls-64{fill:url(#New_Gradient_Swatch_1-64);}.cls-65{fill:url(#New_Gradient_Swatch_1-65);}.cls-66{fill:url(#New_Gradient_Swatch_1-66);}.cls-67{fill:url(#New_Gradient_Swatch_1-67);}.cls-68{fill:url(#New_Gradient_Swatch_1-68);}.cls-69{fill:url(#New_Gradient_Swatch_1-69);}.cls-70{fill:url(#New_Gradient_Swatch_1-70);}.cls-71{fill:url(#New_Gradient_Swatch_1-71);}.cls-72{fill:url(#New_Gradient_Swatch_1-72);}.cls-73{fill:url(#New_Gradient_Swatch_1-73);}.cls-74{fill:url(#New_Gradient_Swatch_1-74);}.cls-75{fill:url(#New_Gradient_Swatch_1-75);}.cls-76{fill:url(#New_Gradient_Swatch_1-76);}.cls-77{fill:url(#New_Gradient_Swatch_1-77);}.cls-78{fill:url(#New_Gradient_Swatch_1-78);}.cls-79{fill:url(#New_Gradient_Swatch_1-79);}</style><linearGradient id="New_Gradient_Swatch_1" x1="-35.84" y1="412.34" x2="702.52" y2="-103.74" gradientUnits="userSpaceOnUse"><stop offset="0" stop-color="#82b555"></stop><stop offset="0.12" stop-color="#6fb06c"></stop><stop offset="0.4" stop-color="#48a799"></stop><stop offset="0.65" stop-color="#2ca0ba"></stop><stop offset="0.86" stop-color="#1b9ccf"></stop><stop offset="1" stop-color="#159ad6"></stop></linearGradient><linearGradient id="New_Gradient_Swatch_1-2" x1="66.28" y1="558.44" x2="804.64" y2="42.36" xlink:href="#New_Gradient_Swatch_1"></linearGradient><linearGradient id="New_Gradient_Swatch_1-3" x1="85.82" y1="586.39" x2="824.18" y2="70.31" xlink:href="#New_Gradient_Swatch_1"></linearGradient><linearGradient id="New_Gradient_Swatch_1-4" x1="309.16" y1="383.74" x2="312.16" y2="383.74" xlink:href="#New_Gradient_Swatch_1"></linearGradient><linearGradient id="New_Gradient_Swatch_1-5" x1="58.48" y1="547.28" x2="796.84" y2="31.2" xlink:href="#New_Gradient_Swatch_1"></linearGradient><linearGradient id="New_Gradient_Swatch_1-6" x1="55.49" y1="543.01" x2="793.86" y2="26.93" xlink:href="#New_Gradient_Swatch_1"></linearGradient><linearGradient id="New_Gradient_Swatch_1-7" x1="61.46" y1="551.55" x2="799.83" y2="35.47" xlink:href="#New_Gradient_Swatch_1"></linearGradient><linearGradient id="New_Gradient_Swatch_1-8" x1="314.58" y1="386.31" x2="317.58" y2="386.31" xlink:href="#New_Gradient_Swatch_1"></linearGradient><linearGradient id="New_Gradient_Swatch_1-9" x1="67.73" y1="560.51" x2="806.09" y2="44.43" xlink:href="#New_Gradient_Swatch_1"></linearGradient><linearGradient id="New_Gradient_Swatch_1-10" x1="67.16" y1="559.69" x2="805.52" y2="43.61" xlink:href="#New_Gradient_Swatch_1"></linearGradient><linearGradient id="New_Gradient_Swatch_1-11" x1="66.58" y1="558.87" x2="804.94" y2="42.79" xlink:href="#New_Gradient_Swatch_1"></linearGradient><linearGradient id="New_Gradient_Swatch_1-12" x1="66.01" y1="558.05" x2="804.37" y2="41.97" xlink:href="#New_Gradient_Swatch_1"></linearGradient><linearGradient id="New_Gradient_Swatch_1-13" x1="65.44" y1="557.23" x2="803.8" y2="41.15" xlink:href="#New_Gradient_Swatch_1"></linearGradient><linearGradient id="New_Gradient_Swatch_1-14" x1="-30.9" y1="419.4" x2="707.46" y2="-96.68" xlink:href="#New_Gradient_Swatch_1"></linearGradient><linearGradient id="New_Gradient_Swatch_1-15" x1="-31.47" y1="418.58" x2="706.89" y2="-97.5" xlink:href="#New_Gradient_Swatch_1"></linearGradient><linearGradient id="New_Gradient_Swatch_1-16" x1="-32.05" y1="417.76" x2="706.31" y2="-98.32" xlink:href="#New_Gradient_Swatch_1"></linearGradient><linearGradient id="New_Gradient_Swatch_1-17" x1="-69.7" y1="363.89" x2="668.66" y2="-152.19" xlink:href="#New_Gradient_Swatch_1"></linearGradient><linearGradient id="New_Gradient_Swatch_1-18" x1="-72.69" y1="359.62" x2="665.67" y2="-156.46" xlink:href="#New_Gradient_Swatch_1"></linearGradient><linearGradient id="New_Gradient_Swatch_1-19" x1="-75.67" y1="355.34" x2="662.69" y2="-160.74" xlink:href="#New_Gradient_Swatch_1"></linearGradient><linearGradient id="New_Gradient_Swatch_1-20" x1="9.47" y1="477.16" x2="747.83" y2="-38.92" xlink:href="#New_Gradient_Swatch_1"></linearGradient><linearGradient id="New_Gradient_Swatch_1-21" x1="-63.57" y1="372.66" x2="674.79" y2="-143.42" xlink:href="#New_Gradient_Swatch_1"></linearGradient><linearGradient id="New_Gradient_Swatch_1-22" x1="37.61" y1="517.42" x2="775.97" y2="1.34" xlink:href="#New_Gradient_Swatch_1"></linearGradient><linearGradient id="New_Gradient_Swatch_1-23" x1="-151.87" y1="246.33" x2="586.49" y2="-269.75" xlink:href="#New_Gradient_Swatch_1"></linearGradient><linearGradient id="New_Gradient_Swatch_1-24" x1="-155.66" y1="240.9" x2="582.7" y2="-275.18" xlink:href="#New_Gradient_Swatch_1"></linearGradient><linearGradient id="New_Gradient_Swatch_1-25" x1="-157.44" y1="238.36" x2="580.92" y2="-277.72" xlink:href="#New_Gradient_Swatch_1"></linearGradient><linearGradient id="New_Gradient_Swatch_1-26" x1="53.22" y1="539.76" x2="791.58" y2="23.68" xlink:href="#New_Gradient_Swatch_1"></linearGradient><linearGradient id="New_Gradient_Swatch_1-27" x1="-103.05" y1="316.17" x2="635.31" y2="-199.9" xlink:href="#New_Gradient_Swatch_1"></linearGradient><linearGradient id="New_Gradient_Swatch_1-28" x1="-88.54" y1="336.94" x2="649.82" y2="-179.14" xlink:href="#New_Gradient_Swatch_1"></linearGradient><linearGradient id="New_Gradient_Swatch_1-29" x1="-74.03" y1="357.7" x2="664.34" y2="-158.38" xlink:href="#New_Gradient_Swatch_1"></linearGradient><linearGradient id="New_Gradient_Swatch_1-30" x1="-2.57" y1="459.93" x2="735.79" y2="-56.15" xlink:href="#New_Gradient_Swatch_1"></linearGradient><linearGradient id="New_Gradient_Swatch_1-31" x1="11.94" y1="480.7" x2="750.3" y2="-35.38" xlink:href="#New_Gradient_Swatch_1"></linearGradient><linearGradient id="New_Gradient_Swatch_1-32" x1="26.46" y1="501.46" x2="764.82" y2="-14.62" xlink:href="#New_Gradient_Swatch_1"></linearGradient><linearGradient id="New_Gradient_Swatch_1-33" x1="-115.73" y1="298.03" x2="622.63" y2="-218.05" xlink:href="#New_Gradient_Swatch_1"></linearGradient><linearGradient id="New_Gradient_Swatch_1-34" x1="-101.22" y1="318.8" x2="637.14" y2="-197.28" xlink:href="#New_Gradient_Swatch_1"></linearGradient><linearGradient id="New_Gradient_Swatch_1-35" x1="-176" y1="211.8" x2="562.36" y2="-304.27" xlink:href="#New_Gradient_Swatch_1"></linearGradient><linearGradient id="New_Gradient_Swatch_1-36" x1="-193.02" y1="187.46" x2="545.34" y2="-328.62" xlink:href="#New_Gradient_Swatch_1"></linearGradient><linearGradient id="New_Gradient_Swatch_1-37" x1="-185.13" y1="198.75" x2="553.23" y2="-317.33" xlink:href="#New_Gradient_Swatch_1"></linearGradient><linearGradient id="New_Gradient_Swatch_1-38" x1="-177.24" y1="210.04" x2="561.13" y2="-306.04" xlink:href="#New_Gradient_Swatch_1"></linearGradient><linearGradient id="New_Gradient_Swatch_1-39" x1="-94.14" y1="328.92" x2="644.22" y2="-187.16" xlink:href="#New_Gradient_Swatch_1"></linearGradient><linearGradient id="New_Gradient_Swatch_1-40" x1="-88.1" y1="337.56" x2="650.26" y2="-178.52" xlink:href="#New_Gradient_Swatch_1"></linearGradient><linearGradient id="New_Gradient_Swatch_1-41" x1="20.27" y1="492.61" x2="758.63" y2="-23.47" xlink:href="#New_Gradient_Swatch_1"></linearGradient><linearGradient id="New_Gradient_Swatch_1-42" x1="26.31" y1="501.26" x2="764.67" y2="-14.82" xlink:href="#New_Gradient_Swatch_1"></linearGradient><linearGradient id="New_Gradient_Swatch_1-43" x1="53.68" y1="540.41" x2="792.04" y2="24.33" xlink:href="#New_Gradient_Swatch_1"></linearGradient><linearGradient id="New_Gradient_Swatch_1-44" x1="59.72" y1="549.06" x2="798.08" y2="32.98" xlink:href="#New_Gradient_Swatch_1"></linearGradient><linearGradient id="New_Gradient_Swatch_1-45" x1="-81.22" y1="347.41" x2="657.14" y2="-168.67" xlink:href="#New_Gradient_Swatch_1"></linearGradient><linearGradient id="New_Gradient_Swatch_1-46" x1="-75.17" y1="356.06" x2="663.19" y2="-160.02" xlink:href="#New_Gradient_Swatch_1"></linearGradient><linearGradient id="New_Gradient_Swatch_1-47" x1="-42.71" y1="402.51" x2="695.65" y2="-113.57" xlink:href="#New_Gradient_Swatch_1"></linearGradient><linearGradient id="New_Gradient_Swatch_1-48" x1="-36.67" y1="411.15" x2="701.69" y2="-104.93" xlink:href="#New_Gradient_Swatch_1"></linearGradient><linearGradient id="New_Gradient_Swatch_1-49" x1="51.01" y1="536.59" x2="789.37" y2="20.51" xlink:href="#New_Gradient_Swatch_1"></linearGradient><linearGradient id="New_Gradient_Swatch_1-50" x1="-12.89" y1="445.17" x2="725.47" y2="-70.91" xlink:href="#New_Gradient_Swatch_1"></linearGradient><linearGradient id="New_Gradient_Swatch_1-51" x1="-20.75" y1="433.93" x2="717.61" y2="-82.15" xlink:href="#New_Gradient_Swatch_1"></linearGradient><linearGradient id="New_Gradient_Swatch_1-52" x1="-24.4" y1="428.7" x2="713.96" y2="-87.38" xlink:href="#New_Gradient_Swatch_1"></linearGradient><linearGradient id="New_Gradient_Swatch_1-53" x1="-141.99" y1="260.46" x2="596.37" y2="-255.62" xlink:href="#New_Gradient_Swatch_1"></linearGradient><linearGradient id="New_Gradient_Swatch_1-54" x1="-136.36" y1="268.52" x2="602" y2="-247.55" xlink:href="#New_Gradient_Swatch_1"></linearGradient><linearGradient id="New_Gradient_Swatch_1-55" x1="-139.17" y1="264.49" x2="599.19" y2="-251.58" xlink:href="#New_Gradient_Swatch_1"></linearGradient><linearGradient id="New_Gradient_Swatch_1-56" x1="-150.75" y1="247.94" x2="587.61" y2="-268.14" xlink:href="#New_Gradient_Swatch_1"></linearGradient><linearGradient id="New_Gradient_Swatch_1-57" x1="-148.78" y1="250.75" x2="589.58" y2="-265.32" xlink:href="#New_Gradient_Swatch_1"></linearGradient><linearGradient id="New_Gradient_Swatch_1-58" x1="-152.71" y1="245.12" x2="585.65" y2="-270.96" xlink:href="#New_Gradient_Swatch_1"></linearGradient><linearGradient id="New_Gradient_Swatch_1-59" x1="-77.2" y1="353.16" x2="661.16" y2="-162.91" xlink:href="#New_Gradient_Swatch_1"></linearGradient><linearGradient id="New_Gradient_Swatch_1-60" x1="-73.26" y1="358.8" x2="665.1" y2="-157.28" xlink:href="#New_Gradient_Swatch_1"></linearGradient><linearGradient id="New_Gradient_Swatch_1-61" x1="-75.23" y1="355.98" x2="663.13" y2="-160.1" xlink:href="#New_Gradient_Swatch_1"></linearGradient><linearGradient id="New_Gradient_Swatch_1-62" x1="-171.89" y1="217.69" x2="566.47" y2="-298.39" xlink:href="#New_Gradient_Swatch_1"></linearGradient><linearGradient id="New_Gradient_Swatch_1-63" x1="-173.86" y1="214.87" x2="564.5" y2="-301.21" xlink:href="#New_Gradient_Swatch_1"></linearGradient><linearGradient id="New_Gradient_Swatch_1-64" x1="31.38" y1="508.5" x2="769.74" y2="-7.58" xlink:href="#New_Gradient_Swatch_1"></linearGradient><linearGradient id="New_Gradient_Swatch_1-65" x1="25.75" y1="500.45" x2="764.11" y2="-15.63" xlink:href="#New_Gradient_Swatch_1"></linearGradient><linearGradient id="New_Gradient_Swatch_1-66" x1="28.56" y1="504.48" x2="766.92" y2="-11.6" xlink:href="#New_Gradient_Swatch_1"></linearGradient><linearGradient id="New_Gradient_Swatch_1-67" x1="-44.69" y1="399.67" x2="693.67" y2="-116.41" xlink:href="#New_Gradient_Swatch_1"></linearGradient><linearGradient id="New_Gradient_Swatch_1-68" x1="-39.06" y1="407.73" x2="699.31" y2="-108.34" xlink:href="#New_Gradient_Swatch_1"></linearGradient><linearGradient id="New_Gradient_Swatch_1-69" x1="-41.87" y1="403.7" x2="696.49" y2="-112.37" xlink:href="#New_Gradient_Swatch_1"></linearGradient><linearGradient id="New_Gradient_Swatch_1-70" x1="-21.73" y1="432.53" x2="716.64" y2="-83.55" xlink:href="#New_Gradient_Swatch_1"></linearGradient><linearGradient id="New_Gradient_Swatch_1-71" x1="-27.36" y1="424.47" x2="711" y2="-91.61" xlink:href="#New_Gradient_Swatch_1"></linearGradient><linearGradient id="New_Gradient_Swatch_1-72" x1="-30.18" y1="420.44" x2="708.18" y2="-95.64" xlink:href="#New_Gradient_Swatch_1"></linearGradient><linearGradient id="New_Gradient_Swatch_1-73" x1="-18.91" y1="436.56" x2="719.45" y2="-79.52" xlink:href="#New_Gradient_Swatch_1"></linearGradient><linearGradient id="New_Gradient_Swatch_1-74" x1="-24.54" y1="428.5" x2="713.82" y2="-87.58" xlink:href="#New_Gradient_Swatch_1"></linearGradient><linearGradient id="New_Gradient_Swatch_1-75" x1="-154.92" y1="241.96" x2="583.44" y2="-274.11" xlink:href="#New_Gradient_Swatch_1"></linearGradient><linearGradient id="New_Gradient_Swatch_1-76" x1="-158.86" y1="236.33" x2="579.5" y2="-279.75" xlink:href="#New_Gradient_Swatch_1"></linearGradient><linearGradient id="New_Gradient_Swatch_1-77" x1="-156.89" y1="239.15" x2="581.47" y2="-276.93" xlink:href="#New_Gradient_Swatch_1"></linearGradient><linearGradient id="New_Gradient_Swatch_1-78" x1="-152.95" y1="244.78" x2="585.41" y2="-271.3" xlink:href="#New_Gradient_Swatch_1"></linearGradient><linearGradient id="New_Gradient_Swatch_1-79" x1="-160.83" y1="233.51" x2="577.53" y2="-282.57" xlink:href="#New_Gradient_Swatch_1"></linearGradient></defs><title>Asset 1@1x</title><g id="Layer_2" data-name="Layer 2"><g id="outlined"><path class="cls-1" d="M199.06,311.7l-68,32.7-101.67-44a1.5,1.5,0,1,0-1.19,2.75l102.3,44.24a1.53,1.53,0,0,0,.6.12,1.51,1.51,0,0,0,.65-.15l68.61-33a1.5,1.5,0,1,0-1.3-2.7Z"></path><path class="cls-2" d="M491.83,309.57l-41.78-19.66a1.5,1.5,0,1,0-1.28,2.72l38.77,18.24-144,62.33-50.25-23.8a1.5,1.5,0,1,0-1.28,2.71l50.86,24.1a1.57,1.57,0,0,0,.64.14,1.52,1.52,0,0,0,.59-.12L491.78,312.3a1.5,1.5,0,0,0,.05-2.73Z"></path><path class="cls-3" d="M491.83,334.28l-18.1-8.51a1.5,1.5,0,1,0-1.28,2.71l15.09,7.1-144,62.34L322.1,387.76a1.5,1.5,0,1,0-1.29,2.71l22.06,10.45a1.43,1.43,0,0,0,.64.15,1.53,1.53,0,0,0,.59-.13L491.78,337a1.52,1.52,0,0,0,.91-1.36A1.5,1.5,0,0,0,491.83,334.28Z"></path><path class="cls-4" d="M311.3,382.38a1.5,1.5,0,1,0-.64,2.86,1.5,1.5,0,0,0,.64-2.86Z"></path><path class="cls-5" d="M300.46,377.24a1.51,1.51,0,0,0-2,.71,1.51,1.51,0,0,0,1.35,2.15,1.5,1.5,0,0,0,.65-2.86Z"></path><path class="cls-6" d="M295,374.67a1.5,1.5,0,1,0-1.28,2.71,1.43,1.43,0,0,0,.64.15,1.5,1.5,0,0,0,.64-2.86Z"></path><path class="cls-7" d="M305.88,379.81a1.5,1.5,0,1,0,.71,2A1.5,1.5,0,0,0,305.88,379.81Z"></path><path class="cls-8" d="M316.72,385a1.5,1.5,0,1,0-1.28,2.71,1.43,1.43,0,0,0,.64.15,1.5,1.5,0,0,0,.64-2.86Z"></path><path class="cls-9" d="M411,318.81a1.5,1.5,0,0,0,1.29,2.71,1.5,1.5,0,0,0-1.29-2.71Z"></path><path class="cls-10" d="M405.53,321.38a1.5,1.5,0,0,0,.64,2.85,1.42,1.42,0,0,0,.64-.14,1.5,1.5,0,1,0-1.28-2.71Z"></path><path class="cls-11" d="M400.11,324a1.5,1.5,0,0,0,.64,2.85,1.5,1.5,0,1,0-.64-2.85Z"></path><path class="cls-12" d="M394.68,326.52a1.5,1.5,0,0,0-.71,2,1.51,1.51,0,0,0,1.36.86,1.64,1.64,0,0,0,.64-.14,1.5,1.5,0,0,0-1.29-2.71Z"></path><path class="cls-13" d="M389.26,329.09a1.5,1.5,0,0,0,.65,2.85,1.64,1.64,0,0,0,.64-.14,1.51,1.51,0,0,0,.71-2A1.5,1.5,0,0,0,389.26,329.09Z"></path><path class="cls-14" d="M177.05,272.25a1.5,1.5,0,0,0,.65,2.85,1.64,1.64,0,0,0,.64-.14,1.5,1.5,0,0,0-1.29-2.71Z"></path><path class="cls-15" d="M171.63,274.81a1.5,1.5,0,0,0,.65,2.86,1.64,1.64,0,0,0,.64-.14,1.51,1.51,0,0,0-1.29-2.72Z"></path><path class="cls-16" d="M166.21,277.38a1.5,1.5,0,0,0,.64,2.86,1.43,1.43,0,0,0,.64-.15,1.5,1.5,0,1,0-1.28-2.71Z"></path><path class="cls-17" d="M23.35,297.94a1.51,1.51,0,0,0-2,.72,1.51,1.51,0,0,0,1.35,2.14,1.5,1.5,0,0,0,.65-2.86Z"></path><path class="cls-18" d="M17.92,295.37a1.5,1.5,0,0,0-2,.72,1.51,1.51,0,0,0,1.35,2.14,1.5,1.5,0,0,0,.64-2.86Z"></path><path class="cls-19" d="M12.5,292.8a1.5,1.5,0,1,0-1.28,2.72,1.57,1.57,0,0,0,.64.14,1.5,1.5,0,0,0,.64-2.86Z"></path><path class="cls-20" d="M347.07,239.23v38.91a1.5,1.5,0,0,0,3,0V239.23l79.82-35.82V279.2a1.5,1.5,0,0,0,3,0V201.09a1.58,1.58,0,0,0-.05-.38l0-.09a2.92,2.92,0,0,0-.14-.31l0,0a1.61,1.61,0,0,0-.24-.28l-.07-.06a1.75,1.75,0,0,0-.29-.18l0,0-82.83-37.17a1.55,1.55,0,0,0-1.23,0l-82.82,37.17,0,0a1.75,1.75,0,0,0-.29.18l-.07.06a1.67,1.67,0,0,0-.25.28l0,0a1.73,1.73,0,0,0-.14.31l0,.09a1.58,1.58,0,0,0-.05.38V327a1.5,1.5,0,0,0,3,0V203.41Zm1.5-73.66,79.16,35.52-79.16,35.53-79.16-35.53Z"></path><path class="cls-21" d="M238.67,264.09a1.5,1.5,0,0,0-3,0v72.66a12.62,12.62,0,1,1-25.24,0V141.83a1.76,1.76,0,0,0-.06-.39l0-.09a1.38,1.38,0,0,0-.14-.3l0,0a1.74,1.74,0,0,0-.25-.29l-.07-.05a1.12,1.12,0,0,0-.29-.19l0,0-53.68-24.09V41L235.68,76.8V226.68a1.5,1.5,0,0,0,3,0V76.8L318.5,41v97.58a1.5,1.5,0,0,0,3,0V38.66a1.58,1.58,0,0,0-.05-.38l0-.09a1.73,1.73,0,0,0-.14-.31l0,0a1.67,1.67,0,0,0-.25-.28l-.07-.06a1.75,1.75,0,0,0-.29-.18l0,0L237.8.13a1.55,1.55,0,0,0-1.23,0L153.75,37.3s0,0,0,0a1.75,1.75,0,0,0-.29.18l-.07.06a1.61,1.61,0,0,0-.24.28.08.08,0,0,0,0,0,1.77,1.77,0,0,0-.15.31.29.29,0,0,0,0,.09,1.21,1.21,0,0,0-.06.38V115L126.72,103.3a1.47,1.47,0,0,0-1.23,0L42.67,140.46l0,0a1.07,1.07,0,0,0-.28.19l-.08.05A1.68,1.68,0,0,0,42,141a.05.05,0,0,0,0,0,1.4,1.4,0,0,0-.15.3s0,.06,0,.09a1.32,1.32,0,0,0-.06.39v101L.86,262.12a1.51,1.51,0,0,0,0,2.74L130.72,321a1.38,1.38,0,0,0,.6.13A1.43,1.43,0,0,0,132,321l50.86-24.1a1.48,1.48,0,0,0,.71-2,1.51,1.51,0,0,0-2-.72L131.29,318,5.15,263.42l36.63-17.23V261.8a1.49,1.49,0,0,0,.94,1.38l82.79,35.73.14,0,.06,0a1.76,1.76,0,0,0,.39.06h.05a1.13,1.13,0,0,0,.32,0l.14,0,.11,0,34.41-15.44a1.5,1.5,0,1,0-1.22-2.74L126.09,295.9,44.78,260.81V144.15L124.6,180v85.81a1.5,1.5,0,0,0,3,0V180l79.83-35.82v192.6a15.62,15.62,0,1,0,31.24,0ZM237.18,3.14l79.16,35.52L237.18,74.19,158,38.66ZM126.1,177.35,46.94,141.83l79.16-35.52,27.67,12.42h0l51.48,23.1Z"></path><path class="cls-22" d="M265.73,348.84a1.5,1.5,0,0,0-1.5,1.5v17.34a12.63,12.63,0,0,1-25.25,0v-7a1.5,1.5,0,0,0-3,0v7a15.63,15.63,0,0,0,31.25,0V350.34A1.5,1.5,0,0,0,265.73,348.84Z"></path><path class="cls-23" d="M45.83,101.24h3.7a1.5,1.5,0,0,0,0-3h-3.7a7.54,7.54,0,0,0,0,15.08h8.65a1.5,1.5,0,0,0,0-3H45.83a4.54,4.54,0,0,1,0-9.08Z"></path><path class="cls-24" d="M81.31,98.24h-8a1.5,1.5,0,0,0,0,3h8a7.54,7.54,0,0,0,0-15.07H45.83a4.54,4.54,0,0,1,0-9.08H58.11a1.5,1.5,0,0,0,0-3H45.83a7.54,7.54,0,0,0,0,15.08H81.31a4.54,4.54,0,0,1,0,9.07Z"></path><path class="cls-25" d="M111.85,74.06H95.26a1.5,1.5,0,1,0,0,3h16.59a7.54,7.54,0,1,0,0-15.08H54.48a1.5,1.5,0,1,0,0,3h57.37a4.54,4.54,0,1,1,0,9.08Z"></path><path class="cls-26" d="M311.55,333.14a1.49,1.49,0,0,0,.75,2l34.42,15.45a1.49,1.49,0,0,0,.61.13,1.45,1.45,0,0,0,.62-.15,1.49,1.49,0,0,0,.62.15,1.46,1.46,0,0,0,.61-.13l34.42-15.45a1.5,1.5,0,0,0-1.23-2.73L348,347.83h0l-34.42-15.44A1.5,1.5,0,0,0,311.55,333.14Z"></path><path class="cls-27" d="M114.08,190h0v0s0-.07,0-.1,0-.12,0-.18a.74.74,0,0,0,0-.14,1,1,0,0,0,0-.14.83.83,0,0,0-.07-.13l-.06-.12-.09-.12-.09-.11-.11-.1-.11-.09-.16-.09-.09-.05-58.3-26.16a1.5,1.5,0,0,0-2,.76,1.64,1.64,0,0,0-.13.65V181a1.66,1.66,0,0,0,0,.32,1.53,1.53,0,0,0,.85,1.69L112,209.2a2.21,2.21,0,0,0,2.12-2.1Zm-58.3-23.87L111.08,191v14.54L55.78,180.7Z"></path><path class="cls-28" d="M114.08,220.94h0v0s0-.07,0-.1,0-.12,0-.18a2770559805165.79,2770559805165.79,0,0,0-.08-.28.83.83,0,0,0-.07-.13l-.06-.13-.09-.11-.09-.11-.11-.1-.11-.09-.16-.09-.09-.05-58.3-26.16a1.5,1.5,0,0,0-2,.75,1.71,1.71,0,0,0-.13.65v17.16a1.73,1.73,0,0,0,0,.32,1.51,1.51,0,0,0,.85,1.68L112,240.1a1.48,1.48,0,0,0,2-.75,1.49,1.49,0,0,0,.08-1,1.5,1.5,0,0,0,0-.37Zm-58.3-23.88,55.3,24.82v14.54L55.78,211.6Z"></path><path class="cls-29" d="M114.08,251.85h0v0s0-.07,0-.1,0-.12,0-.18a.74.74,0,0,0,0-.14.74.74,0,0,0,0-.14.54.54,0,0,0-.07-.13l-.06-.13-.09-.11-.09-.11-.11-.1-.11-.09a1.29,1.29,0,0,0-.16-.09l-.09-.05-58.3-26.16a1.5,1.5,0,0,0-2,.75,1.68,1.68,0,0,0-.13.65v17.16a1.55,1.55,0,0,0,0,.31,1.52,1.52,0,0,0,.85,1.69L112,271a2.2,2.2,0,0,0,2.12-2.09ZM55.78,228l55.3,24.82v14.54l-55.3-24.82Z"></path><path class="cls-30" d="M277.39,240.65l58.3,26.16a1.49,1.49,0,0,0,2.07-1.73,1.42,1.42,0,0,0,.05-.36V247.65h0v0s0-.06,0-.09,0-.12,0-.18,0-.1,0-.14a.57.57,0,0,0,0-.14.91.91,0,0,0-.07-.14.75.75,0,0,0-.07-.12.76.76,0,0,0-.08-.11l-.1-.12-.1-.09-.12-.09a.75.75,0,0,0-.15-.09l-.09-.05-58.3-26.16a1.49,1.49,0,0,0-2.11,1.4v17.16a1.55,1.55,0,0,0,0,.31A1.5,1.5,0,0,0,277.39,240.65Zm57.42,22.47-55.3-24.81V223.77l55.3,24.82Z"></path><path class="cls-31" d="M277.39,271.56l58.3,26.16a1.51,1.51,0,0,0,2-.76,12,12,0,0,1,.13-1.33V278.56h0v0s0-.06,0-.1,0-.12,0-.18,0-.09,0-.14a.65.65,0,0,0,0-.13.91.91,0,0,0-.07-.14.75.75,0,0,0-.07-.12.44.44,0,0,0-.08-.11l-.1-.12-.1-.09-.12-.1-.15-.08-.09-.06L278.62,251a1.51,1.51,0,0,0-2,.76,1.48,1.48,0,0,0-.13.65v17.16a1.63,1.63,0,0,0,0,.31A1.5,1.5,0,0,0,277.39,271.56ZM334.81,294l-55.3-24.81V254.68l55.3,24.81Z"></path><path class="cls-32" d="M336.31,328.76a1.5,1.5,0,0,0,1.37-.89,1.49,1.49,0,0,0,.08-1,1.5,1.5,0,0,0,.05-.37V309.46h0v0s0-.06,0-.1,0-.12,0-.18,0-.09,0-.14a1,1,0,0,0,0-.14l-.07-.13a.75.75,0,0,0-.07-.12.83.83,0,0,0-.08-.12l-.1-.11-.1-.1-.12-.09-.15-.09-.09-.05-58.3-26.16a1.5,1.5,0,0,0-2.11,1.41v17.15a1.66,1.66,0,0,0,0,.32,1.5,1.5,0,0,0,.85,1.69l58.3,26.16A1.5,1.5,0,0,0,336.31,328.76Zm-56.8-43.17,55.3,24.81v14.54l-55.3-24.81Z"></path><path class="cls-33" d="M225.31,85.28h0v0s0-.07,0-.1a1.1,1.1,0,0,0,0-.18l0-.14-.05-.14-.06-.13a.83.83,0,0,1-.07-.13l-.09-.11-.09-.11-.11-.1-.11-.09a1.19,1.19,0,0,0-.15-.09l-.09-.05-58.3-26.16a1.48,1.48,0,0,0-2.11,1.4s0,0,0,.06v17.1a1.75,1.75,0,0,0,0,.32,1.49,1.49,0,0,0,.85,1.68l58.3,26.16a1.49,1.49,0,0,0,.61.13,1.51,1.51,0,0,0,1.37-.88,1.49,1.49,0,0,0,.08-1,1.5,1.5,0,0,0,.05-.37ZM167,61.4l55.3,24.82v14.54L167,75.94Z"></path><path class="cls-34" d="M225.31,116.19h0v0s0-.07,0-.1a1.1,1.1,0,0,0,0-.18l0-.14s0-.1-.05-.14l-.06-.13-.07-.13-.09-.11-.09-.12-.11-.09a.87.87,0,0,0-.11-.09,1.19,1.19,0,0,0-.15-.09l-.09,0-58.3-26.16a1.5,1.5,0,0,0-2,.75A1.47,1.47,0,0,0,164,90a.43.43,0,0,1,0,0v17.11a1.55,1.55,0,0,0,0,.31,1.5,1.5,0,0,0,.85,1.69l58.3,26.16a1.49,1.49,0,0,0,.61.13,1.48,1.48,0,0,0,1.45-1.86,1.36,1.36,0,0,0,.05-.36ZM167,92.31l55.3,24.82v14.54L167,106.85Z"></path><path class="cls-35" d="M21,141.44a1.5,1.5,0,0,0,1.5-1.5V45.52H126.08a1.5,1.5,0,0,0,0-3H22.47V15.43A12.18,12.18,0,0,1,34.64,3.27H168.13a1.5,1.5,0,0,0,0-3H34.64A15.18,15.18,0,0,0,19.47,15.43V139.94A1.51,1.51,0,0,0,21,141.44Z"></path><path class="cls-36" d="M35.51,22.67a7.23,7.23,0,1,0,7.23-7.23A7.23,7.23,0,0,0,35.51,22.67Zm11.46,0a4.23,4.23,0,1,1-4.23-4.23A4.24,4.24,0,0,1,47,22.67Z"></path><path class="cls-37" d="M59.56,22.67a7.23,7.23,0,1,0,7.23-7.23A7.23,7.23,0,0,0,59.56,22.67Zm11.45,0a4.23,4.23,0,1,1-4.22-4.23A4.23,4.23,0,0,1,71,22.67Z"></path><path class="cls-38" d="M83.61,22.67a7.23,7.23,0,1,0,7.22-7.23A7.23,7.23,0,0,0,83.61,22.67Zm11.45,0a4.23,4.23,0,1,1-4.23-4.23A4.24,4.24,0,0,1,95.06,22.67Z"></path><path class="cls-39" d="M247.91,86.45a4.85,4.85,0,1,0,4.85-4.84A4.85,4.85,0,0,0,247.91,86.45Zm6.69,0a1.85,1.85,0,1,1-1.84-1.84A1.84,1.84,0,0,1,254.6,86.45Z"></path><path class="cls-40" d="M299.56,63.22a4.85,4.85,0,1,0,4.85-4.84A4.85,4.85,0,0,0,299.56,63.22Zm6.69,0a1.85,1.85,0,1,1-1.84-1.84A1.84,1.84,0,0,1,306.25,63.22Z"></path><path class="cls-41" d="M366.09,255.74a4.85,4.85,0,1,0-4.84-4.84A4.85,4.85,0,0,0,366.09,255.74Zm0-6.69a1.85,1.85,0,1,1-1.84,1.85A1.85,1.85,0,0,1,366.09,249.05Z"></path><path class="cls-42" d="M417.74,222.82a4.85,4.85,0,1,0,4.85,4.85A4.85,4.85,0,0,0,417.74,222.82Zm0,6.69a1.85,1.85,0,1,1,1.85-1.84A1.84,1.84,0,0,1,417.74,229.51Z"></path><path class="cls-43" d="M366.09,326.89a4.85,4.85,0,1,0-4.84-4.84A4.85,4.85,0,0,0,366.09,326.89Zm0-6.69a1.85,1.85,0,1,1-1.84,1.85A1.85,1.85,0,0,1,366.09,320.2Z"></path><path class="cls-44" d="M417.74,303.66a4.85,4.85,0,1,0-4.84-4.84A4.85,4.85,0,0,0,417.74,303.66Zm0-6.69a1.85,1.85,0,1,1-1.84,1.85A1.85,1.85,0,0,1,417.74,297Z"></path><path class="cls-45" d="M143.12,185.77a4.84,4.84,0,1,0,4.85,4.84A4.84,4.84,0,0,0,143.12,185.77Zm0,6.68a1.84,1.84,0,1,1,1.85-1.84A1.84,1.84,0,0,1,143.12,192.45Z"></path><path class="cls-46" d="M194.77,172.22a4.84,4.84,0,1,0-4.84-4.84A4.84,4.84,0,0,0,194.77,172.22Zm0-6.68a1.84,1.84,0,1,1-1.84,1.84A1.84,1.84,0,0,1,194.77,165.54Z"></path><path class="cls-47" d="M143.12,267.77a4.85,4.85,0,1,0,4.85,4.85A4.85,4.85,0,0,0,143.12,267.77Zm0,6.69a1.85,1.85,0,1,1,1.85-1.84A1.85,1.85,0,0,1,143.12,274.46Z"></path><path class="cls-48" d="M194.77,254.23a4.84,4.84,0,1,0-4.84-4.84A4.84,4.84,0,0,0,194.77,254.23Zm0-6.68a1.84,1.84,0,1,1-1.84,1.84A1.84,1.84,0,0,1,194.77,247.55Z"></path><path class="cls-49" d="M497.92,199.25a1.5,1.5,0,0,0-1.5,1.5v37.18a17.25,17.25,0,0,1-17.23,17.23H455.3a1.5,1.5,0,0,0,0,3h23.89a20.25,20.25,0,0,0,20.23-20.23V200.75A1.5,1.5,0,0,0,497.92,199.25Z"></path><path class="cls-50" d="M479.19,80.73A17.25,17.25,0,0,1,496.42,98v12.18a1.5,1.5,0,1,0,3,0V98a20.25,20.25,0,0,0-20.23-20.23,1.5,1.5,0,1,0,0,3Z"></path><path class="cls-51" d="M438.68,196.42a1.51,1.51,0,0,0,0,2.12,1.51,1.51,0,0,0,2.13,0,15.38,15.38,0,0,0,4.52-10.92V107a15.47,15.47,0,0,0-15.45-15.46H349.21A15.47,15.47,0,0,0,333.76,107v48.39a1.5,1.5,0,1,0,3,0V107a12.47,12.47,0,0,1,12.45-12.46h80.67A12.47,12.47,0,0,1,442.33,107v80.67A12.34,12.34,0,0,1,438.68,196.42Z"></path><path class="cls-52" d="M473,148.78h29.42a7.24,7.24,0,1,0,0-3H473a1.52,1.52,0,0,0-1.07.45V121.78a1.48,1.48,0,0,0,1.07.45h29.42a7.24,7.24,0,1,0,0-3H473a1.49,1.49,0,0,0-1.07.46V85.1a20.25,20.25,0,0,0-20.23-20.23H417.14a1.48,1.48,0,0,0,.45-1.07V35.57a7.23,7.23,0,1,0-3,0V63.8a1.52,1.52,0,0,0,.45,1.07H390.59A1.48,1.48,0,0,0,391,63.8V35.57a7.22,7.22,0,1,0-3,0V63.8a1.49,1.49,0,0,0,.46,1.07H364a1.49,1.49,0,0,0,.46-1.07V35.57a7.23,7.23,0,1,0-3,0V63.8a1.48,1.48,0,0,0,.45,1.07h-9.59a1.5,1.5,0,0,0,0,3h99.37A17.25,17.25,0,0,1,469,85.1V209.46a17.25,17.25,0,0,1-17.23,17.23h-7.9a1.5,1.5,0,0,0,0,3h7.9A20.25,20.25,0,0,0,472,209.46V174.88a1.48,1.48,0,0,0,1.07.45h29.42a7.24,7.24,0,1,0,0-3H473a1.48,1.48,0,0,0-1.07.45V148.33A1.48,1.48,0,0,0,473,148.78Zm36.51-5.65a4.23,4.23,0,1,1-4.23,4.22A4.22,4.22,0,0,1,509.54,143.13Zm0-26.55a4.23,4.23,0,1,1-4.23,4.23A4.23,4.23,0,0,1,509.54,116.58ZM411.86,28.5a4.23,4.23,0,1,1,4.23,4.23A4.24,4.24,0,0,1,411.86,28.5Zm-26.54,0a4.23,4.23,0,1,1,4.22,4.23A4.23,4.23,0,0,1,385.32,28.5Zm-26.55,0A4.23,4.23,0,1,1,363,32.73,4.24,4.24,0,0,1,358.77,28.5ZM509.54,169.68a4.23,4.23,0,1,1-4.23,4.22A4.22,4.22,0,0,1,509.54,169.68Z"></path><circle class="cls-53" cx="20.97" cy="146.56" r="1.5"></circle><circle class="cls-54" cx="20.97" cy="158.56" r="1.5"></circle><circle class="cls-55" cx="20.97" cy="152.56" r="1.5"></circle><path class="cls-56" d="M59.77,99.74a1.51,1.51,0,1,0,1.51-1.5A1.51,1.51,0,0,0,59.77,99.74Z"></path><path class="cls-57" d="M65.78,99.74a1.5,1.5,0,1,0,1.5-1.5A1.5,1.5,0,0,0,65.78,99.74Z"></path><circle class="cls-58" cx="55.28" cy="99.74" r="1.5"></circle><circle class="cls-59" cx="333.12" cy="66.37" r="1.5"></circle><circle class="cls-60" cx="345.12" cy="66.37" r="1.5"></circle><circle class="cls-61" cx="339.12" cy="66.37" r="1.5"></circle><circle class="cls-62" cx="48.74" cy="63.48" r="1.5"></circle><circle class="cls-63" cx="42.74" cy="63.48" r="1.5"></circle><path class="cls-64" d="M265.74,343.19a1.5,1.5,0,1,0,0,3,1.5,1.5,0,1,0,0-3Z"></path><circle class="cls-65" cx="265.74" cy="332.7" r="1.5"></circle><circle class="cls-66" cx="265.74" cy="338.7" r="1.5"></circle><circle class="cls-67" cx="320" cy="144.77" r="1.5"></circle><circle class="cls-68" cx="320" cy="156.77" r="1.5"></circle><circle class="cls-69" cx="320" cy="150.77" r="1.5"></circle><circle class="cls-70" cx="237.17" cy="251.57" r="1.5"></circle><circle class="cls-71" cx="237.17" cy="239.57" r="1.5"></circle><circle class="cls-72" cx="237.17" cy="233.57" r="1.5"></circle><circle class="cls-73" cx="237.17" cy="257.57" r="1.5"></circle><circle class="cls-74" cx="237.17" cy="245.57" r="1.5"></circle><circle class="cls-75" cx="83.11" cy="75.59" r="1.5"></circle><circle class="cls-76" cx="71.11" cy="75.59" r="1.5"></circle><circle class="cls-77" cx="77.11" cy="75.59" r="1.5"></circle><circle class="cls-78" cx="89.11" cy="75.59" r="1.5"></circle><circle class="cls-79" cx="65.11" cy="75.59" r="1.5"></circle></g></g></svg> 