<?xml version="1.0" encoding="UTF-8"?>
<!-- Generator: Adobe Illustrator 17.1.0, SVG Export Plug-In . SVG Version: 6.00 Build 0)  -->
<!DOCTYPE svg PUBLIC "-//W3C//DTD SVG 1.1//EN" "http://www.w3.org/Graphics/SVG/1.1/DTD/svg11.dtd">
<svg version="1.1" id="Layer_1" xmlns="http://www.w3.org/2000/svg" xmlns:xlink="http://www.w3.org/1999/xlink" x="0px" y="0px" viewBox="0 0 71.4 70.8" enable-background="new 0 0 71.4 70.8" xml:space="preserve">
<g>
	<path fill="#605CA8" stroke="#605CA8" stroke-width="2%" d="M54.8,55.3l-8.1-8l1-1l8.1,8L54.8,55.3z M23.9,24.7l-8.4-8.3l1-1l8.4,8.3L23.9,24.7z"/>
	<path fill="#605CA8" stroke="#605CA8" stroke-width="2%" d="M16.5,55.3l-1-1l8.1-8l1,1L16.5,55.3z M47.6,24.8l-1-1l8.3-8.1l1,1L47.6,24.8z"/>
	<path fill="#A3A1C3" stroke="#A3A1C3" stroke-width="2%" d="M35.7,52.5c-4.5,0-8.7-1.7-11.9-4.9c-6.6-6.6-6.6-17.2,0-23.8c3.2-3.2,7.4-4.9,11.9-4.9s8.7,1.7,11.9,4.9   c6.6,6.6,6.6,17.2,0,23.8C44.4,50.7,40.1,52.5,35.7,52.5z M35.7,20.3c-4.1,0-8,1.6-10.9,4.5c-6,6-6,15.7,0,21.8   c2.9,2.9,6.8,4.5,10.9,4.5s8-1.6,10.9-4.5c6-6,6-15.7,0-21.8C43.7,21.8,39.8,20.3,35.7,20.3z"/>
	<path fill="#A3A1C3" stroke="#A3A1C3" stroke-width="2%" d="M61.7,19.5c-5.3,0-9.7-4.3-9.7-9.7s4.3-9.7,9.7-9.7s9.7,4.3,9.7,9.7S67,19.5,61.7,19.5z M61.7,1.5   c-4.5,0-8.2,3.7-8.2,8.2c0,4.5,3.7,8.2,8.2,8.2s8.2-3.7,8.2-8.2C69.9,5.3,66.2,1.5,61.7,1.5z"/>
	<path fill="#A3A1C3" stroke="#A3A1C3" stroke-width="2%" d="M61.7,70.8c-5.3,0-9.7-4.3-9.7-9.7s4.3-9.7,9.7-9.7s9.7,4.3,9.7,9.7S67,70.8,61.7,70.8z M61.7,52.9   c-4.5,0-8.2,3.7-8.2,8.2s3.7,8.2,8.2,8.2s8.2-3.7,8.2-8.2S66.2,52.9,61.7,52.9z"/>
	<path fill="#A3A1C3" stroke="#A3A1C3" stroke-width="2%" d="M9.7,70.8c-5.3,0-9.7-4.3-9.7-9.7s4.3-9.7,9.7-9.7s9.7,4.3,9.7,9.7S15.1,70.8,9.7,70.8z M9.7,52.9   c-4.5,0-8.2,3.7-8.2,8.2s3.7,8.2,8.2,8.2s8.2-3.7,8.2-8.2S14.3,52.9,9.7,52.9z"/>
	<path fill="#A3A1C3" stroke="#A3A1C3" stroke-width="2%" d="M9.7,19.3C4.3,19.3,0,15,0,9.7S4.3,0,9.7,0s9.7,4.3,9.7,9.7S15.1,19.3,9.7,19.3z M9.7,1.4   C5.1,1.4,1.4,5,1.4,9.6s3.7,8.2,8.2,8.2s8.2-3.7,8.2-8.2S14.3,1.4,9.7,1.4z"/>
</g>
</svg>