<?xml version="1.0" encoding="utf-8"?>
<!-- Generator: Adobe Illustrator 17.1.0, SVG Export Plug-In . SVG Version: 6.00 Build 0)  -->
<!DOCTYPE svg PUBLIC "-//W3C//DTD SVG 1.1//EN" "http://www.w3.org/Graphics/SVG/1.1/DTD/svg11.dtd">
<svg version="1.1" xmlns="http://www.w3.org/2000/svg" xmlns:xlink="http://www.w3.org/1999/xlink" x="0px" y="0px"
	 viewBox="0 0 48 48" enable-background="new 0 0 48 48" xml:space="preserve">
<g id="Layer_2">
</g>
<g id="Layer_1" display="none">
	<g display="inline">
		<path fill-rule="evenodd" clip-rule="evenodd" fill="#7EC8A4" d="M41.7,1C44.7,1,47,3.3,47,6.3c0,2.9-2.4,5.3-5.3,5.3
			s-5.3-2.4-5.3-5.3C36.4,3.3,38.8,1,41.7,1z"/>
		<path fill-rule="evenodd" clip-rule="evenodd" fill="#7EC8A4" d="M24,1c2.9,0,5.3,2.4,5.3,5.3c0,2.9-2.4,5.3-5.3,5.3
			c-2.9,0-5.3-2.4-5.3-5.3C18.7,3.3,21.1,1,24,1z"/>
		<path fill-rule="evenodd" clip-rule="evenodd" fill="#7EC8A4" d="M6.3,1c2.9,0,5.3,2.4,5.3,5.3c0,2.9-2.4,5.3-5.3,5.3S1,9.2,1,6.3
			C1,3.3,3.3,1,6.3,1z"/>
		<path fill-rule="evenodd" clip-rule="evenodd" fill="#7EC8A4" d="M41.7,18.7c2.9,0,5.3,2.4,5.3,5.3c0,2.9-2.4,5.3-5.3,5.3
			s-5.3-2.4-5.3-5.3C36.4,21,38.8,18.7,41.7,18.7z"/>
		<path fill-rule="evenodd" clip-rule="evenodd" fill="#7EC8A4" d="M24,18.7c2.9,0,5.3,2.4,5.3,5.3c0,2.9-2.4,5.3-5.3,5.3
			c-2.9,0-5.3-2.4-5.3-5.3C18.7,21,21.1,18.7,24,18.7z"/>
		<path fill-rule="evenodd" clip-rule="evenodd" fill="#7EC8A4" d="M6.3,18.7c2.9,0,5.3,2.4,5.3,5.3c0,2.9-2.4,5.3-5.3,5.3
			S1,26.9,1,24C1,21,3.3,18.7,6.3,18.7z"/>
		<path fill-rule="evenodd" clip-rule="evenodd" fill="#7EC8A4" d="M41.7,36.4c2.9,0,5.3,2.4,5.3,5.3S44.7,47,41.7,47
			s-5.3-2.4-5.3-5.3S38.8,36.4,41.7,36.4z"/>
		<path fill-rule="evenodd" clip-rule="evenodd" fill="#7EC8A4" d="M24,36.4c2.9,0,5.3,2.4,5.3,5.3S26.9,47,24,47
			c-2.9,0-5.3-2.4-5.3-5.3S21.1,36.4,24,36.4z"/>
		<path fill-rule="evenodd" clip-rule="evenodd" fill="#7EC8A4" d="M6.3,36.4c2.9,0,5.3,2.4,5.3,5.3S9.2,47,6.3,47S1,44.6,1,41.7
			S3.3,36.4,6.3,36.4z"/>
	</g>
</g>
<g id="Layer_3" display="none">
	<g display="inline">
		<path fill-rule="evenodd" clip-rule="evenodd" fill="none" stroke="#39C5F3" stroke-width="2" stroke-miterlimit="10" d="M12.2,38
			c0-6.4,5.3-11.5,11.8-11.5S35.8,31.6,35.8,38"/>
		<path fill-rule="evenodd" clip-rule="evenodd" fill="none" stroke="#AFAFBE" stroke-width="2" stroke-miterlimit="10" d="M6.3,1.2
			h35.4c1.6,0,2.9,1.3,2.9,2.9v39.8c0,1.6-1.3,2.9-2.9,2.9H6.3c-1.6,0-2.9-1.3-2.9-2.9V4.1C3.4,2.5,4.7,1.2,6.3,1.2z"/>
		<path fill-rule="evenodd" clip-rule="evenodd" fill="none" stroke="#F9C0B3" stroke-width="2" stroke-miterlimit="10" d="M24,10
			c4.1,0,7.4,3.3,7.4,7.4c0,4.1-3.3,7.4-7.4,7.4c-4.1,0-7.4-3.3-7.4-7.4C16.6,13.3,19.9,10,24,10z"/>
	</g>
	<g display="inline">
		<path fill-rule="evenodd" clip-rule="evenodd" fill="none" stroke="#39C5F3" stroke-width="2" stroke-miterlimit="10" d="
			M137.3,84.6c0-7.4,6.1-13.4,13.7-13.4s13.7,6,13.7,13.4"/>
		<path fill-rule="evenodd" clip-rule="evenodd" fill="none" stroke="#AFAFBE" stroke-width="2" stroke-miterlimit="10" d="
			M130.4,41.7h41.1c1.9,0,3.4,1.5,3.4,3.4v46.3c0,1.9-1.5,3.4-3.4,3.4h-41.1c-1.9,0-3.4-1.5-3.4-3.4V45.1
			C127,43.2,128.6,41.7,130.4,41.7z"/>
		<path fill-rule="evenodd" clip-rule="evenodd" fill="none" stroke="#F9C0B3" stroke-width="2" stroke-miterlimit="10" d="M151,52
			c4.7,0,8.6,3.8,8.6,8.6c0,4.7-3.8,8.6-8.6,8.6c-4.7,0-8.6-3.8-8.6-8.6C142.4,55.8,146.3,52,151,52z"/>
	</g>
</g>
<g id="Layer_4" display="none">
	<g display="inline">
		<path fill-rule="evenodd" clip-rule="evenodd" fill="none" stroke="#CCCBCB" stroke-width="2" stroke-miterlimit="10" d="M46.3,47
			H1.7V0.4"/>
		<path fill-rule="evenodd" clip-rule="evenodd" fill="none" stroke="#E04747" stroke-width="2" stroke-miterlimit="10" d="
			M44.4,35.3v-35"/>
		<path fill-rule="evenodd" clip-rule="evenodd" fill="none" stroke="#E04747" stroke-width="2" stroke-miterlimit="10" d="
			M30.8,35.3V12"/>
		<path fill-rule="evenodd" clip-rule="evenodd" fill="none" stroke="#E04747" stroke-width="2" stroke-miterlimit="10" d="
			M17.2,35.3V21.7"/>
	</g>
</g>
<g id="Layer_5" display="none">
	<g display="inline">
		<g>
			<path fill-rule="evenodd" clip-rule="evenodd" fill="none" stroke="#F48A80" stroke-width="2" stroke-miterlimit="10" d="
				M1.2,21.3h38.3"/>
			<path fill-rule="evenodd" clip-rule="evenodd" fill="none" stroke="#F7A8A4" stroke-width="2" stroke-miterlimit="10" d="
				M8.4,11.4V6.8c0-1.6,1.3-2.8,2.8-2.8h32.7c1.6,0,2.8,1.3,2.8,2.8v27c0,1.6-1.3,2.8-2.8,2.8h-4.2"/>
			<path fill-rule="evenodd" clip-rule="evenodd" fill="none" stroke="#F48A80" stroke-width="2" stroke-miterlimit="10" d="
				M4.2,11.4h32.7c1.6,0,2.8,1.3,2.8,2.8v27c0,1.6-1.3,2.8-2.8,2.8H4.2c-1.6,0-2.8-1.3-2.8-2.8v-27C1.3,12.7,2.6,11.4,4.2,11.4z"/>
		</g>
		
			<line fill-rule="evenodd" clip-rule="evenodd" fill="none" stroke="#F7A8A4" stroke-width="2" stroke-miterlimit="10" x1="5.1" y1="16.7" x2="7.8" y2="16.7"/>
		
			<line fill-rule="evenodd" clip-rule="evenodd" fill="none" stroke="#F7A8A4" stroke-width="2" stroke-miterlimit="10" x1="9.4" y1="16.7" x2="12.1" y2="16.7"/>
		
			<line fill-rule="evenodd" clip-rule="evenodd" fill="none" stroke="#F7A8A4" stroke-width="2" stroke-miterlimit="10" x1="13.7" y1="16.7" x2="16.3" y2="16.7"/>
	</g>
</g>
<g id="Layer_6" display="none">
	
		<path display="inline" fill-rule="evenodd" clip-rule="evenodd" fill="none" stroke="#7CD0E6" stroke-width="2" stroke-miterlimit="10" d="
		M38.4,21.3c0.1-0.5,0.1-0.9,0.1-1.4c0-6.1-4.9-11.1-11-11.1c-4.9,0-9.1,3.2-10.5,7.7c-1.2-0.5-2.6-0.7-4-0.7
		C6.5,15.7,1.2,21,1.2,27.5C1.2,34,6.5,39.2,13,39.2h24.8c5,0,9-4,9-9C46.8,25.5,43.1,21.6,38.4,21.3z"/>
</g>
<g id="Layer_7" display="none">
	<g display="inline">
		<polyline fill="none" stroke="#805682" stroke-width="2" stroke-miterlimit="10" points="17.9,37.2 14.1,43.3 33.8,43.3 30,37.2 
					"/>
		<path fill-rule="evenodd" clip-rule="evenodd" fill="none" stroke="#BA8BBE" stroke-width="2" stroke-miterlimit="10" d="
			M1.6,28.5h44.9"/>
		<path fill-rule="evenodd" clip-rule="evenodd" fill="none" stroke="#BA8BBE" stroke-width="2" stroke-miterlimit="10" d="M4.3,4.7
			h39.3c1.5,0,2.8,1.3,2.8,2.8v26.7c0,1.5-1.3,2.8-2.8,2.8H4.3c-1.5,0-2.8-1.3-2.8-2.8V7.5C1.5,5.9,2.8,4.7,4.3,4.7z"/>
	</g>
</g>
<g id="Layer_8" display="none">
	<g display="inline">
		<path fill-rule="evenodd" clip-rule="evenodd" fill="none" stroke="#E93B3A" stroke-width="3" stroke-miterlimit="10" d="
			M40.7,18.3v10.2"/>
		<path fill-rule="evenodd" clip-rule="evenodd" fill="none" stroke="#EF7273" stroke-miterlimit="10" d="M8.7,18.3v10.2"/>
		<path fill-rule="evenodd" clip-rule="evenodd" fill="none" stroke="#E93B3B" stroke-width="3" stroke-miterlimit="10" d="
			M7.3,18.3v10.2"/>
		<path fill-rule="evenodd" clip-rule="evenodd" fill="none" stroke="#EF7273" stroke-width="2" stroke-miterlimit="10" d="
			M29.7,40.6c1.5,0,2.7,1.2,2.7,2.7c0,1.5-1.2,2.7-2.7,2.7c-1.5,0-2.7-1.2-2.7-2.7C26.9,41.8,28.2,40.6,29.7,40.6z"/>
		<path fill-rule="evenodd" clip-rule="evenodd" fill="none" stroke="#EF7273" stroke-width="2" stroke-miterlimit="10" d="
			M8.7,29.5V17.3C8.7,8.8,15.5,1.9,24,1.9c8.5,0,15.3,6.9,15.3,15.3v12.3c0,5.5-2.9,10.3-7.2,13"/>
	</g>
</g>
<g id="Layer_9" display="none">
	<g display="inline">
		<path fill-rule="evenodd" clip-rule="evenodd" fill="none" stroke="#CCCBCB" stroke-width="2" stroke-miterlimit="10" d="
			M12.1,22.3v-9.7c0-6.3,4.6-11.4,10.4-11.4h3c5.7,0,10.4,5.1,10.4,11.4v9.7"/>
		<path fill-rule="evenodd" clip-rule="evenodd" fill="none" stroke="#A6B1D5" stroke-width="2" stroke-miterlimit="10" d="M24,32.9
			V41"/>
		<path fill-rule="evenodd" clip-rule="evenodd" fill="none" stroke="#A6B1D5" stroke-width="2" stroke-miterlimit="10" d="
			M8.9,22.3h30.3v24.5H8.9V22.3z"/>
	</g>
</g>
<g id="Layer_10" display="none">
	<g display="inline">
		<path fill-rule="evenodd" clip-rule="evenodd" fill="none" stroke="#63C6C5" stroke-width="2" stroke-miterlimit="10" d="M20.9,40
			h6.1"/>
		<path fill-rule="evenodd" clip-rule="evenodd" fill="none" stroke="#63C6C5" stroke-width="2" stroke-miterlimit="10" d="
			M35.4,46.3H12.6c-1.3,0-2.3-1-2.3-2.3V4c0-1.3,1-2.3,2.3-2.3h22.9c1.3,0,2.3,1,2.3,2.3V44C37.7,45.3,36.7,46.3,35.4,46.3z"/>
	</g>
</g>
<g id="Layer_11" display="none">
	<g display="inline">
		<path fill-rule="evenodd" clip-rule="evenodd" fill="none" stroke="#605CA8" stroke-width="2" stroke-miterlimit="10" d="
			M16.3,16.8l-5.2-5.2 M35.7,36l-5.1-5"/>
		<path fill-rule="evenodd" clip-rule="evenodd" fill="none" stroke="#605CA8" stroke-width="2" stroke-miterlimit="10" d="
			M30.6,16.9l5.2-5.1 M11.1,36l5.1-5"/>
		<path fill-rule="evenodd" clip-rule="evenodd" fill="none" stroke="#A3A1C3" stroke-width="2" stroke-miterlimit="10" d="
			M16.3,16.9c3.9-3.9,10.3-3.9,14.3,0c3.9,3.9,3.9,10.3,0,14.3c-3.9,3.9-10.3,3.9-14.3,0C12.3,27.2,12.3,20.8,16.3,16.9z"/>
		
			<circle fill-rule="evenodd" clip-rule="evenodd" fill="none" stroke="#A3A1C3" stroke-width="2" stroke-miterlimit="10" cx="39.7" cy="7.8" r="5.6"/>
		
			<circle fill-rule="evenodd" clip-rule="evenodd" fill="none" stroke="#A3A1C3" stroke-width="2" stroke-miterlimit="10" cx="39.7" cy="40" r="5.6"/>
		
			<circle fill-rule="evenodd" clip-rule="evenodd" fill="none" stroke="#A3A1C3" stroke-width="2" stroke-miterlimit="10" cx="7.1" cy="40" r="5.6"/>
		
			<circle fill-rule="evenodd" clip-rule="evenodd" fill="none" stroke="#A3A1C3" stroke-width="2" stroke-miterlimit="10" cx="7.1" cy="7.7" r="5.6"/>
	</g>
</g>
<g id="Layer_12">
	<g>
		<rect x="12.2" y="23" fill="#F09E1F" width="6.5" height="2"/>
		<path fill="#FFC129" d="M11,35.2H2.6c-1.2,0-2.1-1-2.1-2.1V15c0-1.2,1-2.1,2.1-2.1H11c1.2,0,2.1,1,2.1,2.1V33
			C13.2,34.2,12.2,35.2,11,35.2z M2.6,14.8c-0.1,0-0.1,0.1-0.1,0.1V33c0,0.1,0.1,0.1,0.1,0.1H11c0.1,0,0.1-0.1,0.1-0.1V15
			c0-0.1-0.1-0.1-0.1-0.1H2.6z"/>
		<rect x="29.4" y="23" fill="#F09E1F" width="6.5" height="2"/>
		<path fill="#FFC129" d="M28.2,35.2h-8.5c-1.2,0-2.1-1-2.1-2.1V15c0-1.2,1-2.1,2.1-2.1h8.5c1.2,0,2.1,1,2.1,2.1V33
			C30.4,34.2,29.4,35.2,28.2,35.2z M19.8,14.8c-0.1,0-0.1,0.1-0.1,0.1V33c0,0.1,0.1,0.1,0.1,0.1h8.5c0.1,0,0.1-0.1,0.1-0.1V15
			c0-0.1-0.1-0.1-0.1-0.1H19.8z"/>
		<path fill="#FFC129" d="M45.4,35.2H37c-1.2,0-2.1-1-2.1-2.1V15c0-1.2,1-2.1,2.1-2.1h8.5c1.2,0,2.1,1,2.1,2.1V33
			C47.6,34.2,46.6,35.2,45.4,35.2z M37,14.8c-0.1,0-0.1,0.1-0.1,0.1V33c0,0.1,0.1,0.1,0.1,0.1h8.5c0.1,0,0.1-0.1,0.1-0.1V15
			c0-0.1-0.1-0.1-0.1-0.1H37z"/>
	</g>
</g>
<g id="Layer_13" display="none">
	<g display="inline">
		<polygon fill="#067842" points="25,45.6 25,38.2 23,38.2 23,45.6 12.9,45.6 12.9,47.6 35.1,47.6 35.1,45.6 		"/>
		<rect x="22" y="6" fill="#069D5E" width="4" height="2"/>
		<rect x="22" y="17.9" fill="#069D5E" width="4" height="2"/>
		<rect x="22" y="30.9" fill="#069D5E" width="4" height="2"/>
		<path fill="#069D5E" d="M38.6,0.4H9.4C7.5,0.4,6,2,6,3.8v32.4c0,1.9,1.5,3.4,3.4,3.4h29.3c1.9,0,3.4-1.5,3.4-3.4V3.8
			C42,2,40.5,0.4,38.6,0.4z M9.4,2.4h29.3c0.8,0,1.4,0.6,1.4,1.4v8.5H8V3.8C8,3.1,8.6,2.4,9.4,2.4z M40,14.3v9.9H8v-9.9H40z
			 M38.6,37.6H9.4C8.6,37.6,8,37,8,36.3V26.2h32v10.1C40,37,39.4,37.6,38.6,37.6z"/>
	</g>
</g>
<g id="Layer_14" display="none">
	<g display="inline">
		<polygon fill="#805682" points="24.9,36.6 8.3,36.6 11.7,31 13.4,32.1 11.9,34.6 21.3,34.6 19.8,32.1 21.5,31 		"/>
		<path fill="#BA8BBE" d="M29.6,9H3.6C2,9,0.7,10.3,0.7,11.9v17.7c0,1.6,1.3,2.9,2.9,2.9h26.1c1.6,0,2.9-1.3,2.9-2.9V11.9
			C32.5,10.3,31.2,9,29.6,9z M3.6,11h26.1c0.5,0,0.9,0.4,0.9,0.9v13H2.7v-13C2.7,11.4,3.1,11,3.6,11z M29.6,30.4H3.6
			c-0.5,0-0.9-0.4-0.9-0.9v-2.7h27.8v2.7C30.5,30,30.1,30.4,29.6,30.4z"/>
	</g>
	<g display="inline">
		<rect x="40.1" y="34.6" fill="#63C6C5" width="2.3" height="2"/>
		<path fill="#63C6C5" d="M45.4,39h-8.5c-1,0-1.9-0.8-1.9-1.9V22.3c0-1,0.8-1.9,1.9-1.9h8.5c1,0,1.9,0.8,1.9,1.9v14.9
			C47.3,38.2,46.5,39,45.4,39z M37.1,37h8.2V22.4h-8.2V37z"/>
	</g>
</g>
</svg>
