<?xml version="1.0" encoding="utf-8"?>
<!-- Generator: Adobe Illustrator 21.0.0, SVG Export Plug-In . SVG Version: 6.00 Build 0)  -->
<svg version="1.1" id="Layer_1" xmlns="http://www.w3.org/2000/svg" xmlns:xlink="http://www.w3.org/1999/xlink" x="0px" y="0px"
	 viewBox="0 0 79.2 80.9" style="enable-background:new 0 0 79.2 80.9;" xml:space="preserve">
<style type="text/css">
	.st0{fill:none;stroke:#000000;stroke-width:2;stroke-linecap:round;stroke-linejoin:round;stroke-miterlimit:10;}
</style>
<g>
	<path class="st0" d="M1.9,60.6c0,0-2.6-11.2,1.3-14.9c3.9-3.7,10-2.5,16.4-7.9"/>
	<path class="st0" d="M23.8,38.9c0,0-0.6,5,4.5,5s4.8-5.3,4.8-5.3"/>
	<path class="st0" d="M54.9,60.6c0,0,2.6-11.2-1.3-14.9c-3.9-3.7-10-2.5-16.4-7.9"/>
	<polyline class="st0" points="25.6,44 23.8,75.6 28.6,79.6 33.5,75.2 31.1,44 	"/>
	<path class="st0" d="M41.6,17.8c0,9.3-3.2,16.8-12.9,16.8s-12.9-7.5-12.9-16.8S19.5,1,28.6,1S41.6,8.5,41.6,17.8z"/>
	<path class="st0" d="M54.5,36c-3.2,0.6-9.6-0.5-10.7-3.4c0,0,5.5-0.3,4.5-10S55,6.1,62.3,11.3c2.9-0.2,5.9,0.9,6.7,5.3
		c0,0,0.2,6.9-0.2,10.3s2.9,5.2,3.9,5.7"/>
	<path class="st0" d="M72.6,32.6c0,0-3,4.2-9.1,3.7"/>
	<path class="st0" d="M63.5,36.2c0,0-0.6,5.5,10.2,9c5.4,2.6,3.5,9,3.5,9"/>
</g>
</svg>
