<?xml version="1.0" encoding="utf-8"?>
<!-- Generator: Adobe Illustrator 22.1.0, SVG Export Plug-In . SVG Version: 6.00 Build 0)  -->
<svg version="1.1" id="Слой_1" xmlns="http://www.w3.org/2000/svg" xmlns:xlink="http://www.w3.org/1999/xlink" x="0px" y="0px"
	 viewBox="0 0 623.5 353" style="enable-background:new 0 0 623.5 353;" xml:space="preserve">
<style type="text/css">
	.st0{fill:#EBF6FA;}
	.st1{fill:#677F93;}
	.st2{fill:#FFFFFF;}
	.st3{enable-background:new    ;}
	.st4{fill:#FF5555;}
	.st5{fill:#006EC9;}
</style>
<title>web</title>
<path class="st0" d="M312,79.3c53.7,0,97.2,43.5,97.1,97.2s-43.5,97.2-97.2,97.1s-97.2-43.5-97.1-97.2c0-48.8,36.3-90.1,84.7-96.3
	C303.7,79.6,307.8,79.3,312,79.3L312,79.3 M312,64.3c-4.8,0-9.6,0.3-14.4,0.9c-61.3,7.9-104.5,64-96.6,125.3
	c7.9,61.3,64,104.5,125.3,96.6s104.5-64,96.6-125.3C415.7,106.1,368.2,64.3,312,64.3z"/>
<path class="st1" d="M311.7,313.2c-67.8,0-126.8-50.5-135.7-119.5c-9.6-74.9,43.5-143.6,118.4-153.2c75-9.6,143.6,43.4,153.2,118.4
	c9.6,74.9-43.5,143.6-118.4,153.2C323.4,312.8,317.6,313.2,311.7,313.2z M312.1,41.4c-5.8,0-11.6,0.4-17.4,1.1
	C220.9,52,168.5,119.7,178,193.4s77.2,126.1,151,116.6s126.1-77.2,116.6-150.9C437,91.9,379.9,41.5,312.1,41.4z"/>
<polygon class="st1" points="291.7,52.6 290.1,51.4 298,41.1 287.8,33.2 289,31.6 300.8,40.8 "/>
<polygon class="st1" points="334.6,320.9 322.8,311.7 331.9,299.8 333.5,301 325.6,311.3 335.8,319.3 "/>
<polygon class="st1" points="192.9,132.6 187.9,120.6 175.9,125.5 175.1,123.7 189,118 194.7,131.9 "/>
<polygon class="st1" points="434.6,234.5 428.9,220.6 430.7,219.8 435.7,231.9 447.7,226.9 448.5,228.8 "/>
<polygon class="st1" points="199.9,268.6 197.9,268.3 200,253.4 214.8,255.5 214.6,257.4 201.7,255.7 "/>
<polygon class="st1" points="423.6,99 408.8,97 409,95 421.9,96.8 423.7,83.9 425.6,84.2 "/>
<path class="st2" d="M283.6,64.3l35.4-4.8c0.6-11.7,1.3-24.2,1.9-34.9L286,28.3l15.9,12.3L283.6,64.3z"/>
<path class="st2" d="M339.9,288.1l-35.4,4.8c-0.6,11.7-1.3,24.2-1.9,34.9l34.9-3.7l-15.9-12.3L339.9,288.1z"/>
<path class="st2" d="M200.8,144.6l13.6-33.1c-9.8-6.4-20.3-13.2-29.3-19.1l-14.3,32.1l18.6-7.6L200.8,144.6z"/>
<path class="st2" d="M422.8,207.8l-13.6,33.1c9.8,6.4,20.3,13.2,29.3,19.1l14.3-32.1l-18.6,7.6L422.8,207.8z"/>
<path class="st2" d="M228.9,256.5l-21.8-28.3l-31.2,15.8l20.6,28.4l2.7-19.9L228.9,256.5z"/>
<path class="st2" d="M394.6,95.9l21.8,28.3c10.4-5.3,21.6-11,31.2-15.8L427,79.9l-2.7,19.9L394.6,95.9z"/>
<g class="st3">
	<path class="st4" d="M263.3,155.5c-0.9-0.3-1.7-0.6-2.3-1.1l1-2.1c1.3,0.9,2.7,1.3,4.4,1.3c0.8,0,1.5-0.1,1.9-0.4s0.7-0.6,0.7-1.1
		c0-0.4-0.2-0.8-0.6-1s-1.1-0.5-2.2-0.7c-1.2-0.2-2.1-0.5-2.8-0.9c-0.7-0.3-1.2-0.8-1.5-1.3c-0.3-0.5-0.5-1.1-0.5-1.9
		c0-0.8,0.2-1.5,0.7-2.2c0.4-0.6,1.1-1.1,1.9-1.5s1.7-0.5,2.8-0.5c1,0,1.9,0.1,2.7,0.4c0.9,0.3,1.6,0.7,2.1,1.1l-1,2.1
		c-1.2-0.9-2.5-1.3-3.9-1.3c-0.8,0-1.4,0.1-1.8,0.4c-0.4,0.3-0.7,0.7-0.7,1.2c0,0.3,0.1,0.6,0.3,0.8s0.5,0.4,0.9,0.5
		c0.4,0.2,1,0.3,1.7,0.5c1.7,0.4,3,0.9,3.7,1.5c0.8,0.6,1.1,1.4,1.1,2.5c0,1.3-0.5,2.3-1.5,3c-1,0.7-2.3,1.1-4.1,1.1
		C265.2,155.9,264.3,155.8,263.3,155.5z"/>
	<path class="st4" d="M276.6,155c-1-0.6-1.7-1.4-2.3-2.4c-0.5-1-0.8-2.2-0.8-3.6s0.3-2.6,0.8-3.6c0.5-1,1.3-1.8,2.3-2.4
		c1-0.6,2.1-0.8,3.5-0.8s2.5,0.3,3.5,0.8c1,0.6,1.7,1.4,2.3,2.4c0.5,1,0.8,2.2,0.8,3.6s-0.3,2.6-0.8,3.6c-0.5,1-1.3,1.8-2.3,2.4
		c-1,0.6-2.1,0.8-3.5,0.8S277.6,155.6,276.6,155z M282.7,152.4c0.6-0.8,1-1.9,1-3.4s-0.3-2.6-1-3.4s-1.5-1.2-2.6-1.2s-2,0.4-2.6,1.2
		s-0.9,1.9-0.9,3.4s0.3,2.6,0.9,3.4s1.5,1.2,2.6,1.2S282.1,153.2,282.7,152.4z"/>
	<path class="st4" d="M288.9,155.7v-13.4h9v2.3h-6.1v3.1h5.7v2.3h-5.7v5.6H288.9z"/>
	<path class="st4" d="M303.2,155.7v-11H299v-2.4h11.4v2.4h-4.2v11H303.2z"/>
	<path class="st4" d="M329,142.3h2.8l-4.8,13.4h-2.4l-3.1-8.9l-3.1,8.9h-2.4l-4.8-13.4h3l3.1,9.3l3.2-9.3h2.1l3.1,9.3L329,142.3z"/>
	<path class="st4" d="M342.4,155.7l-1.3-3h-6.2l-1.3,3h-3l6.2-13.4h2.4l6.2,13.4H342.4z M335.8,150.5h4.3l-2.1-5L335.8,150.5z"/>
	<path class="st4" d="M358.1,155.7h-3.2l-2.3-4.3c-0.2-0.3-0.4-0.6-0.7-0.7c-0.3-0.1-0.6-0.2-1-0.2h-1.5v5.2h-2.9v-13.4h6.2
		c1.6,0,2.8,0.3,3.6,1c0.8,0.7,1.2,1.7,1.2,3c0,1-0.3,1.9-0.8,2.5c-0.6,0.7-1.4,1.1-2.4,1.3c0.7,0.2,1.3,0.7,1.8,1.5L358.1,155.7z
		 M354,147.8c0.4-0.3,0.6-0.8,0.6-1.4c0-0.6-0.2-1.1-0.6-1.4c-0.4-0.3-1-0.4-1.8-0.4h-2.8v3.7h2.8C353,148.3,353.6,148.1,354,147.8z
		"/>
	<path class="st4" d="M359.8,155.7v-13.4h9.2v2.3h-6.3v3.1h6v2.3h-6v3.4h6.3v2.3H359.8z"/>
</g>
<g class="st3">
	<path class="st4" d="M243.4,167.3h5.2c1.5,0,2.7,0.3,3.8,0.8c1.1,0.5,1.9,1.3,2.4,2.3c0.6,1,0.8,2.2,0.8,3.6s-0.3,2.6-0.8,3.6
		c-0.6,1-1.4,1.8-2.4,2.3s-2.3,0.8-3.8,0.8h-5.2V167.3z M248.4,178.3c2.8,0,4.3-1.4,4.3-4.3c0-2.9-1.4-4.3-4.3-4.3h-2v8.6H248.4z"/>
	<path class="st4" d="M257.9,180.7v-13.4h9.2v2.3h-6.3v3.1h6v2.3h-6v3.4h6.3v2.3H257.9z"/>
	<path class="st4" d="M279.1,167.3h3l-6,13.4h-2.4l-6-13.4h3.1l4.2,9.7L279.1,167.3z"/>
	<path class="st4" d="M283.1,180.7v-13.4h9.2v2.3H286v3.1h6v2.3h-6v3.4h6.3v2.3H283.1z"/>
	<path class="st4" d="M294.4,180.7v-13.4h3v11h6v2.4H294.4z"/>
	<path class="st4" d="M307,180c-1-0.6-1.7-1.4-2.3-2.4c-0.5-1-0.8-2.2-0.8-3.6s0.3-2.6,0.8-3.6c0.5-1,1.3-1.8,2.3-2.4
		c1-0.6,2.1-0.8,3.5-0.8s2.5,0.3,3.5,0.8c1,0.6,1.7,1.4,2.3,2.4c0.5,1,0.8,2.2,0.8,3.6s-0.3,2.6-0.8,3.6c-0.5,1-1.3,1.8-2.3,2.4
		c-1,0.6-2.1,0.8-3.5,0.8S308,180.6,307,180z M313.1,177.4c0.6-0.8,1-1.9,1-3.4s-0.3-2.6-1-3.4c-0.6-0.8-1.5-1.2-2.6-1.2
		s-2,0.4-2.6,1.2s-0.9,1.9-0.9,3.4s0.3,2.6,0.9,3.4c0.6,0.8,1.5,1.2,2.6,1.2S312.4,178.2,313.1,177.4z"/>
	<path class="st4" d="M319.2,167.3h6.2c1.5,0,2.6,0.4,3.4,1.1s1.2,1.8,1.2,3.1s-0.4,2.3-1.2,3.1s-1.9,1.1-3.4,1.1h-3.2v5h-3V167.3z
		 M325,173.4c1.5,0,2.2-0.6,2.2-1.9c0-0.7-0.2-1.1-0.6-1.5c-0.4-0.3-0.9-0.5-1.7-0.5h-2.8v3.9H325z"/>
	<path class="st4" d="M342.9,167.3h2.3v13.4h-2.6v-7.9l-3.1,5.7h-1.9l-3.1-5.7v7.9H332v-13.4h2.3l4.3,8.2L342.9,167.3z"/>
	<path class="st4" d="M347.9,180.7v-13.4h9.2v2.3h-6.3v3.1h6v2.3h-6v3.4h6.3v2.3H347.9z"/>
	<path class="st4" d="M368.1,167.3h2.8v13.4h-2.2l-6.7-8.5v8.5h-2.8v-13.4h2.2l6.7,8.5V167.3z"/>
	<path class="st4" d="M376.6,180.7v-11h-4.2v-2.4h11.4v2.4h-4.2v11H376.6z"/>
</g>
<g class="st3">
	<path class="st4" d="M261.3,205.6v-13.4h3v11h6v2.4H261.3z"/>
	<path class="st4" d="M272,205.6v-13.4h3v13.4H272z"/>
	<path class="st4" d="M277.7,205.6v-13.4h9v2.3h-6.1v3.1h5.7v2.3h-5.7v5.6H277.7z"/>
	<path class="st4" d="M288.5,205.6v-13.4h9.2v2.3h-6.3v3.1h6v2.3h-6v3.4h6.3v2.3H288.5z"/>
	<path class="st4" d="M299.6,201.7v-2.2h5.9v2.2H299.6z"/>
	<path class="st4" d="M310.8,204.9c-1-0.6-1.8-1.4-2.3-2.4c-0.5-1-0.8-2.2-0.8-3.6s0.3-2.6,0.8-3.6c0.5-1,1.3-1.8,2.3-2.4
		c1-0.6,2.2-0.8,3.5-0.8c0.9,0,1.7,0.1,2.5,0.4c0.8,0.3,1.5,0.6,2,1.1l-1,2.1c-0.6-0.4-1.2-0.8-1.7-1c-0.6-0.2-1.2-0.3-1.8-0.3
		c-1.2,0-2.1,0.4-2.7,1.1c-0.6,0.8-1,1.9-1,3.3c0,1.5,0.3,2.6,1,3.4c0.6,0.8,1.6,1.1,2.7,1.1c0.6,0,1.2-0.1,1.8-0.3
		c0.6-0.2,1.2-0.5,1.7-1l1,2.1c-0.5,0.5-1.2,0.9-2,1.1c-0.8,0.3-1.7,0.4-2.5,0.4C313,205.8,311.8,205.5,310.8,204.9z"/>
	<path class="st4" d="M332.5,192.2l-5.5,7.3v6.1h-3v-6.1l-5.5-7.3h3.4l3.6,5l3.7-5H332.5z"/>
	<path class="st4" d="M334.8,204.9c-1-0.6-1.8-1.4-2.3-2.4c-0.5-1-0.8-2.2-0.8-3.6s0.3-2.6,0.8-3.6c0.5-1,1.3-1.8,2.3-2.4
		c1-0.6,2.2-0.8,3.5-0.8c0.9,0,1.7,0.1,2.5,0.4c0.8,0.3,1.5,0.6,2,1.1l-1,2.1c-0.6-0.4-1.2-0.8-1.7-1c-0.6-0.2-1.2-0.3-1.8-0.3
		c-1.2,0-2.1,0.4-2.7,1.1c-0.6,0.8-1,1.9-1,3.3c0,1.5,0.3,2.6,1,3.4c0.6,0.8,1.6,1.1,2.7,1.1c0.6,0,1.2-0.1,1.8-0.3
		c0.6-0.2,1.2-0.5,1.7-1l1,2.1c-0.5,0.5-1.2,0.9-2,1.1c-0.8,0.3-1.7,0.4-2.5,0.4C337,205.8,335.8,205.5,334.8,204.9z"/>
	<path class="st4" d="M345,205.6v-13.4h3v11h6v2.4H345z"/>
	<path class="st4" d="M355.7,205.6v-13.4h9.2v2.3h-6.3v3.1h6v2.3h-6v3.4h6.3v2.3H355.7z"/>
</g>
<path class="st5" d="M72.3,0h127.9c1.8,0,3.2,1.4,3.2,3.2v37.3c0,1.8-1.4,3.2-3.2,3.2H72.3c-1.8,0-3.2-1.4-3.2-3.2V3.2
	C69.1,1.4,70.6,0,72.3,0z"/>
<path class="st2" d="M93.2,20.5c0.5,0.3,0.8,0.7,1.1,1.1c0.6,1.1,0.5,2.4,0,3.4c-0.3,0.5-0.7,0.9-1.2,1.1c-0.5,0.3-1.1,0.4-1.7,0.4
	c-1.1,0.1-2.3-0.4-3-1.3c-0.7-1.1-1.1-2.3-1-3.6c0-1,0.1-1.9,0.5-2.8c0.3-0.7,0.8-1.3,1.4-1.8c0.7-0.4,1.4-0.6,2.2-0.6
	c0.6,0,1.2,0.1,1.8,0.3c0.5,0.2,1,0.5,1.5,0.8L94,19.1c-0.7-0.6-1.5-0.9-2.4-1c-0.6,0-1.2,0.3-1.5,0.8c-0.4,0.7-0.6,1.5-0.6,2.3
	c0.2-0.4,0.5-0.7,0.9-0.9c0.4-0.2,0.8-0.3,1.3-0.3C92.2,20,92.7,20.2,93.2,20.5z M92.2,24.5c0.3-0.3,0.4-0.7,0.4-1.1
	c0-0.4-0.1-0.8-0.4-1.1c-0.3-0.3-0.6-0.4-1-0.4c-0.4,0-0.8,0.1-1.1,0.4c-0.3,0.3-0.4,0.7-0.4,1.1c0,0.4,0.1,0.8,0.4,1.1
	c0.3,0.3,0.7,0.5,1.1,0.4C91.6,24.9,91.9,24.7,92.2,24.5z"/>
<path class="st2" d="M95.8,24.2h2.3v2.2h-2.3V24.2z"/>
<path class="st2" d="M111.8,16.6h1.7v9.9h-1.9v-5.9l-2.3,4.2h-1.4l-2.3-4.2v5.8h-1.9v-9.9h1.7l3.2,6L111.8,16.6z"/>
<path class="st2" d="M120.6,20.1c0.5,0.6,0.8,1.4,0.7,2.2v4.1h-2v-1c-0.1,0.3-0.4,0.6-0.7,0.8c-0.3,0.2-0.7,0.3-1.2,0.3
	c-0.4,0-0.9-0.1-1.3-0.3c-0.4-0.2-0.7-0.4-0.9-0.8c-0.2-0.3-0.3-0.7-0.3-1.1c0-0.4,0.1-0.9,0.4-1.2c0.3-0.3,0.8-0.6,1.2-0.6
	c0.8-0.1,1.6-0.2,2.3-0.2h0.4v-0.2c0-0.3-0.1-0.6-0.3-0.9c-0.3-0.2-0.6-0.3-0.9-0.2c-0.4,0-0.8,0.1-1.1,0.2
	c-0.4,0.1-0.8,0.3-1.2,0.5l-0.6-1.4c0.5-0.3,0.9-0.5,1.4-0.6c0.5-0.2,1.1-0.2,1.6-0.2C119.2,19.4,120,19.6,120.6,20.1z M119,24.7
	c0.3-0.3,0.4-0.7,0.4-1.1v-0.2h-0.2c-0.5,0-1.1,0-1.6,0.2c-0.3,0.1-0.5,0.4-0.4,0.7c0,0.2,0.1,0.5,0.3,0.6c0.2,0.2,0.4,0.3,0.7,0.2
	C118.4,25.1,118.7,25,119,24.7z"/>
<path class="st2" d="M122.9,16.3h2.3v2h-2.3V16.3z M122.9,26.5v-6.9h2.1v6.9H122.9z"/>
<path class="st2" d="M132.8,20.1c0.4,0.6,0.7,1.4,0.6,2.2v4.1h-2.1v-4c0-0.4-0.1-0.7-0.3-1c-0.2-0.2-0.5-0.3-0.8-0.3
	c-0.4,0-0.8,0.1-1.1,0.4c-0.3,0.3-0.4,0.7-0.4,1.1v3.9h-2.1v-6.9h2.1v1c0.2-0.4,0.6-0.7,0.9-0.9c0.4-0.2,0.9-0.3,1.3-0.3
	C131.7,19.4,132.3,19.6,132.8,20.1z"/>
<path class="st2" d="M139.5,25l-0.1,1.5c-0.3,0-0.5,0-0.8,0c-0.8,0.1-1.6-0.2-2.3-0.7c-0.5-0.6-0.8-1.3-0.7-2.1v-2.6h-1.3v-1.6h1.3
	v-2h2.1v2h1.7v1.6h-1.7v2.6c0,0.8,0.4,1.2,1.1,1.2C139,25,139.3,25,139.5,25z"/>
<path class="st2" d="M146.6,23.4h-4.5c0,0.5,0.2,0.9,0.5,1.2c0.4,0.3,0.8,0.4,1.2,0.4c0.4,0,0.7-0.1,1.1-0.2c0.4-0.1,0.7-0.3,1-0.5
	l0.6,1.4c-0.4,0.3-0.8,0.5-1.2,0.6c-0.5,0.1-1,0.2-1.4,0.2c-1,0-2-0.3-2.7-1c-0.7-0.7-1.1-1.6-1-2.6c0-0.6,0.1-1.3,0.4-1.9
	c0.3-0.5,0.7-1,1.2-1.3c0.5-0.3,1.1-0.5,1.8-0.5c0.9,0,1.7,0.3,2.3,0.9c0.6,0.7,0.9,1.6,0.9,2.5L146.6,23.4z M142.6,21.2
	c-0.3,0.3-0.4,0.7-0.4,1.1h2.7c0-0.4-0.1-0.8-0.4-1.1c-0.2-0.3-0.6-0.4-0.9-0.4C143.2,20.8,142.8,21,142.6,21.2L142.6,21.2z"/>
<path class="st2" d="M154,20.1c0.4,0.6,0.7,1.4,0.6,2.2v4.1h-2.1v-4c0-0.4-0.1-0.7-0.3-1c-0.2-0.2-0.5-0.3-0.8-0.3
	c-0.4,0-0.8,0.1-1.1,0.4c-0.3,0.3-0.4,0.7-0.4,1.1v3.9h-2.1v-6.9h2.1v1c0.2-0.4,0.6-0.7,0.9-0.9c0.4-0.2,0.9-0.3,1.3-0.3
	C152.9,19.4,153.5,19.6,154,20.1z"/>
<path class="st2" d="M161.5,20.1c0.5,0.6,0.8,1.4,0.7,2.2v4.1h-2v-1c-0.1,0.3-0.4,0.6-0.7,0.8c-0.3,0.2-0.7,0.3-1.1,0.3
	c-0.4,0-0.9-0.1-1.3-0.3c-0.4-0.2-0.7-0.4-0.9-0.8c-0.2-0.3-0.3-0.7-0.3-1.1c0-0.4,0.1-0.9,0.4-1.2c0.3-0.3,0.8-0.6,1.2-0.6
	c0.8-0.1,1.6-0.2,2.3-0.2h0.4v-0.2c0-0.3-0.1-0.6-0.3-0.9c-0.3-0.2-0.6-0.3-0.9-0.2c-0.4,0-0.8,0.1-1.1,0.2
	c-0.4,0.1-0.8,0.3-1.2,0.5l-0.6-1.4c0.5-0.3,0.9-0.5,1.4-0.6c0.5-0.2,1.1-0.2,1.6-0.2C160.1,19.4,160.9,19.6,161.5,20.1z
	 M159.9,24.7c0.3-0.3,0.4-0.7,0.4-1.1v-0.2H160c-0.5,0-1.1,0-1.6,0.2c-0.3,0.1-0.5,0.4-0.4,0.7c0,0.2,0.1,0.5,0.3,0.6
	c0.2,0.2,0.4,0.3,0.6,0.2C159.2,25.1,159.6,25,159.9,24.7z"/>
<path class="st2" d="M170,20.1c0.5,0.6,0.7,1.4,0.6,2.2v4.1h-2.1v-4c0-0.4-0.1-0.7-0.3-1c-0.2-0.2-0.5-0.3-0.8-0.3
	c-0.4,0-0.8,0.1-1.1,0.4c-0.3,0.3-0.4,0.7-0.4,1.1v3.9h-2.1v-6.9h2.1v1c0.2-0.4,0.6-0.7,0.9-0.9c0.4-0.2,0.9-0.3,1.3-0.3
	C168.9,19.4,169.5,19.6,170,20.1z"/>
<path class="st2" d="M172.8,25.6c-0.7-0.7-1-1.6-1-2.6c0-0.7,0.1-1.3,0.5-1.9c0.3-0.5,0.8-1,1.3-1.3c0.6-0.3,1.3-0.5,1.9-0.5
	c0.5,0,1,0.1,1.5,0.2c0.4,0.1,0.8,0.3,1.1,0.6l-0.6,1.5c-0.3-0.2-0.6-0.4-0.9-0.5c-0.3-0.1-0.6-0.2-0.9-0.2c-0.5,0-0.9,0.2-1.3,0.5
	c-0.3,0.4-0.5,0.9-0.4,1.5c0,0.5,0.1,1.1,0.5,1.5c0.3,0.3,0.8,0.5,1.3,0.5c0.3,0,0.6-0.1,0.9-0.2c0.3-0.1,0.6-0.3,0.9-0.5l0.6,1.5
	c-0.3,0.3-0.7,0.5-1.2,0.6c-0.5,0.2-1,0.2-1.5,0.2C174.5,26.6,173.5,26.3,172.8,25.6z"/>
<path class="st2" d="M185.3,23.4h-4.5c0,0.5,0.2,0.9,0.5,1.2c0.4,0.3,0.8,0.4,1.2,0.4c0.4,0,0.7-0.1,1.1-0.2c0.4-0.1,0.7-0.3,1-0.5
	l0.6,1.4c-0.4,0.3-0.8,0.5-1.2,0.6c-0.5,0.1-1,0.2-1.4,0.2c-1,0-2-0.3-2.7-1c-0.7-0.7-1.1-1.6-1-2.6c0-0.6,0.1-1.3,0.4-1.9
	c0.3-0.5,0.7-1,1.2-1.3c0.5-0.3,1.1-0.5,1.8-0.5c0.9,0,1.7,0.3,2.3,0.9c0.6,0.7,0.9,1.6,0.8,2.5L185.3,23.4z M181.3,21.2
	c-0.3,0.3-0.4,0.7-0.4,1.1h2.7c0-0.4-0.1-0.8-0.4-1.1c-0.2-0.3-0.6-0.4-0.9-0.4C181.9,20.8,181.5,21,181.3,21.2L181.3,21.2z"/>
<path class="st5" d="M72.3,309.4h127.9c1.8,0,3.2,1.4,3.2,3.2v37.3c0,1.8-1.4,3.2-3.2,3.2H72.3c-1.8,0-3.2-1.4-3.2-3.2v-37.3
	C69.1,310.8,70.6,309.4,72.3,309.4z"/>
<path class="st2" d="M112.4,332.4v1.6h-1.3v1.8h-2.1V334h-4.1v-1.6l4.5-6.5h1.8v6.4L112.4,332.4z M106.8,332.4h2.1v-3.1L106.8,332.4
	z"/>
<path class="st2" d="M113.4,333.6h2.3v2.2h-2.3V333.6z"/>
<path class="st2" d="M123.5,335.8v-8.1h-3.1V326h8.4v1.8h-3.1v8.1L123.5,335.8z"/>
<path class="st2" d="M134.8,332.8h-4.5c0,0.5,0.2,0.9,0.5,1.2c0.4,0.3,0.8,0.4,1.2,0.4c0.4,0,0.7-0.1,1.1-0.2c0.4-0.1,0.7-0.3,1-0.5
	l0.6,1.4c-0.4,0.3-0.8,0.5-1.2,0.6c-0.5,0.1-1,0.2-1.4,0.2c-1,0-2-0.3-2.7-1c-0.7-0.7-1.1-1.6-1-2.6c0-0.6,0.1-1.3,0.4-1.9
	c0.3-0.5,0.7-1,1.2-1.3c0.5-0.3,1.1-0.5,1.8-0.5c0.9,0,1.7,0.3,2.3,0.9c0.6,0.7,0.9,1.6,0.9,2.5L134.8,332.8z M130.8,330.6
	c-0.3,0.3-0.4,0.7-0.4,1.1h2.7c0-0.4-0.1-0.8-0.4-1.1c-0.2-0.3-0.6-0.4-0.9-0.4C131.4,330.2,131.1,330.4,130.8,330.6L130.8,330.6z"
	/>
<path class="st2" d="M137,335.7c-0.5-0.1-1-0.3-1.4-0.6l0.6-1.5c0.4,0.3,0.8,0.5,1.2,0.6c0.4,0.1,0.9,0.2,1.4,0.2
	c0.3,0,0.5,0,0.8-0.2c0.2-0.1,0.3-0.3,0.3-0.4c0-0.2-0.1-0.3-0.2-0.4c-0.2-0.1-0.5-0.2-0.7-0.3l-1.1-0.2c-0.5-0.1-1-0.3-1.5-0.7
	c-0.3-0.3-0.5-0.8-0.5-1.3c0-0.4,0.1-0.8,0.4-1.1c0.3-0.3,0.6-0.6,1.1-0.8c0.5-0.2,1-0.3,1.6-0.3c0.5,0,1,0.1,1.4,0.2
	c0.5,0.1,0.9,0.4,1.3,0.6L141,331c-0.6-0.5-1.4-0.7-2.2-0.8c-0.3,0-0.5,0-0.8,0.2c-0.2,0.1-0.3,0.3-0.3,0.5c0,0.1,0.1,0.3,0.2,0.4
	c0.2,0.1,0.4,0.2,0.6,0.2l1.2,0.3c0.6,0.1,1.1,0.3,1.5,0.7c0.3,0.4,0.5,0.8,0.5,1.3c0,0.6-0.3,1.2-0.8,1.6c-0.6,0.4-1.4,0.6-2.2,0.6
	C138.2,335.9,137.6,335.9,137,335.7z"/>
<path class="st2" d="M147.3,334.3l-0.1,1.5c-0.3,0-0.5,0.1-0.8,0.1c-0.8,0.1-1.6-0.2-2.3-0.7c-0.5-0.6-0.8-1.3-0.7-2.1v-2.6h-1.3
	V329h1.3v-2h2.1v2h1.7v1.6h-1.7v2.6c0,0.8,0.4,1.2,1.1,1.2C146.9,334.4,147.1,334.4,147.3,334.3z"/>
<path class="st2" d="M148.2,325.6h2.3v2h-2.3V325.6z M148.3,335.8V329h2.1v6.9L148.3,335.8z"/>
<path class="st2" d="M158.2,329.5c0.5,0.6,0.7,1.4,0.6,2.2v4.1h-2.1v-4c0-0.4-0.1-0.7-0.3-1c-0.2-0.2-0.5-0.3-0.8-0.3
	c-0.4,0-0.8,0.1-1.1,0.4c-0.3,0.3-0.4,0.7-0.4,1.1v3.9H152V329h2.1v1c0.2-0.4,0.6-0.7,0.9-0.9c0.4-0.2,0.9-0.3,1.3-0.3
	C157,328.8,157.7,329,158.2,329.5z"/>
<path class="st2" d="M167.4,329v6.1c0.1,0.9-0.3,1.9-1,2.5c-0.8,0.6-1.8,0.9-2.8,0.9c-0.6,0-1.2-0.1-1.8-0.2c-0.5-0.1-1-0.3-1.5-0.6
	l0.6-1.5c0.8,0.5,1.7,0.7,2.6,0.7c1.2,0,1.7-0.5,1.7-1.6v-0.8c-0.2,0.4-0.5,0.7-0.9,0.8c-0.4,0.2-0.9,0.3-1.3,0.3
	c-0.6,0-1.1-0.1-1.6-0.4c-0.5-0.3-0.8-0.7-1.1-1.2c-0.5-1.1-0.5-2.4,0-3.6c0.5-1,1.5-1.7,2.7-1.6c0.4,0,0.9,0.1,1.3,0.3
	c0.4,0.2,0.7,0.5,0.9,0.8v-1L167.4,329z M164.9,333.6c0.3-0.4,0.4-0.8,0.4-1.3c0-0.5-0.1-1-0.4-1.3c-0.6-0.6-1.7-0.7-2.3,0
	c0,0,0,0,0,0c-0.3,0.4-0.4,0.9-0.4,1.3c0,0.5,0.1,0.9,0.4,1.3C163.2,334.2,164.2,334.2,164.9,333.6
	C164.8,333.6,164.8,333.6,164.9,333.6z"/>
<path class="st5" d="M422.3,0h127.9c1.8,0,3.2,1.4,3.2,3.2v37.3c0,1.8-1.4,3.2-3.2,3.2H422.3c-1.8,0-3.2-1.4-3.2-3.2V3.2
	C419.1,1.4,420.5,0,422.3,0z"/>
<path class="st2" d="M456.5,24.7h2.1v1.8h-6.4v-1.8h2.1V19l-1.7,1l-0.8-1.6l3.2-1.9h1.5L456.5,24.7z"/>
<path class="st2" d="M459.8,24.2h2.3v2.2h-2.3V24.2z"/>
<path class="st2" d="M475.2,26.5l-0.9-2.2h-4.6l-0.9,2.2h-2.2l4.5-9.9h1.8l4.5,9.9H475.2z M470.4,22.6h3.2l-1.6-3.7L470.4,22.6z"/>
<path class="st2" d="M484.2,20.1c0.4,0.6,0.7,1.4,0.6,2.2v4.1h-2.1v-4c0-0.4-0.1-0.7-0.3-1c-0.2-0.2-0.5-0.3-0.8-0.3
	c-0.4,0-0.8,0.1-1.1,0.4c-0.3,0.3-0.4,0.7-0.4,1.1v3.9H478v-6.9h2.1v1c0.2-0.4,0.6-0.7,0.9-0.9c0.4-0.2,0.9-0.3,1.3-0.3
	C483,19.4,483.7,19.6,484.2,20.1z"/>
<path class="st2" d="M491.7,20.1c0.5,0.6,0.8,1.4,0.7,2.2v4.1h-2v-1c-0.1,0.3-0.4,0.6-0.7,0.8c-0.3,0.2-0.7,0.3-1.1,0.3
	c-0.4,0-0.9-0.1-1.3-0.3c-0.4-0.2-0.7-0.4-0.9-0.8c-0.2-0.3-0.3-0.7-0.3-1.1c0-0.4,0.1-0.9,0.4-1.2c0.3-0.3,0.8-0.6,1.2-0.6
	c0.8-0.2,1.5-0.2,2.3-0.2h0.4v-0.2c0-0.3-0.1-0.6-0.3-0.9c-0.3-0.2-0.6-0.3-0.9-0.2c-0.4,0-0.8,0.1-1.1,0.2
	c-0.4,0.1-0.8,0.3-1.2,0.5l-0.6-1.4c0.5-0.3,0.9-0.5,1.5-0.6c0.5-0.2,1.1-0.2,1.6-0.2C490.2,19.4,491,19.6,491.7,20.1z M490,24.7
	c0.3-0.3,0.4-0.7,0.4-1.1v-0.2h-0.2c-0.5,0-1.1,0-1.6,0.2c-0.3,0.1-0.5,0.4-0.5,0.7c0,0.2,0.1,0.5,0.2,0.6c0.2,0.2,0.4,0.2,0.7,0.2
	C489.4,25.1,489.7,25,490,24.7z"/>
<path class="st2" d="M494,26.5v-9.9h2.1v9.9H494z"/>
<path class="st2" d="M502.5,19.6h2.1l-4.1,9.4h-2.1l1.3-2.9l-2.8-6.5h2.2l1.7,4.4L502.5,19.6z"/>
<path class="st2" d="M506,26.4c-0.5-0.1-0.9-0.3-1.4-0.6l0.6-1.5c0.4,0.3,0.8,0.5,1.2,0.6c0.4,0.1,0.9,0.2,1.4,0.2
	c0.3,0,0.5,0,0.8-0.2c0.2-0.1,0.3-0.3,0.3-0.4c0-0.2-0.1-0.3-0.2-0.4c-0.2-0.1-0.5-0.2-0.7-0.2l-1.1-0.2c-0.5-0.1-1.1-0.3-1.5-0.7
	c-0.3-0.3-0.5-0.8-0.5-1.3c0-0.4,0.1-0.8,0.4-1.1c0.3-0.3,0.6-0.6,1-0.8c0.5-0.2,1-0.3,1.5-0.3c0.5,0,1,0.1,1.5,0.2
	c0.4,0.1,0.9,0.4,1.2,0.6l-0.5,1.4c-0.6-0.5-1.4-0.7-2.2-0.8c-0.3,0-0.5,0-0.8,0.2c-0.2,0.1-0.3,0.3-0.3,0.5c0,0.1,0.1,0.3,0.2,0.4
	c0.2,0.1,0.4,0.2,0.6,0.2l1.2,0.3c0.6,0.1,1.1,0.3,1.5,0.7c0.3,0.4,0.5,0.8,0.5,1.3c0.1,0.6-0.2,1.2-0.7,1.6
	c-0.6,0.4-1.4,0.6-2.2,0.6C507.2,26.6,506.6,26.5,506,26.4z"/>
<path class="st2" d="M511.9,16.3h2.3v2h-2.3V16.3z M512,26.5v-6.9h2.1v6.9H512z"/>
<path class="st2" d="M516.6,26.4c-0.5-0.1-1-0.3-1.4-0.6l0.6-1.5c0.4,0.3,0.8,0.5,1.2,0.6c0.4,0.1,0.9,0.2,1.4,0.2
	c0.3,0,0.5,0,0.8-0.2c0.2-0.1,0.3-0.3,0.3-0.4c0-0.2-0.1-0.3-0.2-0.4c-0.2-0.1-0.5-0.2-0.7-0.2l-1.1-0.2c-0.5-0.1-1-0.3-1.5-0.7
	c-0.3-0.3-0.5-0.8-0.5-1.3c0-0.4,0.1-0.8,0.4-1.1c0.3-0.3,0.6-0.6,1-0.8c0.5-0.2,1-0.3,1.5-0.3c0.5,0,1,0.1,1.4,0.2
	c0.5,0.1,0.9,0.4,1.3,0.6l-0.6,1.4c-0.6-0.5-1.4-0.7-2.2-0.8c-0.3,0-0.5,0-0.8,0.2c-0.2,0.1-0.3,0.3-0.3,0.5c0,0.1,0.1,0.3,0.2,0.4
	c0.2,0.1,0.4,0.2,0.6,0.2l1.2,0.3c0.6,0.1,1.1,0.3,1.5,0.7c0.3,0.4,0.5,0.8,0.5,1.3c0,0.6-0.3,1.2-0.8,1.6c-0.7,0.4-1.4,0.6-2.2,0.6
	C517.7,26.6,517.2,26.5,516.6,26.4z"/>
<path class="st5" d="M422.3,309.4h127.9c1.8,0,3.2,1.4,3.2,3.2v37.3c0,1.8-1.4,3.2-3.2,3.2H422.3c-1.8,0-3.2-1.4-3.2-3.2v-37.3
	C419.1,310.8,420.5,309.4,422.3,309.4z"/>
<path class="st2" d="M433.8,331.6c0.3,0.4,0.5,1,0.5,1.5c0,0.8-0.3,1.6-1,2c-0.8,0.5-1.7,0.8-2.7,0.8c-0.7,0-1.4-0.1-2-0.3
	c-0.6-0.2-1.1-0.4-1.5-0.8l0.7-1.5c0.8,0.6,1.7,1,2.7,1c0.5,0,0.9-0.1,1.3-0.3c0.3-0.2,0.4-0.6,0.4-1c0-0.4-0.1-0.7-0.4-1
	c-0.4-0.2-0.8-0.3-1.3-0.3H429V330h1.2c0.4,0,0.9-0.1,1.3-0.3c0.3-0.2,0.4-0.6,0.4-0.9c0-0.3-0.1-0.7-0.4-0.9
	c-0.3-0.2-0.7-0.3-1-0.3c-0.4,0-0.9,0.1-1.3,0.2c-0.5,0.2-0.9,0.4-1.3,0.7l-0.7-1.5c0.4-0.4,1-0.6,1.5-0.8c0.6-0.2,1.3-0.3,1.9-0.3
	c0.6,0,1.2,0.1,1.8,0.3c0.5,0.2,0.9,0.5,1.2,0.9c0.3,0.4,0.4,0.9,0.4,1.4c0,0.5-0.1,1-0.4,1.4c-0.3,0.4-0.7,0.7-1.1,0.9
	C433,330.9,433.4,331.2,433.8,331.6z"/>
<path class="st2" d="M435.7,333.6h2.3v2.2h-2.3V333.6z"/>
<path class="st2" d="M443.5,335.8V326h2.2v9.9L443.5,335.8z"/>
<path class="st2" d="M457.7,329.5c0.4,0.6,0.6,1.4,0.6,2.2v4.1h-2.1v-4.1c0-0.3-0.1-0.7-0.2-1c-0.2-0.2-0.5-0.3-0.7-0.3
	c-0.4,0-0.7,0.1-0.9,0.4c-0.2,0.3-0.3,0.7-0.3,1.1v3.8h-2.1v-4.1c0-0.3-0.1-0.7-0.2-1c-0.2-0.2-0.5-0.3-0.7-0.3
	c-0.4,0-0.7,0.1-0.9,0.4c-0.2,0.3-0.4,0.8-0.3,1.2v3.8h-2.1V329h2v0.9c0.2-0.3,0.5-0.6,0.9-0.8c0.4-0.2,0.8-0.3,1.2-0.3
	c0.9-0.1,1.7,0.4,2,1.3c0.2-0.4,0.5-0.7,0.9-0.9c0.4-0.2,0.9-0.4,1.3-0.4C456.7,328.8,457.3,329,457.7,329.5z"/>
<path class="st2" d="M465.7,329.2c0.5,0.3,0.8,0.8,1.1,1.3c0.3,0.6,0.4,1.2,0.4,1.9c0,0.6-0.1,1.3-0.4,1.9c-0.2,0.5-0.6,0.9-1.1,1.2
	c-0.5,0.3-1,0.4-1.6,0.4c-0.4,0-0.9-0.1-1.3-0.3c-0.4-0.2-0.7-0.5-0.9-0.8v3.5h-2.1V329h2.1v1c0.2-0.4,0.5-0.6,0.9-0.8
	c0.4-0.2,0.8-0.3,1.3-0.3C464.7,328.8,465.3,329,465.7,329.2z M464.7,333.8c0.3-0.4,0.4-0.9,0.4-1.4c0-0.5-0.1-1-0.4-1.5
	c-0.5-0.6-1.5-0.7-2.1-0.2c-0.1,0-0.1,0.1-0.2,0.2c-0.5,0.9-0.5,2,0,2.9c0.3,0.3,0.7,0.5,1.1,0.5C464,334.4,464.4,334.2,464.7,333.8
	z"/>
<path class="st2" d="M468.5,335.8V326h2.1v9.9L468.5,335.8z"/>
<path class="st2" d="M478.4,332.8h-4.5c0,0.5,0.2,0.9,0.5,1.2c0.4,0.3,0.8,0.4,1.3,0.4c0.3,0,0.7-0.1,1-0.2c0.4-0.1,0.7-0.3,1-0.5
	l0.6,1.4c-0.4,0.3-0.8,0.5-1.2,0.6c-0.5,0.1-1,0.2-1.5,0.2c-1,0-2-0.3-2.7-1c-0.7-0.7-1.1-1.6-1-2.6c0-0.6,0.1-1.3,0.4-1.9
	c0.3-0.5,0.7-1,1.2-1.3c0.5-0.3,1.1-0.5,1.8-0.5c0.9,0,1.7,0.3,2.3,0.9c0.6,0.7,0.9,1.6,0.8,2.5L478.4,332.8z M474.4,330.6
	c-0.3,0.3-0.4,0.7-0.4,1.1h2.7c0-0.4-0.1-0.8-0.4-1.1c-0.2-0.3-0.6-0.4-0.9-0.4C475,330.2,474.6,330.4,474.4,330.6L474.4,330.6z"/>
<path class="st2" d="M489.9,329.5c0.4,0.6,0.6,1.4,0.6,2.2v4.1h-2.1v-4.1c0-0.3-0.1-0.7-0.2-1c-0.2-0.2-0.5-0.3-0.7-0.3
	c-0.4,0-0.7,0.1-0.9,0.4c-0.2,0.3-0.4,0.8-0.3,1.2v3.8H484v-4.1c0-0.3-0.1-0.7-0.2-1c-0.2-0.2-0.5-0.3-0.7-0.3
	c-0.4,0-0.7,0.1-0.9,0.4c-0.2,0.3-0.4,0.8-0.3,1.2v3.8h-2.1V329h2v0.9c0.2-0.3,0.5-0.6,0.9-0.8c0.4-0.2,0.8-0.3,1.2-0.3
	c0.9-0.1,1.7,0.5,2,1.3c0.2-0.4,0.5-0.7,0.9-0.9c0.4-0.2,0.9-0.4,1.3-0.4C488.8,328.7,489.4,329,489.9,329.5z"/>
<path class="st2" d="M498.3,332.8h-4.5c0,0.5,0.2,0.9,0.5,1.2c0.4,0.3,0.8,0.4,1.3,0.4c0.4,0,0.7-0.1,1-0.2c0.4-0.1,0.7-0.3,1-0.5
	l0.6,1.4c-0.4,0.3-0.8,0.5-1.2,0.6c-0.5,0.1-1,0.2-1.5,0.2c-1,0-2-0.3-2.7-1c-0.7-0.7-1-1.6-1-2.6c0-0.6,0.1-1.3,0.4-1.9
	c0.3-0.5,0.7-1,1.2-1.3c0.5-0.3,1.1-0.5,1.8-0.5c0.9,0,1.7,0.3,2.3,0.9c0.6,0.7,0.9,1.6,0.9,2.5L498.3,332.8z M494.3,330.6
	c-0.3,0.3-0.4,0.7-0.4,1.1h2.7c0-0.4-0.1-0.8-0.4-1.1c-0.2-0.3-0.6-0.4-0.9-0.4C494.9,330.2,494.5,330.4,494.3,330.6L494.3,330.6z"
	/>
<path class="st2" d="M505.7,329.5c0.4,0.6,0.7,1.4,0.6,2.2v4.1h-2.1v-4c0-0.4-0.1-0.7-0.3-1c-0.2-0.2-0.5-0.3-0.8-0.3
	c-0.4,0-0.8,0.1-1.1,0.4c-0.3,0.3-0.4,0.7-0.4,1.1v3.9h-2.1V329h2.1v1c0.2-0.4,0.6-0.7,0.9-0.9c0.4-0.2,0.9-0.3,1.3-0.3
	C504.5,328.8,505.2,329,505.7,329.5z"/>
<path class="st2" d="M512.3,334.3l-0.1,1.5c-0.3,0-0.5,0.1-0.8,0.1c-0.8,0.1-1.6-0.2-2.3-0.7c-0.5-0.6-0.8-1.3-0.7-2.1v-2.6h-1.3
	V329h1.3v-2h2.1v2h1.7v1.6h-1.7v2.6c0,0.8,0.4,1.2,1.1,1.2C511.9,334.4,512.1,334.4,512.3,334.3z"/>
<path class="st2" d="M518.6,329.5c0.5,0.6,0.8,1.4,0.7,2.3v4.1h-2v-1c-0.1,0.3-0.4,0.6-0.7,0.8c-0.3,0.2-0.7,0.3-1.2,0.3
	c-0.4,0-0.9-0.1-1.3-0.3c-0.4-0.2-0.7-0.4-0.9-0.8c-0.2-0.3-0.3-0.7-0.3-1.1c0-0.4,0.1-0.9,0.4-1.2c0.3-0.3,0.8-0.5,1.2-0.6
	c0.8-0.1,1.6-0.2,2.3-0.2h0.4v-0.2c0-0.3-0.1-0.6-0.3-0.9c-0.3-0.2-0.6-0.3-0.9-0.2c-0.4,0-0.8,0.1-1.1,0.2
	c-0.4,0.1-0.8,0.3-1.2,0.5l-0.6-1.4c0.5-0.3,0.9-0.5,1.5-0.6c0.5-0.2,1.1-0.2,1.6-0.2C517.2,328.7,518,329,518.6,329.5z M517,334.1
	c0.3-0.3,0.4-0.7,0.4-1.1v-0.2h-0.2c-0.5,0-1.1,0-1.6,0.2c-0.3,0.1-0.5,0.4-0.5,0.7c0,0.2,0.1,0.5,0.3,0.6c0.2,0.2,0.4,0.3,0.7,0.2
	C516.4,334.5,516.7,334.3,517,334.1z"/>
<path class="st2" d="M525.4,334.3l-0.1,1.5c-0.3,0-0.5,0.1-0.8,0.1c-0.8,0.1-1.6-0.2-2.3-0.7c-0.5-0.6-0.8-1.3-0.7-2.1v-2.6h-1.3
	V329h1.3v-2h2.1v2h1.7v1.6h-1.7v2.6c0,0.8,0.4,1.2,1.2,1.2C525,334.4,525.2,334.4,525.4,334.3z"/>
<path class="st2" d="M526.3,325.6h2.3v2h-2.3V325.6z M526.4,335.8V329h2.1v6.9L526.4,335.8z"/>
<path class="st2" d="M531.5,335.5c-0.5-0.3-1-0.7-1.3-1.2c-0.6-1.2-0.6-2.6,0-3.8c0.3-0.5,0.7-1,1.3-1.2c1.2-0.6,2.6-0.6,3.8,0
	c0.5,0.3,1,0.7,1.3,1.2c0.6,1.2,0.6,2.6,0,3.8c-0.3,0.5-0.7,1-1.3,1.2C534.1,336.1,532.7,336.1,531.5,335.5z M534.9,332.4
	c0-0.5-0.1-1-0.4-1.5c-0.3-0.3-0.7-0.5-1.1-0.5c-1,0-1.5,0.7-1.5,2s0.5,2,1.5,2S534.9,333.7,534.9,332.4z"/>
<path class="st2" d="M544.5,329.5c0.5,0.6,0.7,1.4,0.6,2.2v4.1H543v-4c0-0.4-0.1-0.7-0.3-1c-0.2-0.2-0.5-0.3-0.8-0.3
	c-0.4,0-0.8,0.1-1.1,0.4c-0.3,0.3-0.4,0.7-0.4,1.1v3.9h-2.1V329h2.1v1c0.2-0.4,0.6-0.7,0.9-0.9c0.4-0.2,0.9-0.3,1.3-0.3
	C543.3,328.8,544,329,544.5,329.5z"/>
<path class="st5" d="M3.2,154.7H131c1.8,0,3.2,1.4,3.2,3.2v37.3c0,1.8-1.4,3.2-3.2,3.2H3.2c-1.8,0-3.2-1.4-3.2-3.2v-37.3
	C0,156.1,1.4,154.7,3.2,154.7z"/>
<path class="st2" d="M40.3,175.1c0.5,0.3,0.9,0.6,1.1,1.1c0.3,0.5,0.4,1.1,0.4,1.6c0,0.6-0.2,1.2-0.5,1.8c-0.3,0.5-0.8,0.9-1.3,1.2
	c-0.6,0.3-1.3,0.4-2,0.4c-0.6,0-1.3-0.1-1.9-0.3c-0.5-0.2-1.1-0.4-1.5-0.8l0.7-1.6c0.8,0.6,1.7,0.9,2.7,0.9c0.5,0,0.9-0.1,1.3-0.4
	c0.3-0.3,0.5-0.7,0.4-1.2c0-0.4-0.1-0.9-0.5-1.1c-0.3-0.3-0.8-0.4-1.2-0.4c-0.3,0-0.7,0.1-1,0.2c-0.3,0.1-0.6,0.3-0.9,0.5H35v-5.8
	h6.3v1.7h-4.2v2.2c0.5-0.3,1-0.4,1.6-0.4C39.3,174.7,39.9,174.9,40.3,175.1z"/>
<path class="st2" d="M43,178.9h2.3v2.2H43V178.9z"/>
<path class="st2" d="M59.4,181.1H57l-1.7-3.1c-0.1-0.2-0.3-0.4-0.5-0.5c-0.2-0.1-0.5-0.2-0.7-0.2H53v3.8h-2.2v-9.9h4.5
	c0.9-0.1,1.9,0.2,2.6,0.7c0.6,0.6,0.9,1.4,0.9,2.2c0,0.7-0.2,1.3-0.6,1.9c-0.5,0.5-1.1,0.9-1.8,1c0.6,0.2,1,0.6,1.3,1.1L59.4,181.1z
	 M56.4,175.3c0.3-0.2,0.4-0.6,0.4-1c0-0.4-0.1-0.8-0.4-1c-0.4-0.3-0.9-0.4-1.3-0.3H53v2.7h2.1C55.6,175.7,56,175.6,56.4,175.3
	L56.4,175.3z"/>
<path class="st2" d="M66.7,178.1h-4.5c0,0.5,0.2,0.9,0.5,1.2c0.4,0.3,0.8,0.4,1.2,0.4c0.4,0,0.7-0.1,1.1-0.2c0.4-0.1,0.7-0.3,1-0.5
	l0.6,1.4c-0.4,0.3-0.8,0.5-1.2,0.6c-0.5,0.1-1,0.2-1.5,0.2c-1,0-2-0.3-2.7-1c-0.7-0.7-1-1.6-1-2.6c0-0.6,0.1-1.3,0.4-1.9
	c0.3-0.5,0.7-1,1.2-1.3c0.5-0.3,1.1-0.5,1.8-0.4c0.9,0,1.7,0.3,2.3,0.9c0.6,0.7,0.9,1.6,0.8,2.6L66.7,178.1z M62.7,175.9
	c-0.3,0.3-0.4,0.7-0.4,1.1H65c0-0.4-0.1-0.8-0.4-1.1c-0.2-0.3-0.6-0.4-0.9-0.4C63.3,175.5,62.9,175.7,62.7,175.9L62.7,175.9z"/>
<path class="st2" d="M68,181.1v-9.9h2.1v9.9H68z"/>
<path class="st2" d="M77.9,178.1h-4.5c0,0.5,0.2,0.9,0.5,1.2c0.4,0.3,0.8,0.4,1.3,0.4c0.3,0,0.7-0.1,1-0.2c0.4-0.1,0.7-0.3,1-0.5
	l0.6,1.4c-0.4,0.3-0.8,0.5-1.2,0.6c-0.5,0.1-1,0.2-1.4,0.2c-1,0-2-0.3-2.7-1c-0.7-0.7-1-1.6-1-2.6c0-0.6,0.1-1.3,0.4-1.9
	c0.3-0.5,0.7-1,1.2-1.3c0.5-0.3,1.1-0.5,1.8-0.4c0.9,0,1.7,0.3,2.3,0.9c0.6,0.7,0.9,1.6,0.8,2.6L77.9,178.1z M73.9,175.9
	c-0.3,0.3-0.4,0.7-0.4,1.1h2.7c0-0.4-0.1-0.8-0.4-1.1c-0.2-0.3-0.6-0.4-0.9-0.4C74.5,175.5,74.1,175.7,73.9,175.9L73.9,175.9z"/>
<path class="st2" d="M84.5,174.8c0.5,0.6,0.8,1.4,0.7,2.2v4.1h-2v-1c-0.1,0.3-0.4,0.6-0.7,0.8c-0.3,0.2-0.7,0.3-1.2,0.3
	c-0.4,0-0.9-0.1-1.3-0.3c-0.4-0.2-0.7-0.4-0.9-0.8c-0.2-0.3-0.3-0.7-0.3-1.1c0-0.4,0.1-0.9,0.4-1.2c0.3-0.3,0.8-0.6,1.2-0.6
	c0.8-0.1,1.6-0.2,2.3-0.2h0.4v-0.2c0-0.3-0.1-0.6-0.3-0.9c-0.3-0.2-0.6-0.3-0.9-0.2c-0.4,0-0.8,0.1-1.1,0.2
	c-0.4,0.1-0.8,0.3-1.2,0.5l-0.6-1.4c0.9-0.5,1.9-0.8,3-0.9C83,174.1,83.8,174.3,84.5,174.8z M82.8,179.4c0.3-0.3,0.4-0.7,0.4-1.1
	v-0.2H83c-0.5,0-1.1,0-1.6,0.2c-0.3,0.1-0.5,0.4-0.5,0.6c0,0.2,0.1,0.5,0.3,0.6c0.2,0.2,0.4,0.3,0.7,0.2
	C82.2,179.8,82.6,179.6,82.8,179.4z"/>
<path class="st2" d="M87.7,181c-0.5-0.1-1-0.3-1.4-0.6l0.6-1.4c0.4,0.3,0.8,0.5,1.2,0.6c0.4,0.1,0.9,0.2,1.4,0.2
	c0.3,0,0.5,0,0.8-0.2c0.2-0.1,0.3-0.3,0.3-0.4c0-0.2-0.1-0.3-0.2-0.4c-0.2-0.1-0.5-0.2-0.7-0.2l-1.1-0.2c-0.5-0.1-1-0.3-1.5-0.7
	c-0.3-0.3-0.5-0.8-0.5-1.3c0-0.4,0.1-0.8,0.4-1.1c0.3-0.3,0.6-0.6,1-0.8c0.5-0.2,1-0.3,1.6-0.3c0.5,0,1,0.1,1.4,0.2
	c0.5,0.1,0.9,0.4,1.3,0.6l-0.6,1.4c-0.6-0.5-1.4-0.7-2.2-0.8c-0.3,0-0.5,0-0.8,0.2c-0.2,0.1-0.3,0.3-0.3,0.5c0,0.1,0.1,0.3,0.2,0.4
	c0.2,0.1,0.4,0.2,0.6,0.2l1.2,0.3c0.6,0.1,1.1,0.3,1.5,0.7c0.3,0.4,0.5,0.8,0.5,1.3c0,0.6-0.3,1.2-0.8,1.6c-0.6,0.4-1.4,0.6-2.2,0.6
	C88.8,181.3,88.3,181.2,87.7,181z"/>
<path class="st2" d="M99.8,178.1h-4.5c0,0.5,0.2,0.9,0.5,1.2c0.4,0.3,0.8,0.4,1.2,0.4c0.4,0,0.7-0.1,1.1-0.2c0.4-0.1,0.7-0.3,1-0.5
	l0.6,1.4c-0.4,0.3-0.8,0.5-1.2,0.6c-0.5,0.1-1,0.2-1.4,0.2c-1,0-2-0.3-2.7-1c-0.7-0.7-1.1-1.6-1-2.6c0-0.6,0.1-1.3,0.4-1.9
	c0.3-0.5,0.7-1,1.2-1.3c0.5-0.3,1.1-0.5,1.8-0.4c0.9,0,1.7,0.3,2.3,0.9c0.6,0.7,0.9,1.6,0.8,2.6L99.8,178.1z M95.8,175.9
	c-0.3,0.3-0.4,0.7-0.4,1.1H98c0-0.4-0.1-0.8-0.4-1.1c-0.2-0.3-0.6-0.4-0.9-0.4C96.3,175.5,96,175.7,95.8,175.9L95.8,175.9z"/>
<path class="st5" d="M492.5,154.7h127.9c1.8,0,3.2,1.4,3.2,3.2v37.3c0,1.8-1.4,3.2-3.2,3.2H492.5c-1.8,0-3.2-1.4-3.2-3.2v-37.3
	C489.3,156.1,490.7,154.7,492.5,154.7z"/>
<path class="st2" d="M533.3,179.4v1.8h-6.8v-1.6l3.3-3.5c0.6-0.5,0.9-1.2,1-2c0-0.8-0.5-1.2-1.3-1.2c-0.4,0-0.9,0.1-1.3,0.2
	c-0.5,0.2-0.9,0.4-1.3,0.7l-0.7-1.6c0.4-0.4,1-0.6,1.5-0.8c0.6-0.2,1.2-0.3,1.9-0.3c0.9,0,1.8,0.2,2.5,0.8c0.6,0.5,1,1.2,0.9,2
	c0,0.5-0.1,1.1-0.4,1.6c-0.3,0.6-0.7,1.1-1.2,1.6l-2.2,2.3L533.3,179.4z"/>
<path class="st2" d="M534.7,178.9h2.3v2.2h-2.3L534.7,178.9z"/>
<path class="st2" d="M542.5,171.3h3.8c1,0,1.9,0.2,2.8,0.6c0.8,0.4,1.4,1,1.8,1.7c0.8,1.7,0.8,3.6,0,5.3c-0.4,0.7-1,1.3-1.8,1.7
	c-0.9,0.4-1.8,0.6-2.8,0.6h-3.8L542.5,171.3z M546.2,179.4c2.1,0,3.2-1.1,3.2-3.2s-1.1-3.2-3.2-3.2h-1.5v6.3L546.2,179.4z"/>
<path class="st2" d="M559.2,178.1h-4.5c0,0.5,0.2,0.9,0.5,1.2c0.4,0.3,0.8,0.4,1.2,0.4c0.4,0,0.7-0.1,1.1-0.2c0.4-0.1,0.7-0.3,1-0.5
	l0.6,1.4c-0.4,0.3-0.8,0.5-1.2,0.6c-0.5,0.1-1,0.2-1.5,0.2c-1,0-2-0.3-2.7-1c-0.7-0.7-1.1-1.6-1-2.6c0-0.6,0.1-1.3,0.4-1.9
	c0.3-0.5,0.7-1,1.2-1.3c0.5-0.3,1.1-0.5,1.8-0.4c0.9,0,1.7,0.3,2.3,0.9c0.6,0.7,0.9,1.6,0.8,2.6L559.2,178.1z M555.2,175.9
	c-0.3,0.3-0.4,0.7-0.4,1.1h2.7c0-0.4-0.1-0.8-0.4-1.1c-0.2-0.3-0.6-0.4-0.9-0.4C555.8,175.5,555.4,175.7,555.2,175.9L555.2,175.9z"
	/>
<path class="st2" d="M561.4,181c-0.5-0.1-1-0.3-1.4-0.6l0.6-1.5c0.4,0.3,0.8,0.5,1.2,0.6c0.4,0.1,0.9,0.2,1.4,0.2
	c0.3,0,0.5,0,0.8-0.2c0.2-0.1,0.3-0.3,0.3-0.4c0-0.2-0.1-0.3-0.2-0.4c-0.2-0.1-0.5-0.2-0.7-0.2l-1.1-0.2c-0.5-0.1-1-0.3-1.5-0.7
	c-0.3-0.3-0.5-0.8-0.5-1.3c0-0.4,0.1-0.8,0.4-1.1c0.3-0.3,0.6-0.6,1-0.8c0.5-0.2,1-0.3,1.5-0.3c0.5,0,1,0.1,1.4,0.2
	c0.5,0.1,0.9,0.4,1.3,0.6l-0.6,1.4c-0.6-0.5-1.4-0.7-2.2-0.8c-0.3,0-0.5,0-0.8,0.2c-0.2,0.1-0.3,0.3-0.3,0.5c0,0.1,0.1,0.3,0.2,0.4
	c0.2,0.1,0.4,0.2,0.6,0.2l1.2,0.3c0.6,0.1,1.1,0.3,1.5,0.7c0.7,0.8,0.6,2.1-0.2,2.8c0,0,0,0-0.1,0.1c-0.6,0.4-1.4,0.6-2.2,0.6
	C562.6,181.2,562,181.2,561.4,181z"/>
<path class="st2" d="M567.2,171h2.3v2h-2.3V171z M567.3,181.2v-6.9h2.1v6.9H567.3z"/>
<path class="st2" d="M578.1,174.3v6.1c0.1,0.9-0.3,1.9-1,2.5c-0.8,0.6-1.8,0.9-2.8,0.9c-0.6,0-1.2-0.1-1.8-0.2
	c-0.5-0.1-1-0.3-1.5-0.6l0.6-1.5c0.8,0.5,1.7,0.7,2.7,0.7c1.2,0,1.7-0.6,1.7-1.6v-0.8c-0.2,0.4-0.5,0.7-0.9,0.9
	c-0.4,0.2-0.9,0.3-1.3,0.3c-1.1,0-2.2-0.6-2.7-1.6c-0.5-1.1-0.5-2.5,0-3.6c0.2-0.5,0.6-0.9,1.1-1.2c0.5-0.3,1-0.4,1.6-0.4
	c0.4,0,0.9,0.1,1.3,0.3c0.4,0.2,0.7,0.5,0.9,0.8v-1L578.1,174.3z M575.5,178.9c0.3-0.4,0.4-0.9,0.4-1.3c0-0.5-0.1-1-0.4-1.3
	c-0.3-0.3-0.7-0.5-1.2-0.5c-0.4,0-0.9,0.2-1.2,0.5c-0.3,0.4-0.4,0.9-0.4,1.3c0,0.5,0.1,0.9,0.4,1.3
	C573.9,179.5,574.9,179.5,575.5,178.9L575.5,178.9z"/>
<path class="st2" d="M585.8,174.8c0.4,0.6,0.7,1.4,0.6,2.2v4.1h-2.1v-4c0-0.4-0.1-0.7-0.3-1c-0.2-0.2-0.5-0.3-0.8-0.3
	c-0.4,0-0.8,0.1-1.1,0.4c-0.3,0.3-0.4,0.7-0.4,1.1v3.9h-2.1v-6.9h2v1c0.3-0.4,0.6-0.7,1-0.9c0.4-0.2,0.9-0.3,1.3-0.3
	C584.7,174.1,585.3,174.3,585.8,174.8z"/>
</svg>
