<?xml version="1.0" encoding="utf-8"?>
<!-- Generator: Adobe Illustrator 22.0.1, SVG Export Plug-In . SVG Version: 6.00 Build 0)  -->
<svg version="1.1" id="Layer_1" xmlns="http://www.w3.org/2000/svg" xmlns:xlink="http://www.w3.org/1999/xlink" x="0px" y="0px"
	 viewBox="0 0 288 288" style="enable-background:new 0 0 288 288;" xml:space="preserve">
<style type="text/css">
	.st0{fill-rule:evenodd;clip-rule:evenodd;fill:#1B214B;}
</style>
<g>
	<g>
		<path class="st0" d="M278,298.5c-1.1-0.6-2.1-1.4-3.3-1.7c-1.3-0.3-2.2,0.8-3.4,1.3c-1.3,0.5-2.5,1.2-3.7,1.8
			c-0.5-0.5-0.2-0.8,0.2-1c1.4-0.9,2.8-1.8,4.1-2.7c0.5-0.4,1.1-0.7,1.6-1.1c0.1-2.2,0.3-4.4,0.4-6.6c0-0.4-0.2-1,0.8-1
			c0,0.4,0.1,0.9,0.1,1.3c0.1,1.7,0.2,3.5,0.3,5.2c0,0.8,0.2,1.3,0.9,1.7c0.9,0.5,1.7,1,2.6,1.6C278.5,297.7,278.3,298.1,278,298.5z
			"/>
		<path class="st0" d="M12.5,291.6c0.1-1.3,0.2-2.6,0.3-4c0-0.4,0-0.9,0.8-0.7c0.1,1.8,0.2,3.7,0.2,5.5
			C13.4,292.1,12.9,291.8,12.5,291.6z"/>
		<path class="st0" d="M281.6,115.4c0.6,0.5,0.3,0.7,0,1c-1.3,0.9-2.6,1.8-3.9,2.6c-1.5,0.8-2.1,1.9-2.1,3.6
			c0.1,1.7-0.2,3.5-0.3,5.2c-0.7,0.3-0.8-0.1-0.8-0.5c-0.1-1.7-0.2-3.3-0.3-5c0-0.3-0.1-0.6,0-1c0.1-0.8-0.3-1.3-1-1.7
			c-1.6-1-3.2-2.1-4.7-3.1c-0.3-0.2-0.8-0.4-0.4-1c0.3,0.1,0.6,0.1,0.8,0.3c1.7,0.8,3.5,1.7,5.2,2.6c0.7,0.3,1.2,0.3,1.8,0
			C277.7,117.3,279.6,116.4,281.6,115.4z"/>
		<path class="st0" d="M57.2,287c0.1,1.9,0.3,3.9,0.3,5.8c0,1.3,0.5,2.1,1.6,2.8c1.4,0.8,2.8,1.8,4.1,2.7c0.2,0.2,0.4,0.3,0.6,0.5
			c-0.1,0.7-0.5,0.6-0.9,0.4c-1.5-0.8-3.1-1.5-4.5-2.3c-1.1-0.7-2-0.7-3.2-0.1c-1.7,1-3.4,1.7-5.1,2.6c-0.5-0.3-0.6-0.6-0.1-0.8
			c0.7-0.5,1.5-1,2.2-1.5c1-0.7,2-1.3,3-2c0.6-0.3,0.8-0.8,0.8-1.4c0.1-2,0.2-3.9,0.4-5.9C56.4,287.3,56.3,286.8,57.2,287z"/>
		<path class="st0" d="M20,265.5c0.6,0.5,0.3,0.8,0,1c-1.4,0.9-2.8,1.8-4.1,2.7c-2.1,1.4-1.6,0.6-1.8,3.1c-0.1,1.8-0.3,3.7-0.4,5.5
			c-0.7,0.3-0.8-0.1-0.8-0.5c-0.1-1.7-0.2-3.3-0.3-5c0-0.3-0.1-0.6,0-1c0.1-0.8-0.3-1.3-1-1.7c-1.6-1-3.2-2.1-4.7-3.1
			c-0.3-0.2-0.8-0.4-0.4-1c0.3,0.1,0.6,0.1,0.8,0.3c1.7,0.8,3.4,1.6,5.1,2.5c0.7,0.4,1.3,0.3,2.1,0C16.2,267.3,18.1,266.4,20,265.5z
			"/>
		<path class="st0" d="M172.8,261.4c-0.3,0.8-0.7,0.5-1.1,0.3c-1.6-0.8-3.3-1.6-4.9-2.5c-0.8-0.5-1.5-0.4-2.3,0
			c-1.5,0.8-3.1,1.6-4.7,2.3c-0.3,0.2-0.7,0.3-0.9,0.4c-0.4-0.3-0.4-0.6,0-0.8c0.6-0.4,1.2-0.8,1.8-1.2c1-0.7,2-1.4,3.1-2
			c0.8-0.4,1.1-1,1.1-1.9c0.1-2.1,0.3-4.2,0.4-6.4c0.3,0,0.5,0,0.8,0c0.1,2.2,0.3,4.3,0.4,6.4c0,0.9,0.3,1.4,1.1,1.9
			C169.3,258.9,171,260.2,172.8,261.4z"/>
		<path class="st0" d="M35.8,89.4C35,89.7,35,89.2,35,88.8c-0.1-1.8-0.3-3.6-0.3-5.4c0-1.2-0.4-1.8-1.4-2.4
			c-1.5-0.9-2.9-1.9-4.4-2.9c-0.3-0.2-0.8-0.4-0.2-1c0.8,0.4,1.7,0.8,2.5,1.2c1.1,0.5,2.2,1,3.2,1.6c0.8,0.5,1.4,0.4,2.2,0
			c1.7-0.9,3.4-1.7,5.1-2.5c0.4-0.2,0.8-0.4,0.9,0.4c-1.6,1.1-3.2,2.2-4.9,3.2c-1.1,0.6-1.5,1.4-1.5,2.6c0,1.6-0.2,3.1-0.3,4.7
			C35.9,88.7,35.8,89.1,35.8,89.4z"/>
		<path class="st0" d="M78.6,98.6c0.7-0.3,0.7,0.1,0.8,0.6c0.1,1.7,0.3,3.5,0.3,5.2c0,1.2,0.5,2,1.5,2.7c1.4,0.8,2.8,1.8,4.1,2.7
			c0.3,0.2,0.5,0.4,0.7,0.6c-0.2,0.8-0.6,0.5-1,0.3c-1.4-0.7-2.8-1.4-4.2-2.1c-2.3-1.2-1.6-1.1-3.8-0.1c-1.5,0.7-2.9,1.4-4.3,2.1
			c-0.4,0.2-0.8,0.4-1-0.3c0.5-0.3,1-0.7,1.5-1.1c1.3-0.9,2.6-1.8,3.9-2.6c0.6-0.4,0.9-0.8,0.9-1.5c0.1-1.7,0.2-3.5,0.3-5.2
			C78.5,99.5,78.6,99,78.6,98.6z"/>
		<path class="st0" d="M223.8,299.2c0.5-0.3,1-0.7,1.5-1.1c1.3-0.8,2.5-1.7,3.8-2.5c0.7-0.4,1-0.9,1-1.8c0-1.7,0.2-3.4,0.3-5.1
			c0-0.5,0.1-0.9,0.1-1.3c0.7-0.3,0.7,0.2,0.8,0.6c0.1,1.7,0.3,3.5,0.3,5.2c0,1.2,0.5,2,1.5,2.7c1.4,0.8,2.8,1.8,4.1,2.8
			c0.3,0.2,0.5,0.4,0.7,0.6c-0.2,0.8-0.6,0.5-1,0.3c-1.5-0.7-3-1.4-4.4-2.3c-1.1-0.7-2.1-0.8-3.3-0.1c-1.5,0.9-3,1.5-4.6,2.3
			C224.4,299.7,224,300,223.8,299.2z"/>
		<path class="st0" d="M122.6,240.4c-0.8,0.3-0.8-0.2-0.8-0.6c-0.1-1.7-0.3-3.5-0.3-5.2c0-1.2-0.5-2-1.5-2.6
			c-1.5-0.8-2.9-1.9-4.3-2.8c-0.3-0.2-0.8-0.4-0.3-1c0.8,0.4,1.7,0.8,2.5,1.2c1.2,0.6,2.3,1.1,3.5,1.7c0.6,0.3,1.1,0.3,1.7,0
			c1.8-0.9,3.5-1.8,5.3-2.6c0.4-0.2,0.8-0.4,1,0.4c-1.5,1-3,2.1-4.7,3.1c-1.3,0.7-1.8,1.6-1.8,3.1
			C122.9,236.7,122.7,238.6,122.6,240.4z"/>
		<path class="st0" d="M216.5,186.1c-0.3,0.8-0.7,0.5-1,0.3c-1.4-0.7-2.9-1.3-4.3-2.2c-1.2-0.8-2.3-0.8-3.6,0
			c-1.4,0.9-3,1.5-4.4,2.2c-0.4,0.2-0.8,0.4-0.9-0.4c1.4-1,2.9-1.9,4.4-2.9c0.4-0.3,0.7-0.5,1.2-0.8c0.6-0.3,0.7-0.7,0.8-1.3
			c0.1-2,0.3-4,0.4-6.1c0-0.4,0.1-0.9,0.8-0.6c0.1,2.1,0.3,4.2,0.4,6.3c0,0.9,0.3,1.4,1.1,1.9C213,183.7,214.7,184.9,216.5,186.1z"
			/>
		<path class="st0" d="M151.5,40.3c-1.8,1.2-3.6,2.4-5.3,3.5c-0.7,0.4-1,0.9-1,1.8c-0.1,1.7-0.2,3.4-0.3,5.1c0,0.4-0.1,0.9-0.1,1.3
			c-0.7,0.3-0.7-0.2-0.8-0.6c-0.1-1.7-0.3-3.5-0.3-5.2c0-1.2-0.5-2-1.5-2.6c-1.5-0.8-2.9-1.9-4.3-2.8c-0.3-0.2-0.8-0.4-0.2-1.1
			c0.8,0.4,1.6,0.7,2.4,1.1c1.2,0.6,2.4,1.2,3.6,1.8c0.6,0.3,1.1,0.3,1.7,0c1.8-0.9,3.5-1.8,5.3-2.6C151,39.8,151.3,39.5,151.5,40.3
			z"/>
		<path class="st0" d="M181.1,73.5c-0.4-0.3-0.4-0.6,0-0.8c0.7-0.4,1.3-0.9,2-1.3c1-0.7,2.1-1.4,3.1-2c0.7-0.4,1-0.9,1-1.7
			c0.1-2.2,0.3-4.3,0.4-6.5c0.3,0,0.5,0,0.8,0c0.1,2.2,0.3,4.3,0.4,6.4c0,0.9,0.3,1.4,1.1,1.9c1.8,1.1,3.5,2.3,5.2,3.5
			c-0.1,0.8-0.5,0.6-0.9,0.4c-1.4-0.7-2.9-1.4-4.3-2.2c-1.3-0.8-2.4-0.9-3.7-0.1c-1.3,0.8-2.7,1.4-4.1,2
			C181.7,73.3,181.4,73.4,181.1,73.5z"/>
		<path class="st0" d="M93.7,224.1c-0.6-0.6-0.2-0.8,0.1-1c1.3-0.9,2.6-1.9,4-2.6c1.5-0.8,2-1.8,1.9-3.4c0-1.8,0.2-3.6,0.3-5.3
			c0.7-0.3,0.8,0.1,0.8,0.6c0.1,1.8,0.3,3.7,0.3,5.5c0,1,0.3,1.7,1.2,2.2c1.5,0.9,2.9,1.9,4.4,2.9c0.3,0.2,0.5,0.4,0.7,0.6
			c-0.2,0.7-0.6,0.5-0.9,0.3c-1.6-0.8-3.3-1.6-4.9-2.5c-0.9-0.5-1.6-0.5-2.4,0C97.4,222.3,95.6,223.2,93.7,224.1z"/>
		<path class="st0" d="M50.2,190.1c1.6,0.8,3.2,1.5,4.7,2.4c1.5,0.9,2.7,0.9,4.2,0c1.3-0.8,2.8-1.4,4.2-2.1c0.4-0.2,0.7-0.3,0.9,0.4
			c-0.5,0.3-1,0.7-1.5,1c-1.3,0.9-2.7,1.8-4,2.6c-0.6,0.4-0.8,0.8-0.8,1.5c-0.1,1.7-0.2,3.5-0.3,5.2c0,0.5-0.1,0.9-0.1,1.3
			c-0.7,0.3-0.7-0.1-0.8-0.6c-0.1-1.7-0.3-3.5-0.3-5.2c0-1.3-0.5-2.1-1.6-2.7c-1.5-0.8-2.8-1.9-4.3-2.8
			C50,191,49.7,190.8,50.2,190.1z"/>
		<path class="st0" d="M42.4,185.6c-0.3,0.7-0.6,0.6-1,0.4c-1.5-0.7-3-1.4-4.4-2.3c-1.2-0.7-2.2-0.8-3.4-0.1c-1.6,0.9-3.4,1.7-5,2.5
			c-0.5-0.3-0.6-0.6-0.1-0.8c0.7-0.5,1.4-0.9,2.1-1.4c1-0.7,2-1.4,3-2c0.7-0.4,0.9-0.9,1-1.7c0.1-2.2,0.3-4.3,0.4-6.4
			c0.6-0.3,0.8,0,0.8,0.5c0.1,1.7,0.3,3.5,0.3,5.2c0,1.3,0.5,2.1,1.6,2.8C39.2,183.4,40.8,184.5,42.4,185.6z"/>
		<path class="st0" d="M173.1,153.5c-1.8,1.2-3.6,2.4-5.4,3.6c-0.7,0.4-0.9,0.9-1,1.7c-0.1,2.2-0.3,4.3-0.4,6.4
			c-0.7,0.3-0.8-0.1-0.8-0.5c-0.1-1.7-0.3-3.5-0.3-5.2c0-1.3-0.5-2.1-1.6-2.7c-1.5-0.8-2.9-1.9-4.3-2.8c-0.3-0.2-0.7-0.4-0.3-0.9
			c0.3,0.1,0.6,0.1,0.8,0.3c1.7,0.8,3.3,1.6,4.9,2.5c0.8,0.5,1.5,0.4,2.3,0c1.7-0.9,3.4-1.7,5.1-2.5
			C172.6,152.8,172.9,152.8,173.1,153.5z"/>
		<path class="st0" d="M143.8,136.4c0.3,0,0.5,0.1,0.8,0.1c0.1,2.2,0.3,4.3,0.4,6.5c0,0.8,0.3,1.3,1,1.7c1.8,1.2,3.6,2.4,5.3,3.6
			c-0.1,0.8-0.5,0.6-0.9,0.4c-1.6-0.8-3.2-1.5-4.7-2.4c-1.1-0.6-2-0.6-3.1,0c-1.4,0.8-2.9,1.5-4.3,2.2c-0.3,0.2-0.7,0.3-0.9,0.4
			c-0.4-0.3-0.4-0.6,0-0.8c0.6-0.4,1.2-0.8,1.8-1.2c1-0.7,2-1.4,3.1-2c0.8-0.4,1.1-1,1.1-1.9C143.5,140.7,143.7,138.6,143.8,136.4z"
			/>
		<path class="st0" d="M246,78.2c0.3-0.7,0.7-0.3,1-0.2c1.5,0.7,3,1.4,4.4,2.2c1.1,0.6,2,0.7,3.2,0c1.3-0.8,2.8-1.4,4.2-2.1
			c0.4-0.2,0.7-0.3,1.1-0.5c0.5,0.5,0.1,0.8-0.2,1c-1.3,0.9-2.7,1.8-4,2.7c-2.1,1.4-1.7,0.6-1.9,3.3c-0.1,1.6-0.2,3.1-0.3,4.7
			c0,0.4,0.1,0.9-0.8,0.8c0-0.4-0.1-0.8-0.1-1.3c-0.1-1.7-0.2-3.5-0.3-5.2c0-0.8-0.3-1.3-0.9-1.7c-1.6-1-3.2-2.1-4.8-3.2
			C246.4,78.5,246.2,78.3,246,78.2z"/>
		<path class="st0" d="M107.1,299.5c-1.3-0.6-2.4-1.2-3.6-1.8c-0.7-0.3-1.3-0.6-2-1c-0.8-0.5-1.6-0.5-2.4,0c-1.4,0.8-3,1.5-4.4,2.2
			c-0.4,0.2-0.8,0.4-1.2,0.5c-0.5-0.7,0-0.8,0.3-1.1c1.4-0.9,2.8-1.8,4.1-2.7c0.5-0.3,1-0.7,1.5-1c0.1-2.2,0.3-4.4,0.4-6.6
			c0-0.4-0.2-1,0.7-1c0.1,0.3,0.1,0.7,0.2,1c0.1,1.7,0.3,3.3,0.3,5c0,1.3,0.5,2,1.6,2.6c1.5,0.9,2.9,1.9,4.3,2.8
			C107.2,298.7,107.5,298.8,107.1,299.5z"/>
		<path class="st0" d="M63.7,265.6c0.5,0.6,0,0.8-0.3,1c-1.4,0.9-2.8,1.8-4.1,2.7c-0.5,0.3-1,0.7-1.5,1c-0.1,2.2-0.3,4.4-0.4,6.6
			c0,0.4,0.1,1-0.9,1.1c0-0.3,0-0.6,0-0.9c-0.1-1.9-0.3-3.8-0.3-5.8c0-0.7-0.3-1.2-0.9-1.6c-1.5-1-3.1-2-4.6-3.1
			c-0.3-0.2-0.6-0.4-0.9-0.6c0.2-0.7,0.6-0.4,1-0.3c1.6,0.8,3.2,1.5,4.7,2.4c1,0.6,1.8,0.6,2.8,0c1.4-0.8,2.9-1.5,4.4-2.2
			C63,265.9,63.3,265.7,63.7,265.6z"/>
		<path class="st0" d="M41.8,261.6c-1.4-0.7-2.8-1.4-4.3-2.1c-2.4-1.3-2.4-1.3-4.9-0.1c-1.5,0.7-3,1.4-4.4,2.2
			c-0.5-0.6-0.2-0.8,0.2-1c1.4-0.9,2.8-1.8,4.1-2.7c0.5-0.4,1.1-0.7,1.6-1.1c0.1-2.2,0.3-4.4,0.4-6.6c0-0.4-0.1-1,0.8-1
			c0,0.4,0.1,0.9,0.1,1.3c0.1,1.7,0.3,3.4,0.3,5.1c0,0.9,0.4,1.5,1.2,2c1.6,1,3.1,2,4.6,3C41.9,260.8,42.4,261,41.8,261.6z"/>
		<path class="st0" d="M20.8,72.5c-0.3,0.8-0.7,0.5-1,0.3c-1.6-0.8-3.3-1.6-4.9-2.5c-0.8-0.4-1.5-0.5-2.3,0
			c-1.7,0.9-3.4,1.7-5.1,2.5c-0.4,0.2-0.8,0.4-1-0.4c1.4-0.9,2.8-2,4.3-2.8c1.6-0.8,2.2-2,2.1-3.7c0-1.7,0.2-3.5,0.3-5.1
			c0.8-0.3,0.8,0.2,0.8,0.6c0.1,1.8,0.3,3.7,0.3,5.5c0,1,0.3,1.6,1.2,2.1C17.4,70.1,19.1,71.3,20.8,72.5z"/>
		<path class="st0" d="M194.6,266.6c-1.4,0.9-2.8,2-4.3,2.8c-1.6,0.8-2.2,1.9-2.2,3.7c0.1,1.7-0.2,3.5-0.3,5.2
			c-0.8,0.3-0.8-0.2-0.8-0.6c-0.1-1.7-0.3-3.5-0.3-5.2c0-1.2-0.5-2-1.5-2.6c-1.5-0.9-2.9-1.9-4.3-2.8c-0.3-0.2-0.8-0.4-0.2-1
			c0.8,0.4,1.7,0.8,2.5,1.2c1.2,0.6,2.3,1.1,3.5,1.7c0.6,0.3,1.1,0.3,1.7,0c1.8-0.9,3.5-1.8,5.3-2.6
			C194,266,194.4,265.8,194.6,266.6z"/>
		<path class="st0" d="M115.6,2.5c0.4-0.8,0.8-0.4,1.1-0.2c1.6,0.8,3.1,1.5,4.7,2.4c0.9,0.5,1.7,0.6,2.7,0c1.4-0.8,2.9-1.5,4.3-2.2
			c0.4-0.2,0.8-0.4,1.2-0.5c0.5,0.6,0.1,0.8-0.2,1c-1.5,1-3,2.1-4.6,3c-0.8,0.5-1.2,1.1-1.2,2.1c0,1.8-0.2,3.7-0.3,5.5
			c0,0.4,0,0.9-0.8,0.8c0-0.4-0.1-0.9-0.1-1.3c-0.1-1.7-0.3-3.4-0.3-5.1c0-0.9-0.4-1.4-1.1-1.9c-1.5-1-3-2-4.5-3
			C116.1,2.9,115.9,2.7,115.6,2.5z"/>
		<path class="st0" d="M173,35.8c-1.2-0.6-2.4-1.2-3.6-1.8c-0.6-0.3-1.2-0.6-1.8-1c-0.9-0.5-1.7-0.6-2.7,0c-1.4,0.8-2.9,1.4-4.3,2.2
			c-0.4,0.2-0.8,0.4-1.2,0.5c-0.5-0.6-0.1-0.8,0.2-1c1.5-1,3-2.1,4.6-3c0.8-0.5,1.2-1.1,1.2-2.1c0-1.8,0.2-3.7,0.3-5.5
			c0-0.4,0-0.9,0.8-0.7c0,0.6,0.1,1.2,0.1,1.9c0.1,1.6,0.2,3.1,0.3,4.7c0,0.8,0.3,1.3,1,1.7c1.6,1,3.1,2.1,4.7,3.1
			C172.9,35,173.5,35.1,173,35.8z"/>
		<path class="st0" d="M195,39.7c-0.3,0.9-0.3,0.9-3,2.7c-1.1,0.7-2.1,1.4-3.3,2.2c-0.1,2.2-0.3,4.4-0.4,6.6c0,0.4,0.2,1-0.7,1
			c-0.1-0.3-0.2-0.7-0.2-1c-0.1-1.9-0.3-3.8-0.3-5.6c0-0.7-0.3-1.2-0.9-1.6c-1.5-1-3.1-2-4.6-3.1c-0.3-0.2-0.6-0.4-0.8-0.6
			c0.1-0.6,0.5-0.5,0.8-0.3c1.6,0.8,3.2,1.5,4.7,2.4c1.1,0.6,2,0.7,3.1,0c1.4-0.8,2.9-1.5,4.3-2.2C194.1,40.1,194.4,40,195,39.7z"/>
		<path class="st0" d="M224.5,73.6c-0.5-0.6,0-0.8,0.3-1c1.5-1,3-2.1,4.6-3c0.8-0.5,1.2-1,1.2-2c0-1.8,0.2-3.7,0.3-5.5
			c0-0.4-0.1-0.9,0.7-0.9c0.1,0.3,0.2,0.6,0.2,0.8c0.1,1.7,0.3,3.5,0.3,5.2c0,1.2,0.5,1.9,1.5,2.5c1.5,0.9,2.8,1.9,4.2,2.8
			c0.3,0.2,0.8,0.4,0.3,1c-1.1-0.5-2.2-1-3.3-1.6c-0.9-0.4-1.7-0.9-2.6-1.3c-0.7-0.4-1.3-0.3-1.9,0c-1.7,0.9-3.4,1.7-5.1,2.5
			C225.1,73.5,224.8,73.5,224.5,73.6z"/>
		<path class="st0" d="M224.3,190.6c1.9,0.9,3.8,1.8,5.6,2.8c0.9,0.5,1.6,0.5,2.4,0c1.6-0.9,3.3-1.6,4.9-2.5c0.4-0.2,0.8-0.4,1,0.4
			c-0.9,0.6-1.9,1.2-2.8,1.9c-1.2,0.8-2.3,1.6-3.5,2.5c-0.1,1.4-0.2,2.7-0.3,4.1c-0.1,1.1-0.2,2.2-0.2,3.2c-0.7,0.3-0.8-0.2-0.8-0.6
			c-0.1-1.8-0.3-3.6-0.3-5.4c0-1.1-0.4-1.9-1.4-2.4c-1.5-0.9-2.9-1.9-4.4-2.9C224.3,191.5,223.8,191.3,224.3,190.6z"/>
		<path class="st0" d="M79.5,14.2c-0.8,0.2-0.7-0.2-0.8-0.7c-0.1-1.8-0.3-3.6-0.3-5.4C78.4,7,78,6.3,77,5.7
			c-1.5-0.9-2.9-1.9-4.4-2.9c-0.3-0.2-0.8-0.4-0.2-1c0.8,0.4,1.7,0.8,2.5,1.2c1.1,0.5,2.2,1.1,3.3,1.7c0.7,0.4,1.3,0.3,1.9,0
			c1.7-0.9,3.5-1.7,5.2-2.6c0.4-0.2,0.8-0.4,0.9,0.4C85.2,3.2,84,4,82.8,4.8c-0.7,0.5-1.4,0.9-2.1,1.4C80.2,6.5,80,6.9,80,7.5
			c-0.1,1.8-0.2,3.6-0.3,5.4C79.6,13.3,79.5,13.8,79.5,14.2z"/>
		<path class="st0" d="M129.8,35.2c-0.3,0.7-0.6,0.5-1,0.3c-1.6-0.8-3.3-1.6-4.9-2.5c-0.9-0.5-1.6-0.5-2.4,0c-1.8,1-3.7,1.8-5.5,2.7
			c-0.6-0.4-0.4-0.7,0-1c1.1-0.7,2.2-1.5,3.3-2.2c0.8-0.6,1.9-1,2.4-1.8c0.4-0.7,0.2-1.9,0.3-2.8c0.1-1.5,0.2-3,0.3-4.5
			c0.7-0.3,0.8,0,0.8,0.5c0.1,1.8,0.3,3.6,0.3,5.4c0,1.2,0.4,1.9,1.4,2.4c1.5,0.9,2.8,1.9,4.2,2.8C129.3,34.7,129.5,35,129.8,35.2z"
			/>
		<path class="st0" d="M20.6,39.4c0.5,0.6,0,0.8-0.3,1c-1.3,0.9-2.7,1.8-4,2.7c-2,1.4-1.6,0.6-1.8,3.1c-0.1,1.6-0.2,3.2-0.3,4.8
			c0,0.4,0,0.8-0.7,0.7c-0.1-0.3-0.2-0.6-0.2-1c-0.1-1.9-0.3-3.8-0.3-5.6c0-0.7-0.3-1.2-0.9-1.6c-1.5-1-3.1-2-4.6-3.1
			c-0.3-0.2-0.6-0.4-0.8-0.6c0.1-0.6,0.5-0.5,0.8-0.3c1.6,0.8,3.2,1.5,4.7,2.4c1.1,0.6,2,0.7,3.1,0c1.4-0.8,2.9-1.5,4.3-2.2
			C19.9,39.6,20.3,39.5,20.6,39.4z"/>
		<path class="st0" d="M216.8,78.2c-1.8,1.2-3.6,2.4-5.4,3.6c-0.7,0.4-0.9,0.9-1,1.7c-0.1,2.2-0.3,4.3-0.4,6.4
			c-0.7,0.3-0.8-0.1-0.8-0.5c-0.1-1.7-0.2-3.3-0.3-5c0-0.3-0.1-0.6,0-1c0.1-0.8-0.3-1.3-1-1.7c-1.6-1-3.2-2.1-4.7-3.1
			c-0.3-0.2-0.8-0.4-0.4-1c0.3,0.1,0.6,0.1,0.8,0.3c1.7,0.8,3.4,1.6,5.1,2.5c0.7,0.4,1.3,0.3,2.1,0c1.7-0.9,3.5-1.7,5.2-2.6
			C216.2,77.6,216.6,77.5,216.8,78.2z"/>
		<path class="st0" d="M260.2,110.9c-0.4,0.8-0.8,0.4-1.1,0.2c-1.6-0.8-3.2-1.6-4.8-2.4c-0.9-0.5-1.6-0.5-2.4,0
			c-1.8,1-3.7,1.8-5.5,2.7c-0.6-0.4-0.3-0.7,0-1c1.3-0.9,2.6-1.9,4-2.6c1.5-0.8,2-1.8,1.9-3.4c0-1.8,0.2-3.6,0.3-5.3
			c0.7-0.3,0.8,0.1,0.8,0.6c0.1,1.8,0.3,3.7,0.3,5.5c0,1,0.4,1.7,1.2,2.2c1.5,0.9,2.9,1.9,4.4,2.9
			C259.7,110.5,259.9,110.7,260.2,110.9z"/>
		<path class="st0" d="M57.6,60.8c0.1,1.1,0.2,2.2,0.2,3.3c0.1,1.1,0.2,2.2,0.2,3.3c0,0.8,0.3,1.3,1,1.7c1.6,1,3.1,2.1,4.7,3.1
			c0.3,0.2,0.8,0.3,0.4,1c-1-0.5-2.1-1-3.1-1.5c-0.9-0.4-1.7-0.9-2.6-1.3c-0.7-0.4-1.4-0.4-2.2,0c-1.5,0.8-3,1.5-4.6,2.3
			c-0.4,0.2-0.8,0.4-1.2,0.5c-0.5-0.6-0.1-0.8,0.3-1c1.6-1,3.1-2.1,4.7-3.1c0.8-0.5,1-1,1.1-1.9c0.1-1.8,0.2-3.7,0.3-5.5
			C56.9,61.3,56.7,60.8,57.6,60.8z"/>
		<path class="st0" d="M85.8,77.2c0.5,0.6,0.1,0.8-0.3,1c-1.6,1-3.1,2.1-4.7,3.1c-0.8,0.5-1,1-1.1,1.9c-0.1,1.8-0.2,3.7-0.3,5.5
			c0,0.4,0.1,0.9-0.7,0.9c-0.1-0.3-0.2-0.5-0.2-0.8c-0.1-1.8-0.3-3.6-0.3-5.4c0-1.1-0.5-1.8-1.4-2.3c-1.5-0.9-2.9-1.9-4.4-2.9
			c-0.2-0.2-0.4-0.3-0.6-0.5c0.2-0.7,0.6-0.5,0.9-0.3c1.6,0.8,3.2,1.6,4.8,2.4c0.9,0.5,1.7,0.5,2.7,0c1.4-0.8,3-1.5,4.4-2.2
			C85.1,77.5,85.5,77.4,85.8,77.2z"/>
		<path class="st0" d="M122.9,98.6c0.1,1.9,0.4,3.7,0.3,5.4c-0.1,1.7,0.6,2.8,2.1,3.6c1.3,0.7,2.5,1.7,3.8,2.5
			c0.3,0.2,0.7,0.4,0.2,1c-1.1-0.6-2.3-1.1-3.5-1.7c-1.1-0.5-2.1-1.4-3.2-1.4c-1.1,0-2.2,0.9-3.2,1.4c-1,0.5-1.9,0.9-2.8,1.4
			c-0.3,0.1-0.6,0.2-0.8,0.3c-0.4-0.6,0.1-0.8,0.4-1c1.4-0.9,2.8-1.9,4.2-2.8c0.5-0.3,0.9-0.6,1.4-1c0.1-2.2,0.3-4.4,0.4-6.6
			C122.1,99.2,121.9,98.7,122.9,98.6z"/>
		<path class="st0" d="M143.9,127.5c0-0.4-0.1-0.9-0.1-1.3c-0.1-1.7-0.2-3.5-0.3-5.2c0-0.8-0.3-1.3-1-1.7c-1.5-1-3.1-2-4.6-3.1
			c-0.3-0.2-0.5-0.4-0.7-0.5c0.1-0.6,0.4-0.6,0.8-0.4c1.2,0.6,2.6,1.1,3.7,1.9c1.8,1.2,3.4,1.2,5.2,0c1.3-0.9,2.8-1.4,4.2-2.1
			c0.6,0.6,0.1,0.8-0.2,1c-1.6,1-3.1,2.1-4.7,3.1c-0.7,0.5-1.1,1-1.1,1.9c-0.1,1.9-0.2,3.8-0.3,5.6
			C144.6,127.1,144.7,127.6,143.9,127.5z"/>
		<path class="st0" d="M180.8,148.9c-0.4-0.6,0.1-0.8,0.4-1c1.4-0.9,2.8-1.9,4.2-2.8c0.5-0.3,0.9-0.6,1.4-1c0.1-2.2,0.3-4.4,0.4-6.6
			c0-0.4-0.2-1,0.7-1c0.1,0.3,0.2,0.6,0.2,0.9c0.1,1.9,0.3,3.8,0.3,5.8c0,0.7,0.3,1.2,0.9,1.6c1.6,1,3.2,2.1,4.8,3.2
			c0.3,0.2,0.8,0.4,0.3,1c-1.2-0.6-2.3-1.1-3.5-1.7c-1.1-0.5-2.1-1.4-3.2-1.4c-1.1,0-2.2,0.9-3.2,1.4c-1,0.5-1.9,0.9-2.8,1.4
			C181.4,148.7,181.1,148.8,180.8,148.9z"/>
		<path class="st0" d="M202.7,152.9c1.8,0.9,3.6,1.8,5.3,2.7c0.9,0.5,1.7,0.6,2.7,0c1.4-0.8,2.9-1.5,4.3-2.2
			c0.4-0.2,0.8-0.4,1.2-0.5c0.6,0.6,0.1,0.8-0.2,1c-1.5,1-3,2.1-4.6,3c-0.8,0.5-1.2,1.1-1.2,2.1c0,1.8-0.2,3.7-0.3,5.5
			c0,0.4,0,0.9-0.8,0.8c0-0.4-0.1-0.8-0.1-1.3c-0.1-1.7-0.2-3.5-0.3-5.2c0-0.8-0.3-1.3-0.9-1.7c-1.6-1-3.2-2.1-4.8-3.2
			C202.6,153.7,202.1,153.5,202.7,152.9z"/>
		<path class="st0" d="M230.6,278.5c0-0.4-0.1-0.8-0.1-1.3c-0.1-1.8-0.2-3.6-0.3-5.4c0-0.7-0.3-1.1-0.8-1.5
			c-1.7-1.1-3.3-2.2-4.9-3.3c-0.3-0.2-0.7-0.3-0.3-0.9c0.2,0.1,0.5,0.1,0.8,0.3c1.6,0.8,3.1,1.5,4.7,2.4c0.9,0.5,1.7,0.6,2.7,0
			c1.4-0.8,2.9-1.5,4.4-2.2c0.4-0.2,0.7-0.3,1.1-0.5c0.6,0.6,0.1,0.8-0.2,1c-1.5,1-3,2.1-4.6,3c-0.8,0.5-1.2,1.1-1.2,2.1
			c0,1.8-0.2,3.7-0.3,5.5C231.4,278.1,231.4,278.6,230.6,278.5z"/>
		<path class="st0" d="M216.3,261.5c-0.3,0.7-0.7,0.4-1,0.2c-1.6-0.8-3.1-1.5-4.7-2.4c-1-0.6-1.9-0.6-2.9,0
			c-1.3,0.8-2.8,1.4-4.2,2.1c-0.4,0.2-0.8,0.4-1.2,0.5c-0.5-0.6-0.1-0.8,0.3-1.1c1.5-1,3-2.1,4.6-3c0.9-0.5,1.2-1.1,1.2-2.1
			c0-1.8,0.2-3.6,0.3-5.4c0-0.4-0.1-0.9,0.9-1c0,0.3-0.1,0.6,0,0.9c0.1,1.8,0.3,3.7,0.3,5.5c0,1,0.4,1.6,1.2,2.1
			c1.4,0.9,2.8,1.9,4.2,2.8C215.8,261.1,216,261.3,216.3,261.5z"/>
		<path class="st0" d="M172.6,228.2c0.5,0.6,0,0.8-0.3,1c-1.4,0.9-2.8,1.8-4.1,2.7c-0.5,0.3-1,0.7-1.5,1c-0.1,2.2-0.3,4.4-0.4,6.6
			c0,0.4,0.2,1-0.9,1.1c0-0.3,0-0.6,0-0.9c-0.1-1.9-0.3-3.8-0.3-5.8c0-0.7-0.3-1.2-0.9-1.6c-1.5-1-3.1-2-4.6-3.1
			c-0.3-0.2-0.6-0.4-0.8-0.6c0.1-0.6,0.5-0.5,0.8-0.3c1.6,0.8,3.2,1.5,4.7,2.4c1.1,0.6,2,0.7,3.1,0c1.4-0.8,2.9-1.5,4.3-2.2
			C171.9,228.5,172.3,228.4,172.6,228.2z"/>
		<path class="st0" d="M150.8,224.2c-1.3-0.6-2.5-1.2-3.6-1.8c-0.7-0.3-1.3-0.6-2-1c-0.8-0.5-1.6-0.5-2.4,0c-1.4,0.8-3,1.5-4.4,2.2
			c-0.4,0.2-0.8,0.4-1.2,0.5c-0.5-0.6-0.1-0.8,0.3-1c1.6-1,3.1-2.1,4.7-3.1c0.8-0.5,1-1,1.1-1.9c0.1-1.8,0.2-3.7,0.3-5.5
			c0-0.4-0.1-0.9,0.7-0.9c0.1,0.3,0.2,0.5,0.2,0.8c0.1,1.9,0.3,3.8,0.3,5.6c0,0.9,0.4,1.4,1.1,1.9c1.6,1,3.1,2,4.6,3
			C150.8,223.4,151.2,223.5,150.8,224.2z"/>
		<path class="st0" d="M100.2,202.7c0-0.4-0.1-0.9-0.1-1.3c-0.1-1.7-0.3-3.4-0.3-5.1c0-0.9-0.4-1.4-1.1-1.9c-1.5-1-3-2-4.5-3
			c-0.3-0.2-0.5-0.4-0.7-0.5c0.1-0.6,0.4-0.6,0.8-0.4c1.2,0.6,2.6,1.1,3.7,1.9c1.8,1.2,3.4,1.2,5.2,0c1.3-0.9,2.8-1.4,4.2-2.1
			c0.6,0.6,0.1,0.8-0.2,1c-1.5,1-3,2.1-4.6,3c-0.8,0.5-1.2,1.1-1.2,2.1c0,1.8-0.2,3.7-0.3,5.5C100.9,202.4,101,202.8,100.2,202.7z"
			/>
		<path class="st0" d="M71.9,186.3c-0.5-0.6,0-0.8,0.3-1c1.5-1,3-2.1,4.6-3c0.8-0.5,1.2-1,1.2-2c0-1.8,0.2-3.7,0.3-5.5
			c0-0.4-0.1-0.9,0.7-0.9c0.1,0.3,0.2,0.6,0.2,0.8c0.1,1.7,0.3,3.5,0.3,5.2c0,1.2,0.5,1.9,1.5,2.5c1.5,0.9,2.8,1.9,4.2,2.8
			c0.3,0.2,0.8,0.4,0.3,1c-1.1-0.5-2.2-1-3.3-1.6c-0.9-0.4-1.7-0.9-2.6-1.3c-0.7-0.4-1.3-0.3-1.9,0c-1.7,0.9-3.4,1.7-5.1,2.5
			C72.5,186.1,72.2,186.2,71.9,186.3z"/>
		<path class="st0" d="M36.2,157.3c-0.1,2.2-0.3,4.4-0.4,6.6c0,0.4,0.2,1-0.7,1c-0.1-0.3-0.2-0.6-0.2-0.9c-0.1-1.9-0.3-3.8-0.3-5.6
			c0-0.8-0.3-1.4-1-1.8c-1.5-1-3-2-4.5-3c-0.3-0.2-0.6-0.4-0.8-0.6c0.2-0.7,0.6-0.4,1-0.3c1.6,0.8,3.2,1.6,4.8,2.4
			c0.9,0.5,1.6,0.6,2.6,0c1.5-0.8,3-1.5,4.6-2.3c0.4-0.2,0.7-0.3,1.1-0.4c0.5,0.6,0,0.8-0.3,1c-1.4,0.9-2.8,1.8-4.1,2.7
			C37.2,156.6,36.7,156.9,36.2,157.3z"/>
		<path class="st0" d="M281.5,190.8c0.6,0.6,0.1,0.8-0.2,1c-1.5,1-3,2.1-4.6,3c-0.8,0.5-1.2,1.1-1.2,2.1c0,1.8-0.2,3.7-0.3,5.5
			c0,0.4,0,0.9-0.8,0.7c0-0.4-0.1-0.9-0.1-1.3c-0.1-1.7-0.3-3.4-0.3-5.1c0-0.9-0.4-1.4-1.1-1.9c-1.5-1-3-2-4.5-3
			c-0.3-0.2-0.5-0.4-0.7-0.5c0.1-0.6,0.4-0.6,0.8-0.4c1.2,0.6,2.6,1.1,3.7,1.9c1.8,1.2,3.4,1.2,5.2,0
			C278.6,192.1,280.1,191.5,281.5,190.8z"/>
		<path class="st0" d="M13.9,136.1c0,0.5,0.1,1.1,0.1,1.7c0.1,1.6,0.2,3.2,0.3,4.8c0,0.8,0.3,1.3,1,1.7c1.6,1,3.1,2.1,4.7,3.1
			c0.3,0.2,0.8,0.4,0.5,1c-0.3-0.1-0.6-0.2-0.9-0.3c-1.6-0.8-3.1-1.5-4.7-2.4c-0.9-0.5-1.7-0.6-2.7,0c-1.4,0.8-2.9,1.5-4.3,2.2
			c-0.4,0.2-0.8,0.4-1.2,0.5c-0.5-0.6-0.1-0.8,0.2-1c1.5-1,3-2.1,4.6-3c0.8-0.5,1.2-1.1,1.2-2.1c0-1.8,0.2-3.7,0.3-5.5
			C13.2,136.4,13.1,135.9,13.9,136.1z"/>
		<path class="st0" d="M101,127.3c-0.8,0.3-0.8-0.2-0.8-0.6c-0.1-1.8-0.3-3.6-0.3-5.4c0-1.1-0.4-1.8-1.4-2.4
			c-1.5-0.9-2.9-1.9-4.4-2.9c-0.3-0.2-0.8-0.4-0.2-1.1c0.8,0.4,1.7,0.8,2.6,1.2c1.1,0.5,2.2,1.1,3.3,1.7c0.7,0.4,1.3,0.3,1.9,0
			c1.7-0.9,3.5-1.7,5.2-2.6c0.4-0.2,0.8-0.4,1,0.4c-1.5,1-3,2-4.5,3c-2.2,1.5-1.7,0.7-1.9,3.2C101.3,123.7,101.2,125.5,101,127.3z"
			/>
		<path class="st0" d="M246,186.8c-0.4-0.7,0.1-0.9,0.4-1.1c1.5-1,2.9-1.9,4.4-2.9c0.4-0.3,0.8-0.6,1.3-0.9c0.1-2.2,0.3-4.4,0.4-6.6
			c0-0.4-0.1-1,0.8-0.9c0,0.4,0.1,0.9,0.1,1.3c0.1,1.6,0.3,3.3,0.3,4.9c0,1.1,0.4,1.7,1.3,2.2c1.5,0.9,2.9,1.9,4.4,2.9
			c0.3,0.2,0.8,0.3,0.5,1c-0.3-0.1-0.6-0.1-0.8-0.3c-1.7-0.8-3.4-1.7-5-2.5c-0.7-0.4-1.3-0.4-2.1,0c-1.5,0.8-3,1.5-4.6,2.3
			C246.9,186.4,246.5,186.6,246,186.8z"/>
		<path class="st0" d="M267.8,224.5c-0.6-0.5-0.1-0.8,0.2-1c1.5-1,3-2.1,4.6-3c0.8-0.5,1.2-1.1,1.2-2.1c0.1-2.1,0.3-4.1,0.4-6.3
			c0.3,0,0.5,0,0.8,0c0.1,2.2,0.3,4.3,0.4,6.4c0,0.9,0.3,1.4,1.1,1.9c1.8,1.1,3.5,2.3,5.2,3.5c-0.1,0.8-0.5,0.6-0.9,0.4
			c-1.6-0.8-3.2-1.5-4.7-2.4c-1.1-0.6-2-0.6-3.1,0c-1.4,0.8-2.9,1.5-4.3,2.2C268.4,224.3,268.1,224.4,267.8,224.5z"/>
		<path class="st0" d="M216.5,35.9c-0.4-0.2-0.9-0.4-1.3-0.6c-1.5-0.7-3.1-1.5-4.6-2.3c-0.7-0.4-1.2-0.3-1.9,0
			c-1.9,1-3.9,1.9-5.7,2.8c-0.6-0.5-0.3-0.7,0.1-1c1.3-0.9,2.6-1.9,4-2.6c1.4-0.7,2-1.7,1.9-3.3c0-1.6,0.2-3.2,0.3-4.8
			c0-0.4,0-0.9,0.8-0.6c0.1,1.1,0.2,2.2,0.2,3.3c0.1,1,0.2,2,0.2,3c0,0.9,0.4,1.4,1.1,1.9c1.5,0.9,3,2,4.5,3
			C216.4,35,217,35.2,216.5,35.9z"/>
		<path class="st0" d="M224.3,40.4c0.5-0.7,0.9-0.3,1.2-0.2c1.6,0.8,3.3,1.6,4.9,2.5c0.7,0.4,1.3,0.4,2,0c1.7-0.9,3.5-1.7,5.2-2.6
			c0.4-0.2,0.8-0.4,0.9,0.4c-1.6,1.1-3.2,2.2-4.9,3.2c-1.1,0.6-1.5,1.4-1.5,2.6c0,1.7-0.2,3.5-0.3,5.2c0,0.4-0.1,0.9-0.8,0.6
			c-0.1-1.9-0.3-3.9-0.3-5.8c0-1.1-0.3-2-1.4-2.6c-1.3-0.7-2.5-1.7-3.8-2.5C225.1,41.1,224.7,40.8,224.3,40.4z"/>
		<path class="st0" d="M122.1,89.7c-0.1-2.1-0.3-4.3-0.4-6.5c0-0.8-0.3-1.3-1-1.7c-1.4-0.9-2.8-1.9-4.2-2.8
			c-0.4-0.3-0.8-0.6-1.2-0.9c0.4-0.8,0.9-0.3,1.2-0.2c1.6,0.8,3.2,1.6,4.8,2.4c0.8,0.4,1.4,0.4,2.2,0c1.9-1,3.8-1.9,5.6-2.8
			c0.5,0.3,0.5,0.6,0.1,0.9c-1,0.7-2,1.3-3,2c-1,0.7-2.3,1.2-2.8,2.1c-0.5,0.9-0.3,2.2-0.4,3.4c-0.1,1.2-0.2,2.4-0.2,3.6
			C122.9,89.6,122.7,89.8,122.1,89.7z"/>
		<path class="st0" d="M194.5,115.2c0.6,0.5,0.3,0.8-0.1,1c-1.1,0.7-2.2,1.5-3.3,2.2c-0.8,0.6-1.9,1-2.4,1.8
			c-0.4,0.7-0.3,1.9-0.3,2.8c-0.1,1.3-0.2,2.7-0.3,4c0,0.4-0.1,0.8-0.8,0.6c0-0.2-0.1-0.5-0.1-0.8c-0.1-1.9-0.3-3.9-0.3-5.8
			c0-0.7-0.3-1.1-0.8-1.4c-1.5-0.9-2.9-1.9-4.4-2.9c-0.4-0.3-0.8-0.6-1.1-0.9c0.5-0.8,0.9-0.3,1.2-0.2c1.6,0.8,3.2,1.6,4.8,2.4
			c0.8,0.4,1.4,0.4,2.2,0C190.7,117,192.6,116.1,194.5,115.2z"/>
		<path class="st0" d="M274.1,278.5c-0.1-2-0.3-4.1-0.4-6.1c0-1-0.3-1.6-1.2-2.1c-1.4-0.8-2.7-1.8-4-2.7c-0.4-0.3-0.8-0.6-1.2-0.9
			c0.4-0.8,0.8-0.4,1.2-0.2c1.5,0.7,3,1.4,4.4,2.2c1.1,0.7,2,0.6,3,0c1.5-0.9,3.1-1.6,4.7-2.3c0.3-0.2,0.7-0.4,0.9,0.3
			c-0.2,0.2-0.4,0.4-0.6,0.6c-1.4,0.9-2.8,2-4.3,2.8c-1.1,0.6-1.5,1.4-1.5,2.6c0,1.7-0.2,3.5-0.3,5.2
			C274.9,278.4,274.8,278.8,274.1,278.5z"/>
		<path class="st0" d="M6.4,115.2c0.6-0.7,0.9-0.3,1.3-0.1c1.6,0.8,3.2,1.6,4.8,2.4c0.8,0.4,1.4,0.5,2.2,0c1.9-1,3.8-1.9,5.6-2.8
			c0.5,0.3,0.6,0.6,0.1,0.9c-0.7,0.5-1.4,0.9-2.1,1.4c-1,0.7-2,1.4-3,2c-0.7,0.4-1,0.9-1,1.7c-0.1,1.9-0.2,3.9-0.4,5.8
			c0,0.4,0.1,0.9-0.7,0.7c0-0.3-0.1-0.5-0.1-0.8c-0.1-1.9-0.3-3.8-0.3-5.6c0-0.8-0.3-1.3-0.9-1.7c-1.4-0.9-2.8-1.9-4.2-2.8
			C7.2,115.8,6.8,115.5,6.4,115.2z"/>
		<path class="st0" d="M63.9,148.6c-0.7-0.3-1.3-0.6-1.9-0.9c-1.3-0.6-2.7-1.3-3.9-2c-0.7-0.4-1.3-0.4-2,0c-1.9,1-3.8,1.9-5.7,2.8
			c-0.6-0.4-0.4-0.6,0-0.9c1.4-0.9,2.8-2,4.3-2.8c1.2-0.7,1.8-1.5,1.7-2.9c0-1.5,0.2-3,0.3-4.5c0-0.4,0.1-0.8,0.1-1.2
			c0.5-0.2,0.7,0,0.7,0.4c0.1,0.9,0.1,1.8,0.2,2.8c0.1,1.1,0.2,2.2,0.2,3.3c0,0.8,0.4,1.3,1,1.8c1.5,0.9,3,2,4.5,3
			C63.7,147.6,64.3,147.8,63.9,148.6z"/>
		<path class="st0" d="M13.8,211.5c0.1,1.1,0.2,2.2,0.2,3.3c0.1,1,0.2,2,0.2,3c0,0.9,0.4,1.4,1.1,1.9c1.5,0.9,3,2,4.5,3
			c0.3,0.2,0.9,0.4,0.4,1.1c-0.4-0.2-0.9-0.4-1.3-0.6c-1.5-0.7-3.1-1.5-4.6-2.3c-0.7-0.4-1.3-0.3-1.9,0c-1.9,1-3.9,1.9-5.7,2.8
			c-0.6-0.5-0.3-0.7,0.1-1c1.3-0.9,2.7-1.8,4-2.7c2.2-1.5,1.7-0.7,1.9-3.2c0.1-1.6,0.2-3.2,0.3-4.8C13,211.8,13,211.2,13.8,211.5z"
			/>
		<path class="st0" d="M99.9,278c-0.1-1.9-0.3-3.9-0.3-5.8c0-1.1-0.3-2-1.4-2.6c-1.3-0.7-2.5-1.7-3.8-2.5c-0.4-0.3-0.8-0.6-1.2-0.9
			c0.3-0.7,0.7-0.5,1-0.3c1.6,0.8,3.3,1.6,4.9,2.5c0.8,0.5,1.5,0.4,2.3,0c1.5-0.8,3-1.5,4.6-2.3c0.4-0.2,0.7-0.3,1.1-0.5
			c0.6,0.5,0.2,0.8-0.2,1c-1.5,1-3,2.1-4.6,3c-0.9,0.5-1.2,1.2-1.3,2.2c0,1.8-0.2,3.7-0.3,5.5C100.7,277.9,100.7,278.3,99.9,278z"/>
		<path class="st0" d="M246,2.9c0.6-0.7,1-0.3,1.3-0.1c1.6,0.8,3.2,1.6,4.8,2.4c0.7,0.4,1.3,0.4,2,0c1.7-0.9,3.5-1.7,5.2-2.6
			c0.4-0.2,0.8-0.4,1,0.4c-1.5,1-3,2.2-4.7,3.1c-1.3,0.7-1.8,1.6-1.8,3.1c0,1.6-0.2,3.3-0.3,4.9c0,0.4-0.1,0.9-0.8,0.6
			c-0.1-1.3-0.2-2.7-0.3-4.1c0-0.6-0.1-1.3-0.1-1.9c0.1-1.1-0.4-1.9-1.4-2.4c-1.3-0.7-2.5-1.7-3.8-2.5C246.9,3.6,246.5,3.3,246,2.9z
			"/>
		<path class="st0" d="M143.6,202.8c-0.1-2.2-0.3-4.3-0.4-6.5c0-0.7-0.3-1.2-0.9-1.6c-1.4-0.9-2.8-1.8-4.1-2.7
			c-0.4-0.3-0.9-0.6-1.3-0.9c0.3-0.7,0.6-0.5,1-0.3c1.6,0.8,3.3,1.6,4.9,2.5c0.8,0.4,1.5,0.5,2.3,0c1.7-0.9,3.4-1.7,5.1-2.5
			c0.4-0.2,0.8-0.4,1,0.4c-1.3,0.9-2.6,1.9-4,2.6c-1.8,0.9-2.7,2.3-2.5,4.3c0.1,1.4-0.2,2.8-0.2,4.3
			C144.4,202.7,144.3,203,143.6,202.8z"/>
		<path class="st0" d="M230.9,136.7c0.8,0,0.7,0.4,0.7,0.8c0.1,1.8,0.3,3.6,0.3,5.4c0,1.2,0.5,1.8,1.4,2.4c1.5,0.9,2.8,1.9,4.3,2.8
			c0.3,0.2,0.8,0.4,0.4,1.1c-0.3-0.1-0.7-0.2-1.1-0.4c-1.6-0.8-3.2-1.5-4.7-2.4c-0.8-0.5-1.5-0.4-2.3,0c-1.8,1-3.7,1.8-5.5,2.7
			c-0.6-0.4-0.4-0.7,0-0.9c1.5-1,3-2.1,4.6-3c0.9-0.5,1.4-1.2,1.4-2.3c0-1.6,0.2-3.2,0.3-4.8C230.8,137.5,230.9,137.1,230.9,136.7z"
			/>
		<path class="st0" d="M159.2,111.2c-0.5-0.5-0.2-0.7,0.1-0.9c1.1-0.7,2.2-1.5,3.3-2.2c0.8-0.6,1.9-1,2.4-1.8
			c0.4-0.7,0.2-1.9,0.3-2.8c0.1-1.3,0.2-2.7,0.3-4c0-0.4,0-0.8,0.8-0.6c0,0.5,0.1,1.1,0.1,1.7c0.1,1.6,0.2,3.2,0.3,4.8
			c0,0.8,0.3,1.3,1,1.7c1.6,1,3.1,2,4.6,3c0.3,0.2,0.9,0.4,0.5,1.2c-0.4-0.2-0.8-0.3-1.2-0.5c-1.4-0.7-2.9-1.4-4.3-2.2
			c-1-0.6-1.8-0.5-2.8,0c-1.6,0.9-3.4,1.7-5.1,2.5C159.4,111.1,159.3,111.1,159.2,111.2z"/>
		<path class="st0" d="M107.6,73.3c-0.5-0.2-0.9-0.4-1.3-0.6c-1.6-0.8-3.1-1.5-4.7-2.4c-0.6-0.3-1.1-0.3-1.7,0c-2,1-3.9,2-5.9,2.9
			c-0.1-0.2-0.2-0.4-0.4-0.6c0.7-0.5,1.4-1,2.1-1.5c1.1-0.7,2.2-1.5,3.3-2.2c0.7-0.4,0.9-0.9,0.9-1.7c0.1-1.9,0.2-3.9,0.4-5.8
			c0-0.4,0-0.9,0.8-0.7c0,0.7,0.1,1.4,0.1,2.1c0.1,1.5,0.2,2.9,0.2,4.4c0,0.8,0.3,1.3,1,1.7c1.6,1,3.1,2,4.6,3
			C107.5,72.4,108.1,72.6,107.6,73.3z"/>
		<path class="st0" d="M42.4,35.5c-0.4-0.2-0.9-0.4-1.3-0.6c-1.5-0.7-3-1.4-4.4-2.2c-0.8-0.4-1.4-0.4-2.2,0c-1.9,1-3.8,1.9-5.6,2.8
			c-0.5-0.4-0.4-0.6,0-0.9c1-0.7,2.1-1.4,3.1-2.1c0.6-0.4,1.1-0.8,1.7-1.1c0.8-0.4,1.2-1,1.2-2c0-1.7,0.2-3.3,0.3-5
			c0-0.4,0.1-0.9,0.1-1.3c0.7-0.3,0.8,0.2,0.8,0.6c0.1,1.7,0.2,3.3,0.3,5c0.2,2.4-0.2,1.8,1.7,3c1.3,0.9,2.7,1.8,4,2.7
			C42.4,34.6,42.8,34.8,42.4,35.5z"/>
		<path class="st0" d="M275.3,61.5c0.1,2.2,0.3,4.4,0.4,6.5c0,0.8,0.3,1.2,1,1.7c1.6,1,3.1,2,4.6,3c0.4,0.2,0.9,0.4,0.5,1.2
			c-0.5-0.2-0.9-0.4-1.4-0.6c-1.6-0.8-3.1-1.5-4.7-2.3c-0.6-0.3-1.1-0.3-1.7,0c-2,1-3.9,2-5.9,2.9c-0.1-0.2-0.2-0.4-0.4-0.6
			c0.8-0.5,1.5-1,2.3-1.5c1.1-0.7,2.1-1.5,3.2-2.1c0.7-0.4,0.9-0.9,0.9-1.7c0.1-1.9,0.2-3.9,0.4-5.8
			C274.5,61.7,274.5,61.3,275.3,61.5z"/>
		<path class="st0" d="M165.8,14.4c-0.1-2.2-0.3-4.3-0.4-6.5c0-0.8-0.3-1.2-1-1.7c-1.4-0.9-2.8-1.9-4.2-2.8
			c-0.4-0.3-0.8-0.6-1.1-0.9c0.5-0.8,0.9-0.3,1.3-0.1c1.6,0.8,3.2,1.6,4.8,2.4c0.8,0.4,1.4,0.4,2.2,0c1.9-1,3.8-1.9,5.6-2.8
			c0.6,0.4,0.4,0.7,0,1c-1.3,0.9-2.6,1.9-4,2.6c-1.4,0.8-2,1.8-2,3.4c0,1.6-0.2,3.2-0.3,4.8C166.6,14.3,166.5,14.6,165.8,14.4z"/>
		<path class="st0" d="M86,153.2c-1.6,1.1-3.2,2.2-4.9,3.2c-1.1,0.6-1.5,1.4-1.5,2.6c0,1.7-0.2,3.5-0.3,5.2c0,0.4-0.1,0.9-0.8,0.6
			c-0.1-2-0.3-4-0.3-6c0-1-0.3-1.8-1.3-2.3c-1.4-0.8-2.6-1.7-3.9-2.6c-0.4-0.3-0.8-0.6-1.2-0.9c0.3-0.7,0.7-0.5,1.1-0.3
			c1.6,0.8,3.3,1.6,4.9,2.5c0.8,0.5,1.5,0.4,2.3,0c1.7-0.9,3.4-1.7,5.1-2.5C85.4,152.6,85.8,152.4,86,153.2z"/>
		<path class="st0" d="M122.7,174.1c0.1,2.2,0.3,4.4,0.4,6.5c0,0.8,0.3,1.3,1,1.7c1.6,1,3.1,2,4.6,3c0.3,0.2,0.9,0.4,0.5,1.1
			c-0.4-0.2-0.9-0.4-1.3-0.6c-1.6-0.8-3.1-1.5-4.7-2.3c-0.6-0.3-1.1-0.3-1.7,0c-2,1-3.9,2-5.9,2.9c-0.6-0.4-0.4-0.7,0.1-1
			c1.5-1,2.9-2,4.4-2.9c1.1-0.6,1.6-1.5,1.6-2.7c0-1.7,0.2-3.4,0.3-5.1C121.9,174.4,121.9,173.9,122.7,174.1z"/>
		<path class="st0" d="M78.3,249.4c0.8-0.3,0.7,0.2,0.8,0.6c0.1,1.8,0.3,3.7,0.3,5.5c0,1,0.4,1.7,1.3,2.2c1.5,0.9,2.9,1.9,4.4,2.9
			c0.3,0.2,0.8,0.4,0.5,1.1c-0.4-0.1-0.8-0.3-1.2-0.5c-1.6-0.8-3.2-1.6-4.8-2.4c-0.6-0.3-1.2-0.3-1.8,0c-1.9,1-3.9,1.9-5.8,2.9
			c-0.7-0.4-0.3-0.7,0.1-1c1.5-1,3-2,4.5-2.9c1-0.6,1.4-1.3,1.4-2.4c0-1.6,0.2-3.2,0.3-4.8C78.2,250.1,78.3,249.7,78.3,249.4z"/>
		<path class="st0" d="M180.8,224.3c-0.6-0.5-0.2-0.8,0.1-1c1.3-0.9,2.6-1.8,3.9-2.5c1.5-0.8,2.1-1.9,2.1-3.6
			c-0.1-1.6,0.2-3.1,0.3-4.7c0-0.4,0.1-0.8,0.8-0.5c0.1,0.8,0.1,1.7,0.2,2.6c0.1,1.3,0.2,2.7,0.2,4c0,0.7,0.3,1.1,0.8,1.4
			c1.6,1,3.2,2.1,4.7,3.1c0.3,0.2,0.9,0.4,0.5,1.2c-0.4-0.2-0.9-0.4-1.3-0.6c-1.5-0.7-3.1-1.5-4.6-2.3c-0.7-0.4-1.2-0.4-1.9,0
			C184.7,222.5,182.7,223.4,180.8,224.3z"/>
		<path class="st0" d="M208.9,240.7c-0.1-2.2-0.3-4.3-0.4-6.5c0-0.8-0.3-1.3-1-1.7c-1.4-0.9-2.8-1.9-4.2-2.8
			c-0.4-0.3-0.8-0.6-1.2-0.9c0.4-0.8,0.9-0.3,1.2-0.2c1.6,0.8,3.2,1.6,4.8,2.4c0.8,0.4,1.4,0.4,2.2,0c1.9-1,3.8-1.9,5.6-2.8
			c0.5,0.3,0.5,0.6,0.1,0.9c-1,0.7-2,1.3-3,2c-1,0.7-2.3,1.2-2.8,2.1c-0.5,0.9-0.3,2.2-0.4,3.4c-0.1,1.2-0.2,2.4-0.2,3.6
			C209.6,240.6,209.5,240.8,208.9,240.7z"/>
		<path class="st0" d="M259.6,262.2c-0.4-0.2-0.9-0.4-1.3-0.6c-1.6-0.8-3.1-1.5-4.7-2.3c-0.6-0.3-1.1-0.3-1.7,0c-2,1-3.9,2-5.9,2.9
			c-0.6-0.4-0.3-0.7,0.1-1c1.5-1,2.9-2,4.4-2.9c1.1-0.6,1.6-1.5,1.6-2.7c0-1.7,0.2-3.4,0.3-5.1c0-0.4,0-0.9,0.8-0.7
			c0,0.7,0.1,1.4,0.1,2.1c0.1,1.5,0.2,3,0.3,4.5c0,0.7,0.3,1.1,0.9,1.4c1.6,1,3.2,2.1,4.7,3.1C259.5,261.3,260.1,261.4,259.6,262.2z
			"/>
		<path class="st0" d="M50.2,40c0.3-0.7,0.7-0.4,1.1-0.3c1.5,0.7,3,1.4,4.4,2.3c1.1,0.7,2,0.7,3.2,0.1c1.5-0.9,3.1-1.6,4.7-2.3
			c0.3-0.2,0.7-0.4,0.9,0.3c-0.2,0.2-0.4,0.4-0.6,0.6c-1.4,0.9-2.7,1.9-4.2,2.7c-1.2,0.7-1.6,1.6-1.6,2.9c0,1.7-0.2,3.4-0.3,5.1
			c0,0.5-0.1,0.9-0.8,0.6c-0.1-2.1-0.3-4.2-0.4-6.3c0-0.9-0.3-1.4-1.1-1.9c-1.4-0.8-2.8-1.8-4.1-2.7C50.9,40.6,50.6,40.3,50.2,40z"
			/>
		<path class="st0" d="M28,228.4c0.4-0.8,0.8-0.4,1.2-0.2c1.6,0.8,3.2,1.5,4.7,2.4c0.8,0.5,1.6,0.5,2.4,0c1.6-0.9,3.3-1.7,4.9-2.5
			c0.3-0.2,0.7-0.5,1,0.2c-0.2,0.2-0.4,0.4-0.7,0.6c-1.5,1-3,2-4.5,3c-0.8,0.5-1.2,1.1-1.2,2.1c0,1.9-0.2,3.8-0.3,5.6
			c0,0.5-0.1,0.9-0.8,0.5c-0.1-2.1-0.3-4.2-0.4-6.3c0-0.9-0.3-1.4-1.1-1.9c-1.4-0.8-2.8-1.8-4.1-2.7C28.8,229,28.4,228.7,28,228.4z"
			/>
		<path class="st0" d="M252.6,165.4c-0.1-2.2-0.3-4.3-0.4-6.5c0-0.8-0.3-1.3-1-1.7c-1.4-0.9-2.8-1.9-4.2-2.8
			c-0.4-0.3-0.8-0.6-1.1-0.9c0.5-0.8,0.9-0.3,1.2-0.2c1.6,0.8,3.2,1.6,4.8,2.4c0.8,0.4,1.4,0.4,2.2,0c1.9-1,3.8-1.9,5.6-2.8
			c0.6,0.4,0.4,0.7,0,0.9c-1.1,0.7-2.2,1.5-3.3,2.2c-0.8,0.6-1.9,1-2.4,1.8c-0.4,0.7-0.3,1.9-0.3,2.8c-0.1,1.3-0.2,2.7-0.3,4
			C253.4,165.2,253.3,165.6,252.6,165.4z"/>
		<path class="st0" d="M150.7,299.6c-0.4-0.2-0.9-0.4-1.3-0.6c-1.5-0.7-3-1.4-4.4-2.2c-0.8-0.4-1.4-0.4-2.2,0
			c-1.9,1-3.8,1.9-5.6,2.8c-0.6-0.5-0.3-0.7,0.1-1c1.3-0.9,2.7-1.8,4-2.7c2.2-1.5,1.7-0.7,1.9-3.2c0.1-1.6,0.2-3.2,0.3-4.8
			c0-0.4,0-0.9,0.8-0.6c0.1,0.8,0.1,1.6,0.2,2.4c0.1,1.3,0.2,2.6,0.2,3.9c0,1,0.4,1.6,1.2,2.1c1.5,0.9,2.9,1.9,4.4,2.9
			C150.6,298.7,151.1,298.8,150.7,299.6z"/>
		<path class="st0" d="M56.2,119.7c-2.1-1.5-4.1-2.9-6.1-4.3c0,0,0-0.2,0-0.3c0.5-0.3,0.8,0,1.2,0.2c1.5,0.7,3,1.4,4.4,2.2
			c1,0.6,1.8,0.5,2.8,0c1.4-0.8,2.9-1.4,4.3-2.2c0.4-0.2,0.7-0.3,1.1-0.5c0.5,0.6,0.1,0.8-0.3,1c-1.5,1-3,2-4.5,2.9
			c-0.9,0.5-1.3,1.1-1.3,2.2c0,1.8-0.2,3.6-0.3,5.4c0,0.4,0.1,0.9-0.8,0.8C56.5,124.7,56.5,122.2,56.2,119.7z"/>
		<path class="st0" d="M107.9,148.3c-0.8,0.5-1.1,0.1-1.5-0.1c-1.6-0.8-3.2-1.6-4.8-2.4c-0.7-0.4-1.2-0.4-1.9,0
			c-1.5,0.8-3.1,1.6-4.7,2.3c-0.4,0.2-0.8,0.4-1.2,0.5c-0.5-0.6,0-0.8,0.3-1.1c1.6-1,3.1-2.1,4.7-3.1c0.7-0.4,1-0.9,1-1.8
			c0.1-1.9,0.2-3.8,0.3-5.6c0-0.4,0-0.9,0.8-0.8c0,0.4,0.1,0.9,0.1,1.3c0.1,1.7,0.2,3.5,0.3,5.2c0,0.8,0.3,1.3,1,1.7
			c1.5,0.9,2.8,1.9,4.3,2.8C107,147.6,107.4,147.9,107.9,148.3z"/>
		<path class="st0" d="M129.2,152.7c0.4,0.8-0.1,0.9-0.4,1.1c-1.6,1-3.1,2.1-4.7,3.1c-0.7,0.4-0.9,0.9-1,1.7
			c-0.1,1.9-0.2,3.8-0.4,5.6c0,0.4,0.1,0.9-0.7,0.9c-0.1-0.3-0.2-0.6-0.2-1c-0.1-1.8-0.3-3.6-0.3-5.4c0-0.9-0.3-1.5-1.1-2
			c-1.5-0.9-2.9-1.9-4.4-2.9c-0.3-0.2-0.6-0.5-0.9-0.8c0.7-0.5,1.1-0.1,1.5,0.1c1.6,0.8,3.2,1.6,4.8,2.4c0.6,0.4,1.2,0.3,1.8,0
			c1.5-0.8,3.1-1.6,4.7-2.3C128.4,153.1,128.8,152.9,129.2,152.7z"/>
		<path class="st0" d="M166.2,174.2c0,0.4,0.1,0.9,0.1,1.3c0.1,1.7,0.2,3.5,0.3,5.2c0,0.8,0.3,1.2,1,1.6c1.4,0.9,2.8,1.9,4.3,2.8
			c0.4,0.3,0.8,0.6,1.2,0.9c-0.6,0.6-1,0.2-1.3,0.1c-1.6-0.8-3.2-1.6-4.8-2.4c-0.7-0.4-1.3-0.4-2,0c-1.5,0.8-3.1,1.6-4.7,2.3
			c-0.4,0.2-0.7,0.3-1.1,0.5c-0.5-0.5-0.2-0.7,0.2-1c1.4-0.9,2.7-1.9,4.2-2.7c1.2-0.7,1.8-1.5,1.7-2.9c0-1.6,0.2-3.3,0.3-5
			C165.5,174.5,165.4,174.1,166.2,174.2z"/>
		<path class="st0" d="M180.7,190.6c0.5,0.2,1,0.4,1.4,0.6c1.5,0.8,3.1,1.5,4.6,2.3c0.7,0.4,1.2,0.4,1.9,0c1.5-0.8,3.1-1.6,4.7-2.3
			c0.4-0.2,0.8-0.4,1.2-0.5c0.5,0.7,0,0.8-0.3,1.1c-1.6,1-3.1,2.1-4.7,3.1c-0.7,0.4-1,1-1,1.8c-0.1,1.9-0.2,3.8-0.4,5.6
			c0,0.4,0,0.9-0.8,0.8c0-0.5-0.1-0.9-0.1-1.4c-0.1-1.7-0.2-3.4-0.3-5.1c0-0.8-0.3-1.2-1-1.7c-1.6-1-3.1-2-4.6-3
			C180.9,191.5,180.4,191.3,180.7,190.6z"/>
		<path class="st0" d="M238.3,224.1c-0.8,0.5-1.2,0.1-1.5-0.1c-1.6-0.8-3.2-1.5-4.7-2.4c-0.8-0.5-1.4-0.4-2.2,0
			c-1.5,0.8-3,1.5-4.6,2.3c-0.4,0.2-0.7,0.3-1.1,0.5c-0.5-0.5-0.2-0.7,0.2-1c1.5-1,2.9-2,4.4-2.9c1.1-0.6,1.5-1.4,1.5-2.6
			c0-1.7,0.2-3.4,0.3-5.1c0-0.4,0-0.9,0.8-0.8c0,0.4,0.1,0.9,0.1,1.3c0.1,1.8,0.2,3.6,0.3,5.4c0,0.7,0.3,1.1,0.8,1.4
			c1.5,0.9,2.9,1.9,4.4,2.9C237.5,223.3,237.8,223.7,238.3,224.1z"/>
		<path class="st0" d="M252.4,240.8c-0.2-2.6-0.3-5.1-0.5-7.5c-2.1-1.5-4.1-2.9-6.2-4.3c0,0,0-0.2,0-0.3c0.5-0.3,0.8,0,1.2,0.2
			c1.5,0.7,3,1.4,4.4,2.2c1,0.6,1.8,0.5,2.8,0c1.4-0.8,2.9-1.4,4.3-2.2c0.4-0.2,0.7-0.3,1.1-0.5c0.5,0.6,0.1,0.8-0.3,1
			c-1.5,1-2.9,2-4.4,2.9c-1,0.6-1.4,1.2-1.4,2.4c0,1.7-0.2,3.5-0.3,5.2C253.2,240.4,253.3,240.9,252.4,240.8z"/>
		<path class="st0" d="M281.7,149.2c-0.4-0.1-0.8-0.3-1.2-0.4c-1.6-0.8-3.2-1.6-4.8-2.4c-0.6-0.3-1.2-0.3-1.8,0
			c-1.5,0.8-3.1,1.6-4.7,2.3c-0.4,0.2-0.8,0.4-1.2,0.5c-0.5-0.5-0.2-0.8,0.2-1c1.5-1,3-2.1,4.6-3c0.8-0.5,1.2-1.1,1.2-2.1
			c0-1.8,0.2-3.6,0.3-5.4c0-0.4-0.1-0.9,0.7-0.9c0.1,0.3,0.2,0.6,0.2,1c0.1,1.8,0.3,3.7,0.3,5.5c0,0.8,0.3,1.3,1,1.8
			c1.4,0.9,2.8,1.9,4.3,2.8c0.4,0.3,0.7,0.6,1.1,0.9C281.8,148.9,281.8,149,281.7,149.2z"/>
		<path class="st0" d="M238.1,115.3c0.5,0.7,0,0.9-0.4,1.1c-1.5,1-2.9,2-4.4,2.9c-0.9,0.5-1.4,1.2-1.4,2.3c0,1.8-0.2,3.6-0.3,5.4
			c0,0.4,0,0.9-0.8,0.7c0-0.4-0.1-0.9-0.1-1.3c-0.1-1.8-0.2-3.6-0.3-5.4c0-0.7-0.3-1.1-0.9-1.4c-1.5-1-3-2-4.5-3
			c-0.4-0.2-0.7-0.5-1-0.8c0.6-0.6,1-0.2,1.3-0.1c1.5,0.7,3,1.4,4.4,2.2c1.1,0.6,1.9,0.5,2.9,0c1.4-0.8,2.9-1.4,4.3-2.1
			C237.4,115.6,237.8,115.5,238.1,115.3z"/>
		<path class="st0" d="M209.9,98.9c0,0.4,0.1,0.8,0.1,1.3c0.1,1.7,0.2,3.5,0.3,5.2c0,0.8,0.3,1.3,0.9,1.7c1.4,0.9,2.8,1.9,4.3,2.8
			c0.4,0.3,0.8,0.6,1.2,0.9c-0.5,0.7-0.9,0.3-1.3,0.1c-1.7-0.8-3.3-1.6-4.9-2.5c-0.7-0.4-1.2-0.4-1.9,0c-1.5,0.8-3.1,1.6-4.7,2.3
			c-0.4,0.2-0.8,0.4-1.2,0.5c-0.5-0.6,0-0.8,0.3-1.1c1.6-1,3.1-2.1,4.7-3.1c0.7-0.4,1-0.9,1-1.8c0.1-1.9,0.2-3.8,0.3-5.6
			C209.1,99.3,209.1,98.8,209.9,98.9z"/>
		<path class="st0" d="M137.5,73.4c-0.5-0.6,0-0.8,0.3-1c1.6-1,3.1-2.1,4.7-3.1c0.7-0.4,1-1,1-1.8c0.1-1.9,0.2-3.8,0.3-5.6
			c0-0.4,0-0.9,0.8-0.8c0,0.4,0.1,0.8,0.1,1.3c0.1,1.8,0.2,3.6,0.3,5.4c0,0.7,0.3,1.1,0.8,1.4c1.5,0.9,2.9,1.9,4.4,2.9
			c0.4,0.3,0.8,0.6,1.2,0.9c-0.5,0.7-0.9,0.3-1.3,0.1c-1.6-0.8-3.2-1.5-4.7-2.4c-0.9-0.5-1.6-0.5-2.4,0c-1.5,0.8-3,1.5-4.6,2.3
			C138.2,73.1,137.8,73.3,137.5,73.4z"/>
		<path class="st0" d="M107.7,39.6c0.5,0.7,0,0.8-0.3,1.1c-1.6,1-3.1,2.1-4.7,3.1c-0.7,0.4-1,1-1,1.8c-0.1,1.9-0.2,3.8-0.3,5.6
			c0,0.4,0,0.9-0.8,0.8c0-0.4-0.1-0.9-0.1-1.3c-0.1-1.7-0.2-3.5-0.3-5.2c0-0.8-0.3-1.2-1-1.7c-1.5-0.9-3-2-4.5-3
			c-0.3-0.2-0.8-0.4-0.8-1.1c0.6-0.2,1,0.1,1.4,0.3c1.6,0.8,3.1,1.5,4.7,2.4c0.7,0.4,1.2,0.3,1.9,0c1.5-0.8,3.1-1.6,4.7-2.3
			C106.9,39.9,107.3,39.7,107.7,39.6z"/>
		<path class="st0" d="M79.5,23.2c0.1,2,0.3,4,0.3,5.9c0,1.2,0.3,1.9,1.4,2.5c1.4,0.7,2.6,1.7,3.9,2.6c0.4,0.3,0.9,0.5,1,1.1
			c-0.6,0.3-1,0-1.4-0.2c-1.6-0.8-3.2-1.6-4.8-2.4c-0.6-0.3-1.1-0.3-1.7,0c-1.6,0.8-3.2,1.6-4.8,2.4c-0.4,0.2-0.8,0.4-1.2,0.5
			c-0.5-0.6-0.1-0.8,0.3-1c1.5-1,3-2.1,4.6-3c0.8-0.5,1.2-1,1.2-2c0-1.8,0.2-3.7,0.3-5.5C78.7,23.6,78.6,23.1,79.5,23.2z"/>
		<path class="st0" d="M35.3,14.1c0-0.6-0.1-1.1-0.1-1.6c-0.1-1.7-0.2-3.4-0.3-5.1c0-0.7-0.3-1.1-0.9-1.4c-1.5-1-3-2-4.5-3
			c-0.4-0.2-0.7-0.5-1-0.8c0.6-0.6,1-0.2,1.3,0c1.6,0.8,3.2,1.6,4.8,2.4c0.7,0.4,1.3,0.4,2,0c1.5-0.8,3-1.5,4.6-2.3
			c0.4-0.2,0.8-0.4,1.2-0.6c0.5,0.5,0.2,0.8-0.2,1c-1.5,1-3,2.1-4.6,3c-0.8,0.5-1.2,1.1-1.2,2.1c0,1.8-0.2,3.6-0.3,5.4
			C36,13.6,36.2,14.1,35.3,14.1z"/>
		<path class="st0" d="M172.9,77.5c0.5,0.7,0,0.9-0.4,1.1c-1.5,1-3,2-4.5,2.9c-0.8,0.5-1.2,1.1-1.2,2.1c0,1.8-0.2,3.6-0.3,5.4
			c0,0.4,0.1,0.9-0.7,0.9c-0.1-0.3-0.2-0.6-0.2-1c-0.1-1.9-0.3-3.8-0.3-5.6c0-0.8-0.3-1.2-1-1.6c-1.5-0.9-3-2-4.5-3
			c-0.3-0.2-0.6-0.5-0.9-0.8c0.6-0.6,1-0.2,1.3,0c1.6,0.8,3.2,1.6,4.8,2.4c0.7,0.4,1.3,0.4,2,0c1.5-0.8,3.1-1.6,4.7-2.3
			C172.1,77.8,172.5,77.6,172.9,77.5z"/>
		<path class="st0" d="M64.2,223.6c-0.8,0.5-1.2,0.1-1.5-0.1c-1.6-0.8-3.2-1.6-4.8-2.4c-0.7-0.4-1.2-0.4-1.9,0
			c-1.5,0.8-3.1,1.6-4.7,2.3c-0.4,0.2-0.8,0.4-1.2,0.5c-0.5-0.6,0-0.8,0.3-1.1c1.6-1,3.1-2.1,4.7-3.1c0.7-0.4,1-0.9,1-1.8
			c0.1-1.9,0.2-3.8,0.3-5.6c0-0.4,0-0.9,0.8-0.8c0,0.4,0.1,0.8,0.1,1.3c0.1,1.7,0.2,3.5,0.3,5.2c0,0.8,0.3,1.3,0.9,1.7
			c1.4,0.9,2.8,1.9,4.3,2.8C63.3,222.8,63.7,223.2,64.2,223.6z"/>
		<path class="st0" d="M78.3,240.4c-0.1-1.6-0.2-3.2-0.3-4.8c-0.1-0.9,0.1-2-0.3-2.7c-0.4-0.7-1.4-1-2.1-1.5c-1-0.7-2.1-1.4-3.1-2.1
			c-0.3-0.2-0.7-0.5-1.1-0.9c0.7-0.5,1.1-0.1,1.5,0.1c1.6,0.8,3.2,1.5,4.7,2.4c0.7,0.4,1.3,0.4,2,0c1.5-0.8,3-1.5,4.6-2.3
			c0.4-0.2,0.8-0.4,1.2-0.5c0.5,0.6,0.1,0.8-0.2,1c-1.6,1-3.1,2.1-4.7,3.1c-0.8,0.5-1.1,1-1.1,1.9c-0.1,1.8-0.2,3.7-0.3,5.5
			C79.1,239.9,79.2,240.4,78.3,240.4z"/>
		<path class="st0" d="M129,261.8c-0.4-0.2-0.8-0.3-1.2-0.5c-1.6-0.8-3.1-1.5-4.7-2.4c-0.7-0.4-1.2-0.4-1.9,0
			c-1.5,0.8-3.1,1.6-4.7,2.3c-0.4,0.2-0.8,0.4-1.2,0.5c-0.5-0.6-0.1-0.8,0.3-1c1.4-0.9,2.7-1.9,4.2-2.7c1.2-0.7,1.7-1.6,1.7-3
			c0-1.6,0.2-3.2,0.3-4.8c0-0.4-0.1-0.9,0.7-0.9c0.1,0.3,0.1,0.7,0.2,1c0.1,1.8,0.3,3.7,0.3,5.5c0,0.8,0.3,1.3,1,1.8
			c1.4,0.9,2.8,1.9,4.3,2.8c0.4,0.3,0.7,0.6,1.1,0.9C129.2,261.5,129.1,261.7,129,261.8z"/>
		<path class="st0" d="M143.5,278.2c-0.1-2-0.3-3.9-0.3-5.8c0-1.3-0.4-2.1-1.6-2.7c-1.4-0.8-2.7-1.7-4-2.7c-0.3-0.2-0.6-0.5-0.9-0.9
			c0.8-0.4,1.2,0,1.6,0.2c1.6,0.8,3.1,1.5,4.7,2.4c0.7,0.4,1.2,0.4,1.9,0c1.5-0.8,3.1-1.6,4.7-2.3c0.4-0.2,0.8-0.4,1.2-0.5
			c0.5,0.6,0.1,0.8-0.3,1c-1.5,1-3,2.1-4.6,3c-0.8,0.5-1.1,1-1.2,2c0,1.8-0.2,3.7-0.3,5.5C144.3,277.8,144.4,278.3,143.5,278.2z"/>
		<path class="st0" d="M180.6,299.7c-0.5-0.6-0.1-0.8,0.3-1c1.4-0.9,2.7-1.9,4.2-2.7c1.2-0.7,1.7-1.6,1.7-3c0-1.6,0.2-3.2,0.3-4.8
			c0-0.4-0.1-0.9,0.7-0.8c0.1,0.3,0.1,0.7,0.2,1c0.1,1.9,0.3,3.8,0.3,5.6c0,0.7,0.3,1.2,0.9,1.5c1.5,0.9,2.9,1.9,4.4,2.9
			c0.4,0.3,0.7,0.6,1.2,1c-0.7,0.5-1.1,0.1-1.4-0.1c-1.6-0.8-3.2-1.6-4.8-2.4c-0.7-0.4-1.2-0.4-1.9,0c-1.5,0.8-3.1,1.6-4.7,2.3
			C181.4,299.3,180.9,299.5,180.6,299.7z"/>
		<path class="st0" d="M13.1,202.5c-0.2-2.6-0.3-5.1-0.5-7.5c-2.1-1.6-4.3-2.8-6.4-4.5c0.6-0.5,1-0.2,1.4,0c1.6,0.8,3.2,1.6,4.8,2.4
			c0.7,0.4,1.3,0.4,2,0c1.5-0.8,3-1.5,4.6-2.3c0.4-0.2,0.8-0.4,1.2-0.5c0.5,0.6,0.1,0.8-0.2,1c-1.6,1-3.1,2.1-4.7,3.1
			c-0.8,0.5-1.1,1-1.1,1.9c-0.1,1.8-0.2,3.7-0.3,5.5C13.8,202,14,202.5,13.1,202.5z"/>
		<path class="st0" d="M35.7,98.4c0,0.4,0.1,0.8,0.1,1.3c0.1,1.7,0.2,3.5,0.3,5.2c0,0.8,0.3,1.3,0.9,1.7c1.5,0.9,2.8,1.9,4.3,2.8
			c0.4,0.3,0.8,0.6,1.2,0.9c-0.5,0.7-0.9,0.3-1.3,0.1c-1.7-0.8-3.3-1.6-4.9-2.5c-0.7-0.4-1.2-0.4-1.9,0c-1.5,0.8-3.1,1.6-4.7,2.3
			c-0.4,0.2-0.8,0.4-1.2,0.5c-0.5-0.6,0-0.8,0.3-1.1c1.6-1,3.1-2.1,4.7-3.1c0.7-0.4,1-0.9,1-1.8c0.1-1.9,0.2-3.8,0.3-5.6
			C35,98.8,35,98.4,35.7,98.4z"/>
		<path class="st0" d="M274.6,52.4c0-0.4-0.1-0.9-0.1-1.3c-0.1-1.8-0.2-3.6-0.3-5.4c0-0.7-0.3-1.1-0.8-1.4c-1.5-1-3-2-4.5-3
			c-0.4-0.2-0.7-0.5-1-0.8c0-0.1,0.1-0.2,0.1-0.3c0.3,0.1,0.6,0.1,0.8,0.2c1.7,0.8,3.3,1.6,4.9,2.5c0.8,0.4,1.5,0.5,2.3,0
			c1.5-0.8,3.1-1.6,4.7-2.3c0.4-0.2,0.7-0.3,1.1-0.4c0.5,0.7,0,0.8-0.4,1.1c-1.6,1-3.1,2.1-4.7,3.1c-0.7,0.4-0.9,0.9-0.9,1.7
			c-0.1,1.9-0.2,3.8-0.4,5.6C275.4,52.1,275.4,52.6,274.6,52.4z"/>
		<path class="st0" d="M260.1,36.1c-0.4-0.2-0.9-0.3-1.3-0.5c-1.6-0.8-3.1-1.5-4.7-2.4c-0.6-0.3-1.1-0.3-1.7,0
			c-1.6,0.8-3.2,1.6-4.8,2.4c-0.4,0.2-0.8,0.4-1.2,0.5c-0.5-0.6-0.1-0.8,0.3-1.1c1.5-1,3-2.1,4.6-3c0.7-0.5,1.1-1,1.1-1.9
			c0-1.8,0.2-3.7,0.3-5.5c0-0.4,0-0.9,0.7-0.8c0,0.4,0.1,0.8,0.2,1.2c0.1,1.7,0.3,3.5,0.3,5.2c0,0.9,0.4,1.5,1.2,2
			c1.5,0.9,2.9,1.9,4.4,2.9c0.3,0.2,0.5,0.4,0.8,0.6C260.2,35.8,260.2,35.9,260.1,36.1z"/>
		<path class="st0" d="M216.5,2.3c0.5,0.6,0.1,0.8-0.3,1c-1.4,0.9-2.8,1.9-4.3,2.8c-1,0.6-1.5,1.3-1.5,2.5c0,1.7-0.2,3.4-0.3,5.1
			c0,0.4,0.1,0.9-0.8,0.8c-0.3-2.5-0.3-5.1-0.6-7.5c-2.1-1.5-4.1-2.9-6.1-4.3c0,0,0-0.2,0.1-0.4c0.4,0.1,0.7,0.3,1.1,0.4
			c1.6,0.8,3.2,1.6,4.8,2.4c0.7,0.4,1.3,0.4,1.9,0c1.5-0.8,3.1-1.6,4.7-2.3C215.7,2.7,216.2,2.5,216.5,2.3z"/>
	</g>
</g>
</svg>
