<?xml version="1.0" encoding="utf-8"?>
<!-- Generator: Adobe Illustrator 17.1.0, SVG Export Plug-In . SVG Version: 6.00 Build 0)  -->
<!DOCTYPE svg PUBLIC "-//W3C//DTD SVG 1.1//EN" "http://www.w3.org/Graphics/SVG/1.1/DTD/svg11.dtd">
<svg version="1.1" xmlns="http://www.w3.org/2000/svg" xmlns:xlink="http://www.w3.org/1999/xlink" x="0px" y="0px"
	 viewBox="0 0 48 48" enable-background="new 0 0 48 48" xml:space="preserve">
<g id="Layer_2">
</g>
<g id="Layer_1" display="none">
	<g display="inline">
		<path fill-rule="evenodd" clip-rule="evenodd" fill="#7EC8A4" d="M41.7,1C44.7,1,47,3.3,47,6.3c0,2.9-2.4,5.3-5.3,5.3
			s-5.3-2.4-5.3-5.3C36.4,3.3,38.8,1,41.7,1z"/>
		<path fill-rule="evenodd" clip-rule="evenodd" fill="#7EC8A4" d="M24,1c2.9,0,5.3,2.4,5.3,5.3c0,2.9-2.4,5.3-5.3,5.3
			c-2.9,0-5.3-2.4-5.3-5.3C18.7,3.3,21.1,1,24,1z"/>
		<path fill-rule="evenodd" clip-rule="evenodd" fill="#7EC8A4" d="M6.3,1c2.9,0,5.3,2.4,5.3,5.3c0,2.9-2.4,5.3-5.3,5.3S1,9.2,1,6.3
			C1,3.3,3.3,1,6.3,1z"/>
		<path fill-rule="evenodd" clip-rule="evenodd" fill="#7EC8A4" d="M41.7,18.7c2.9,0,5.3,2.4,5.3,5.3c0,2.9-2.4,5.3-5.3,5.3
			s-5.3-2.4-5.3-5.3C36.4,21,38.8,18.7,41.7,18.7z"/>
		<path fill-rule="evenodd" clip-rule="evenodd" fill="#7EC8A4" d="M24,18.7c2.9,0,5.3,2.4,5.3,5.3c0,2.9-2.4,5.3-5.3,5.3
			c-2.9,0-5.3-2.4-5.3-5.3C18.7,21,21.1,18.7,24,18.7z"/>
		<path fill-rule="evenodd" clip-rule="evenodd" fill="#7EC8A4" d="M6.3,18.7c2.9,0,5.3,2.4,5.3,5.3c0,2.9-2.4,5.3-5.3,5.3
			S1,26.9,1,24C1,21,3.3,18.7,6.3,18.7z"/>
		<path fill-rule="evenodd" clip-rule="evenodd" fill="#7EC8A4" d="M41.7,36.4c2.9,0,5.3,2.4,5.3,5.3S44.7,47,41.7,47
			s-5.3-2.4-5.3-5.3S38.8,36.4,41.7,36.4z"/>
		<path fill-rule="evenodd" clip-rule="evenodd" fill="#7EC8A4" d="M24,36.4c2.9,0,5.3,2.4,5.3,5.3S26.9,47,24,47
			c-2.9,0-5.3-2.4-5.3-5.3S21.1,36.4,24,36.4z"/>
		<path fill-rule="evenodd" clip-rule="evenodd" fill="#7EC8A4" d="M6.3,36.4c2.9,0,5.3,2.4,5.3,5.3S9.2,47,6.3,47S1,44.6,1,41.7
			S3.3,36.4,6.3,36.4z"/>
	</g>
</g>
<g id="Layer_3" display="none">
	<g display="inline">
		<path fill-rule="evenodd" clip-rule="evenodd" fill="none" stroke="#39C5F3" stroke-width="2" stroke-miterlimit="10" d="M12.2,38
			c0-6.4,5.3-11.5,11.8-11.5S35.8,31.6,35.8,38"/>
		<path fill-rule="evenodd" clip-rule="evenodd" fill="none" stroke="#AFAFBE" stroke-width="2" stroke-miterlimit="10" d="M6.3,1.2
			h35.4c1.6,0,2.9,1.3,2.9,2.9v39.8c0,1.6-1.3,2.9-2.9,2.9H6.3c-1.6,0-2.9-1.3-2.9-2.9V4.1C3.4,2.5,4.7,1.2,6.3,1.2z"/>
		<path fill-rule="evenodd" clip-rule="evenodd" fill="none" stroke="#F9C0B3" stroke-width="2" stroke-miterlimit="10" d="M24,10
			c4.1,0,7.4,3.3,7.4,7.4c0,4.1-3.3,7.4-7.4,7.4c-4.1,0-7.4-3.3-7.4-7.4C16.6,13.3,19.9,10,24,10z"/>
	</g>
	<g display="inline">
		<path fill-rule="evenodd" clip-rule="evenodd" fill="none" stroke="#39C5F3" stroke-width="2" stroke-miterlimit="10" d="
			M137.3,84.6c0-7.4,6.1-13.4,13.7-13.4s13.7,6,13.7,13.4"/>
		<path fill-rule="evenodd" clip-rule="evenodd" fill="none" stroke="#AFAFBE" stroke-width="2" stroke-miterlimit="10" d="
			M130.4,41.7h41.1c1.9,0,3.4,1.5,3.4,3.4v46.3c0,1.9-1.5,3.4-3.4,3.4h-41.1c-1.9,0-3.4-1.5-3.4-3.4V45.1
			C127,43.2,128.6,41.7,130.4,41.7z"/>
		<path fill-rule="evenodd" clip-rule="evenodd" fill="none" stroke="#F9C0B3" stroke-width="2" stroke-miterlimit="10" d="M151,52
			c4.7,0,8.6,3.8,8.6,8.6c0,4.7-3.8,8.6-8.6,8.6c-4.7,0-8.6-3.8-8.6-8.6C142.4,55.8,146.3,52,151,52z"/>
	</g>
</g>
<g id="Layer_4" display="none">
	<g display="inline">
		<path fill-rule="evenodd" clip-rule="evenodd" fill="none" stroke="#CCCBCB" stroke-width="2" stroke-miterlimit="10" d="M46.3,47
			H1.7V0.4"/>
		<path fill-rule="evenodd" clip-rule="evenodd" fill="none" stroke="#E04747" stroke-width="2" stroke-miterlimit="10" d="
			M44.4,35.3v-35"/>
		<path fill-rule="evenodd" clip-rule="evenodd" fill="none" stroke="#E04747" stroke-width="2" stroke-miterlimit="10" d="
			M30.8,35.3V12"/>
		<path fill-rule="evenodd" clip-rule="evenodd" fill="none" stroke="#E04747" stroke-width="2" stroke-miterlimit="10" d="
			M17.2,35.3V21.7"/>
	</g>
</g>
<g id="Layer_5" display="none">
	<g display="inline">
		<g>
			<path fill-rule="evenodd" clip-rule="evenodd" fill="none" stroke="#F48A80" stroke-width="2" stroke-miterlimit="10" d="
				M1.2,21.3h38.3"/>
			<path fill-rule="evenodd" clip-rule="evenodd" fill="none" stroke="#F7A8A4" stroke-width="2" stroke-miterlimit="10" d="
				M8.4,11.4V6.8c0-1.6,1.3-2.8,2.8-2.8h32.7c1.6,0,2.8,1.3,2.8,2.8v27c0,1.6-1.3,2.8-2.8,2.8h-4.2"/>
			<path fill-rule="evenodd" clip-rule="evenodd" fill="none" stroke="#F48A80" stroke-width="2" stroke-miterlimit="10" d="
				M4.2,11.4h32.7c1.6,0,2.8,1.3,2.8,2.8v27c0,1.6-1.3,2.8-2.8,2.8H4.2c-1.6,0-2.8-1.3-2.8-2.8v-27C1.3,12.7,2.6,11.4,4.2,11.4z"/>
		</g>
		
			<line fill-rule="evenodd" clip-rule="evenodd" fill="none" stroke="#F7A8A4" stroke-width="2" stroke-miterlimit="10" x1="5.1" y1="16.7" x2="7.8" y2="16.7"/>
		
			<line fill-rule="evenodd" clip-rule="evenodd" fill="none" stroke="#F7A8A4" stroke-width="2" stroke-miterlimit="10" x1="9.4" y1="16.7" x2="12.1" y2="16.7"/>
		
			<line fill-rule="evenodd" clip-rule="evenodd" fill="none" stroke="#F7A8A4" stroke-width="2" stroke-miterlimit="10" x1="13.7" y1="16.7" x2="16.3" y2="16.7"/>
	</g>
</g>
<g id="Layer_6">
	<path fill="#7CD0E6" d="M37.8,40.2H13c-7,0-12.7-5.7-12.7-12.7S5.9,14.7,13,14.7c1.1,0,2.3,0.2,3.4,0.5c1.9-4.5,6.2-7.4,11.1-7.4
		c6.6,0,12,5.4,12,12.1c0,0.2,0,0.4,0,0.5c4.7,0.8,8.3,4.9,8.3,9.8C47.8,35.7,43.3,40.2,37.8,40.2z M13,16.7
		C7,16.7,2.2,21.5,2.2,27.5C2.2,33.4,7,38.2,13,38.2h24.8c4.4,0,8-3.6,8-8c0-4.2-3.3-7.7-7.4-7.9l-1.1-0.1l0.1-1.1
		c0.1-0.5,0.1-0.9,0.1-1.3c0-5.5-4.5-10.1-10-10.1c-4.4,0-8.2,2.8-9.5,7l-0.3,1l-1-0.4C15.4,17,14.2,16.7,13,16.7z"/>
</g>
<g id="Layer_7" display="none">
	<g display="inline">
		<polygon fill="#805682" points="35.6,44.3 12.3,44.3 17.1,36.7 18.8,37.7 15.9,42.3 32,42.3 29.1,37.7 30.8,36.7 		"/>
		<path fill="#BA8BBE" d="M43.6,3.7H4.3c-2.1,0-3.8,1.7-3.8,3.8v26.7c0,2.1,1.7,3.8,3.8,3.8h39.3c2.1,0,3.8-1.7,3.8-3.8V7.5
			C47.4,5.4,45.7,3.7,43.6,3.7z M4.3,5.7h39.3c1,0,1.8,0.8,1.8,1.8v20.1H2.5V7.5C2.5,6.5,3.3,5.7,4.3,5.7z M43.6,35.9H4.3
			c-1,0-1.8-0.8-1.8-1.8v-4.6h42.9v4.6C45.4,35.1,44.6,35.9,43.6,35.9z"/>
	</g>
</g>
<g id="Layer_8" display="none">
	<g display="inline">
		<rect x="39.2" y="18.3" fill="#E93B3A" width="3" height="10.2"/>
		<path fill-rule="evenodd" clip-rule="evenodd" fill="none" stroke="#EF7273" stroke-miterlimit="10" d="M8.7,18.3v10.2"/>
		<rect x="5.8" y="18.3" fill="#E93B3B" width="3" height="10.2"/>
		<path fill="#EF7273" d="M24,0.9c-9,0-16.3,7.3-16.3,16.3v12.3h2V17.3C9.7,9.4,16.1,2.9,24,2.9s14.3,6.4,14.3,14.3v12.3
			c0,4.6-2.1,8.8-5.8,11.5c-0.7-0.9-1.7-1.4-2.9-1.4c-2.1,0-3.7,1.7-3.7,3.7s1.7,3.7,3.7,3.7s3.7-1.7,3.7-3.7c0-0.1,0-0.3,0-0.4
			c4.4-3.1,7-8,7-13.4V17.3C40.3,8.3,33,0.9,24,0.9z M29.7,45.1c-1,0-1.7-0.8-1.7-1.7s0.8-1.7,1.7-1.7s1.7,0.8,1.7,1.7
			S30.6,45.1,29.7,45.1z"/>
	</g>
</g>
<g id="Layer_9" display="none">
	<g display="inline">
		<path fill="#CCCBCB" d="M36.9,22.3h-2v-9.7c0-5.7-4.2-10.4-9.4-10.4h-3c-5.2,0-9.4,4.6-9.4,10.4v9.7h-2v-9.7
			c0-6.8,5.1-12.4,11.4-12.4h3c6.3,0,11.4,5.5,11.4,12.4V22.3z"/>
		<rect x="23" y="32.9" fill="#A6B1D5" width="2" height="8.1"/>
		<path fill="#A6B1D5" d="M40.1,47.8H7.9V21.3h32.3V47.8z M9.9,45.8h28.3V23.3H9.9V45.8z"/>
	</g>
</g>
<g id="Layer_10" display="none">
	<g display="inline">
		<rect x="20.9" y="39" fill="#63C6C5" width="6.1" height="2"/>
		<path fill="#63C6C5" d="M35.4,47.3H12.6c-1.8,0-3.3-1.5-3.3-3.3V4c0-1.8,1.5-3.3,3.3-3.3h22.9c1.8,0,3.3,1.5,3.3,3.3V44
			C38.7,45.9,37.2,47.3,35.4,47.3z M12.6,2.7c-0.7,0-1.3,0.6-1.3,1.3V44c0,0.7,0.6,1.3,1.3,1.3h22.9c0.7,0,1.3-0.6,1.3-1.3V4
			c0-0.7-0.6-1.3-1.3-1.3H12.6z"/>
	</g>
</g>
<g id="Layer_11" display="none">
	<g display="inline">
		<path fill="#605CA8" d="M35,36.7l-5.1-5l1.4-1.4l5.1,5L35,36.7z M15.6,17.5l-5.2-5.2l1.4-1.4l5.2,5.2L15.6,17.5z"/>
		<path fill="#605CA8" d="M11.8,36.7l-1.4-1.4l5.1-5l1.4,1.4L11.8,36.7z M31.3,17.6l-1.4-1.4L35,11l1.4,1.4L31.3,17.6z"/>
		<path fill="#A3A1C3" d="M23.4,35.1c-3,0-5.7-1.2-7.8-3.2c-2.1-2.1-3.2-4.9-3.2-7.8c0-3,1.2-5.7,3.2-7.8s4.9-3.2,7.8-3.2
			c3,0,5.7,1.2,7.8,3.2c2.1,2.1,3.2,4.9,3.2,7.8c0,3-1.2,5.7-3.2,7.8C29.2,33.9,26.4,35.1,23.4,35.1z M23.4,14.9
			c-2.4,0-4.7,0.9-6.4,2.7c-1.7,1.7-2.7,4-2.7,6.4c0,2.4,0.9,4.7,2.7,6.4s4,2.7,6.4,2.7c2.4,0,4.7-0.9,6.4-2.7s2.7-4,2.7-6.4
			c0-2.4-0.9-4.7-2.7-6.4C28.1,15.9,25.8,14.9,23.4,14.9z"/>
		<path fill="#A3A1C3" d="M39.7,14.4c-3.7,0-6.6-3-6.6-6.6s3-6.6,6.6-6.6c3.7,0,6.6,3,6.6,6.6S43.4,14.4,39.7,14.4z M39.7,3.2
			c-2.5,0-4.6,2.1-4.6,4.6s2.1,4.6,4.6,4.6s4.6-2.1,4.6-4.6S42.3,3.2,39.7,3.2z"/>
		<path fill="#A3A1C3" d="M39.7,46.6c-3.7,0-6.6-3-6.6-6.6s3-6.6,6.6-6.6c3.7,0,6.6,3,6.6,6.6S43.4,46.6,39.7,46.6z M39.7,35.4
			c-2.5,0-4.6,2.1-4.6,4.6s2.1,4.6,4.6,4.6s4.6-2.1,4.6-4.6S42.3,35.4,39.7,35.4z"/>
		<path fill="#A3A1C3" d="M7.1,46.6c-3.7,0-6.6-3-6.6-6.6s3-6.6,6.6-6.6s6.6,3,6.6,6.6S10.8,46.6,7.1,46.6z M7.1,35.4
			c-2.6,0-4.6,2.1-4.6,4.6s2.1,4.6,4.6,4.6s4.6-2.1,4.6-4.6S9.7,35.4,7.1,35.4z"/>
		<path fill="#A3A1C3" d="M7.1,14.3c-3.7,0-6.6-3-6.6-6.6s3-6.6,6.6-6.6s6.6,3,6.6,6.6S10.8,14.3,7.1,14.3z M7.1,3.1
			c-2.6,0-4.6,2.1-4.6,4.6c0,2.5,2.1,4.6,4.6,4.6s4.6-2.1,4.6-4.6C11.7,5.2,9.7,3.1,7.1,3.1z"/>
	</g>
</g>
<g id="Layer_12" display="none">
	<g display="inline">
		<rect x="12.2" y="23" fill="#F09E1F" width="6.5" height="2"/>
		<path fill="#FFC129" d="M11,35.2H2.6c-1.2,0-2.1-1-2.1-2.1V15c0-1.2,1-2.1,2.1-2.1H11c1.2,0,2.1,1,2.1,2.1V33
			C13.2,34.2,12.2,35.2,11,35.2z M2.6,14.8c-0.1,0-0.1,0.1-0.1,0.1V33c0,0.1,0.1,0.1,0.1,0.1H11c0.1,0,0.1-0.1,0.1-0.1V15
			c0-0.1-0.1-0.1-0.1-0.1H2.6z"/>
		<rect x="29.4" y="23" fill="#F09E1F" width="6.5" height="2"/>
		<path fill="#FFC129" d="M28.2,35.2h-8.5c-1.2,0-2.1-1-2.1-2.1V15c0-1.2,1-2.1,2.1-2.1h8.5c1.2,0,2.1,1,2.1,2.1V33
			C30.4,34.2,29.4,35.2,28.2,35.2z M19.8,14.8c-0.1,0-0.1,0.1-0.1,0.1V33c0,0.1,0.1,0.1,0.1,0.1h8.5c0.1,0,0.1-0.1,0.1-0.1V15
			c0-0.1-0.1-0.1-0.1-0.1H19.8z"/>
		<path fill="#FFC129" d="M45.4,35.2H37c-1.2,0-2.1-1-2.1-2.1V15c0-1.2,1-2.1,2.1-2.1h8.5c1.2,0,2.1,1,2.1,2.1V33
			C47.6,34.2,46.6,35.2,45.4,35.2z M37,14.8c-0.1,0-0.1,0.1-0.1,0.1V33c0,0.1,0.1,0.1,0.1,0.1h8.5c0.1,0,0.1-0.1,0.1-0.1V15
			c0-0.1-0.1-0.1-0.1-0.1H37z"/>
	</g>
</g>
<g id="Layer_13" display="none">
	<g display="inline">
		<polygon fill="#067842" points="25,45.6 25,38.2 23,38.2 23,45.6 12.9,45.6 12.9,47.6 35.1,47.6 35.1,45.6 		"/>
		<rect x="22" y="6" fill="#069D5E" width="4" height="2"/>
		<rect x="22" y="17.9" fill="#069D5E" width="4" height="2"/>
		<rect x="22" y="30.9" fill="#069D5E" width="4" height="2"/>
		<path fill="#069D5E" d="M38.6,0.4H9.4C7.5,0.4,6,2,6,3.8v32.4c0,1.9,1.5,3.4,3.4,3.4h29.3c1.9,0,3.4-1.5,3.4-3.4V3.8
			C42,2,40.5,0.4,38.6,0.4z M9.4,2.4h29.3c0.8,0,1.4,0.6,1.4,1.4v8.5H8V3.8C8,3.1,8.6,2.4,9.4,2.4z M40,14.3v9.9H8v-9.9H40z
			 M38.6,37.6H9.4C8.6,37.6,8,37,8,36.3V26.2h32v10.1C40,37,39.4,37.6,38.6,37.6z"/>
	</g>
</g>
<g id="Layer_14" display="none">
	<g display="inline">
		<polygon fill="#805682" points="24.9,36.6 8.3,36.6 11.7,31 13.4,32.1 11.9,34.6 21.3,34.6 19.8,32.1 21.5,31 		"/>
		<path fill="#BA8BBE" d="M29.6,9H3.6C2,9,0.7,10.3,0.7,11.9v17.7c0,1.6,1.3,2.9,2.9,2.9h26.1c1.6,0,2.9-1.3,2.9-2.9V11.9
			C32.5,10.3,31.2,9,29.6,9z M3.6,11h26.1c0.5,0,0.9,0.4,0.9,0.9v13H2.7v-13C2.7,11.4,3.1,11,3.6,11z M29.6,30.4H3.6
			c-0.5,0-0.9-0.4-0.9-0.9v-2.7h27.8v2.7C30.5,30,30.1,30.4,29.6,30.4z"/>
	</g>
	<g display="inline">
		<rect x="40.1" y="34.6" fill="#63C6C5" width="2.3" height="2"/>
		<path fill="#63C6C5" d="M45.4,39h-8.5c-1,0-1.9-0.8-1.9-1.9V22.3c0-1,0.8-1.9,1.9-1.9h8.5c1,0,1.9,0.8,1.9,1.9v14.9
			C47.3,38.2,46.5,39,45.4,39z M37.1,37h8.2V22.4h-8.2V37z"/>
	</g>
</g>
</svg>
